<?xml version="1.0" encoding="UTF-8" standalone="no"?>
<!-- Created with Inkscape (http://www.inkscape.org/) -->

<svg
   xmlns:dc="http://purl.org/dc/elements/1.1/"
   xmlns:cc="http://creativecommons.org/ns#"
   xmlns:rdf="http://www.w3.org/1999/02/22-rdf-syntax-ns#"
   xmlns:svg="http://www.w3.org/2000/svg"
   xmlns="http://www.w3.org/2000/svg"
   xmlns:sodipodi="http://sodipodi.sourceforge.net/DTD/sodipodi-0.dtd"
   xmlns:inkscape="http://www.inkscape.org/namespaces/inkscape"
   width="60"
   height="380"
   viewBox="0 0 60 380"
   version="1.1"
   id="svg8"
   inkscape:version="0.92.2 (5c3e80d, 2017-08-06)"
   sodipodi:docname="Compair.svg">
  <defs
     id="defs2" />
  <sodipodi:namedview
     id="base"
     pagecolor="#ffffff"
     bordercolor="#666666"
     borderopacity="1.0"
     inkscape:pageopacity="0"
     inkscape:pageshadow="2"
     inkscape:zoom="2.8284272"
     inkscape:cx="107.81196"
     inkscape:cy="167.86286"
     inkscape:document-units="px"
     inkscape:current-layer="layer1"
     showgrid="true"
     units="px"
     inkscape:snap-bbox="true"
     inkscape:snap-page="true"
     inkscape:bbox-nodes="true"
     inkscape:snap-bbox-edge-midpoints="true"
     inkscape:window-width="1600"
     inkscape:window-height="955"
     inkscape:window-x="0"
     inkscape:window-y="0"
     inkscape:window-maximized="0"
     inkscape:showpageshadow="false"
     inkscape:pagecheckerboard="false"
     showguides="true"
     inkscape:guide-bbox="true">
    <inkscape:grid
       type="xygrid"
       id="grid1067"
       spacingx="15"
       spacingy="15"
       enabled="false" />
    <sodipodi:guide
       position="541.42171,404.55674"
       orientation="1,0"
       id="guide1853"
       inkscape:locked="false" />
  </sodipodi:namedview>
  <metadata
     id="metadata5">
    <rdf:RDF>
      <cc:Work
         rdf:about="">
        <dc:format>image/svg+xml</dc:format>
        <dc:type
           rdf:resource="http://purl.org/dc/dcmitype/StillImage" />
        <dc:title />
      </cc:Work>
    </rdf:RDF>
  </metadata>
  <g
     inkscape:label="layer"
     inkscape:groupmode="layer"
     id="layer1"
     transform="translate(0,-196.45832)">
    <g
       transform="matrix(3.7795274,0,0,3.7795274,0,-546.06128)"
       id="layer1-8"
       inkscape:label="Layer 1"
       sodipodi:insensitive="true">
      <path
         inkscape:connector-curvature="0"
         id="rect817"
         d="m 0,200.42707 h 15.875001 v 92.60417 H 0 Z"
         style="display:inline;opacity:1;vector-effect:none;fill:#808080;fill-opacity:1;fill-rule:evenodd;stroke:none;stroke-width:0.38088688;stroke-linecap:butt;stroke-linejoin:round;stroke-miterlimit:4;stroke-dasharray:none;stroke-dashoffset:0;stroke-opacity:1;paint-order:normal" />
      <path
         style="display:inline;opacity:1;vector-effect:none;fill:#808080;fill-opacity:1;fill-rule:evenodd;stroke:none;stroke-width:0.4214637;stroke-linecap:butt;stroke-linejoin:round;stroke-miterlimit:4;stroke-dasharray:none;stroke-dashoffset:0;stroke-opacity:1;paint-order:normal"
         d="m 0,365 v 15 h 60 v -15 z m 7.5,4.25 h 15 c 1.8005,0 3.25,1.4495 3.25,3.25 0,1.8005 -1.4495,3.25 -3.25,3.25 h -15 c -1.8005,0 -3.25,-1.4495 -3.25,-3.25 0,-1.8005 1.4495,-3.25 3.25,-3.25 z m 30,0 h 15 c 1.800499,0 3.25,1.44951 3.25,3.25 0,1.80053 -1.449501,3.25 -3.25,3.25 h -15 c -1.8005,0 -3.25,-1.44947 -3.25,-3.25 0,-1.80049 1.4495,-3.25 3.25,-3.25 z"
         transform="matrix(0.26458334,0,0,0.26458334,0,196.45832)"
         id="path835"
         inkscape:connector-curvature="0" />
      <g
         style="display:none"
         sodipodi:insensitive="true"
         id="g862">
        <path
           style="display:inline;opacity:1;vector-effect:none;fill:#a9a9a9;fill-opacity:1;fill-rule:evenodd;stroke:none;stroke-width:0.11151227;stroke-linecap:butt;stroke-linejoin:round;stroke-miterlimit:4;stroke-dasharray:none;stroke-dashoffset:0;stroke-opacity:1;paint-order:normal"
           d="m 0,293.03124 h 31.750001 v 3.96875 H 0 Z"
           id="path849"
           inkscape:connector-curvature="0" />
        <g
           style="display:inline"
           id="g884">
          <rect
             ry="0.85989588"
             rx="0.85989588"
             y="294.15573"
             x="1.1244792"
             height="1.7197918"
             width="1.7197918"
             id="rect851"
             style="opacity:1;fill:#000000;fill-opacity:1;stroke:none;stroke-width:0.5291667;stroke-linecap:butt;stroke-linejoin:miter;stroke-miterlimit:4;stroke-dasharray:none;stroke-opacity:1;paint-order:normal" />
          <rect
             style="opacity:1;fill:#000000;fill-opacity:1;stroke:none;stroke-width:0.5291667;stroke-linecap:butt;stroke-linejoin:miter;stroke-miterlimit:4;stroke-dasharray:none;stroke-opacity:1;paint-order:normal"
             id="rect855"
             width="1.7197918"
             height="1.7197918"
             x="5.0932302"
             y="294.15573"
             rx="0.85989588"
             ry="0.85989588" />
          <rect
             y="294.15573"
             x="1.9843755"
             height="1.7197918"
             width="3.9687502"
             id="rect857"
             style="opacity:1;fill:#000000;fill-opacity:1;stroke:none;stroke-width:0.23665054;stroke-linecap:butt;stroke-linejoin:miter;stroke-miterlimit:4;stroke-dasharray:none;stroke-opacity:1;paint-order:normal" />
        </g>
      </g>
      <path
         inkscape:connector-curvature="0"
         id="path1230"
         d="m 0,196.45832 v 3.96875 h 15.875 v -3.96875 z m 1.984375,1.12448 h 3.9687501 c 0.4763824,0 0.8598959,0.38351 0.8598959,0.8599 0,0.47638 -0.3835135,0.85989 -0.8598959,0.85989 H 1.984375 c -0.4763823,0 -0.8598958,-0.38351 -0.8598958,-0.85989 0,-0.47639 0.3835135,-0.8599 0.8598958,-0.8599 z m 7.9375002,0 h 3.9687498 c 0.476382,0 0.859896,0.38352 0.859896,0.8599 0,0.47639 -0.383514,0.85989 -0.859896,0.85989 H 9.9218752 c -0.4763823,0 -0.8598958,-0.3835 -0.8598958,-0.85989 0,-0.47638 0.3835135,-0.8599 0.8598958,-0.8599 z"
         style="display:inline;opacity:1;vector-effect:none;fill:#808080;fill-opacity:1;fill-rule:evenodd;stroke:none;stroke-width:0.11151227;stroke-linecap:butt;stroke-linejoin:round;stroke-miterlimit:4;stroke-dasharray:none;stroke-dashoffset:0;stroke-opacity:1;paint-order:normal" />
    </g>
    <rect
       style="opacity:1;fill:#696969;fill-opacity:1;stroke:none;stroke-width:1.51877141;stroke-linecap:butt;stroke-linejoin:miter;stroke-miterlimit:4;stroke-dasharray:none;stroke-opacity:1;paint-order:normal"
       id="rect1019"
       width="60"
       height="346"
       x="0"
       y="213.45831"
       sodipodi:insensitive="true" />
    <text
       xml:space="preserve"
       style="font-style:normal;font-variant:normal;font-weight:normal;font-stretch:normal;font-size:8px;line-height:1.25;font-family:'DejaVu Sans Mono';-inkscape-font-specification:'DejaVu Sans Mono, Normal';font-variant-ligatures:normal;font-variant-caps:normal;font-variant-numeric:normal;font-feature-settings:normal;text-align:center;letter-spacing:0px;word-spacing:0px;writing-mode:lr-tb;text-anchor:middle;fill:#000000;fill-opacity:1;stroke:#dcdcdc;stroke-width:0.001;stroke-miterlimit:4;stroke-dasharray:none"
       x="29.995487"
       y="250.45831"
       id="text1074"><tspan
         sodipodi:role="line"
         id="tspan1193"
         x="29.995487"
         y="250.45831">A INPUT B</tspan></text>
    <text
       id="text1080"
       y="312.45831"
       x="30.269915"
       style="font-style:normal;font-variant:normal;font-weight:normal;font-stretch:normal;font-size:8px;line-height:1.25;font-family:'DejaVu Sans Mono';-inkscape-font-specification:'DejaVu Sans Mono, Normal';font-variant-ligatures:normal;font-variant-caps:normal;font-variant-numeric:normal;font-feature-settings:normal;text-align:center;letter-spacing:0px;word-spacing:0px;writing-mode:lr-tb;text-anchor:middle;fill:#b22222;fill-opacity:1;stroke:#000000;stroke-width:0.001;stroke-miterlimit:4;stroke-dasharray:none"
       xml:space="preserve"><tspan
         sodipodi:role="line"
         id="tspan1181"
         x="30.269915"
         y="312.45831">POSITION</tspan></text>
    <text
       xml:space="preserve"
       style="font-style:normal;font-variant:normal;font-weight:normal;font-stretch:normal;font-size:8px;line-height:1.25;font-family:'DejaVu Sans Mono';-inkscape-font-specification:'DejaVu Sans Mono, Normal';font-variant-ligatures:normal;font-variant-caps:normal;font-variant-numeric:normal;font-feature-settings:normal;text-align:center;letter-spacing:0px;word-spacing:0px;writing-mode:lr-tb;text-anchor:middle;fill:#b22222;fill-opacity:1;stroke:#000000;stroke-width:0.001;stroke-miterlimit:4;stroke-dasharray:none"
       x="30.269915"
       y="376.45831"
       id="text1098"><tspan
         sodipodi:role="line"
         id="tspan1102"
         x="30.269915"
         y="376.45831">WIDTH</tspan></text>
    <text
       xml:space="preserve"
       style="font-style:normal;font-variant:normal;font-weight:normal;font-stretch:normal;font-size:8px;line-height:1.25;font-family:'DejaVu Sans Mono';-inkscape-font-specification:'DejaVu Sans Mono, Normal';font-variant-ligatures:normal;font-variant-caps:normal;font-variant-numeric:normal;font-feature-settings:normal;text-align:center;letter-spacing:0px;word-spacing:0px;writing-mode:lr-tb;text-anchor:middle;fill:#dcdcdc;fill-opacity:1;stroke:#000000;stroke-width:0.001;stroke-miterlimit:4;stroke-dasharray:none"
       x="30.057116"
       y="418.45831"
       id="text1116"><tspan
         sodipodi:role="line"
         id="tspan1189"
         x="30.057116"
         y="418.45831">A GATE B</tspan></text>
    <text
       id="text1124"
       y="524.34454"
       x="14.996477"
       style="font-style:normal;font-variant:normal;font-weight:normal;font-stretch:normal;font-size:8px;line-height:1.25;font-family:'DejaVu Sans Mono';-inkscape-font-specification:'DejaVu Sans Mono, Normal';font-variant-ligatures:normal;font-variant-caps:normal;font-variant-numeric:normal;font-feature-settings:normal;text-align:center;letter-spacing:0px;word-spacing:0px;writing-mode:lr-tb;text-anchor:middle;fill:#dcdcdc;fill-opacity:1;stroke:#000000;stroke-width:0.001;stroke-miterlimit:4;stroke-dasharray:none"
       xml:space="preserve"><tspan
         sodipodi:role="line"
         id="tspan1126"
         x="14.996477"
         y="524.34454">XOR</tspan></text>
    <text
       xml:space="preserve"
       style="font-style:normal;font-variant:normal;font-weight:normal;font-stretch:normal;font-size:8px;line-height:1.25;font-family:'DejaVu Sans Mono';-inkscape-font-specification:'DejaVu Sans Mono, Normal';font-variant-ligatures:normal;font-variant-caps:normal;font-variant-numeric:normal;font-feature-settings:normal;text-align:center;letter-spacing:0px;word-spacing:0px;writing-mode:lr-tb;text-anchor:middle;fill:#dcdcdc;fill-opacity:1;stroke:#000000;stroke-width:0.001;stroke-miterlimit:4;stroke-dasharray:none"
       x="14.996477"
       y="482.34454"
       id="text1132"><tspan
         sodipodi:role="line"
         id="tspan1134"
         x="14.996477"
         y="482.34454">AND</tspan></text>
    <text
       xml:space="preserve"
       style="font-style:normal;font-variant:normal;font-weight:normal;font-stretch:normal;font-size:8px;line-height:1.25;font-family:'DejaVu Sans Mono';-inkscape-font-specification:'DejaVu Sans Mono, Normal';font-variant-ligatures:normal;font-variant-caps:normal;font-variant-numeric:normal;font-feature-settings:normal;text-align:center;letter-spacing:0px;word-spacing:0px;writing-mode:lr-tb;text-anchor:middle;fill:#dcdcdc;fill-opacity:1;stroke:#000000;stroke-width:0.001;stroke-miterlimit:4;stroke-dasharray:none"
       x="44.996475"
       y="524.34454"
       id="text1152"><tspan
         sodipodi:role="line"
         id="tspan1163"
         x="44.996475"
         y="524.34454">FLIP</tspan></text>
    <text
       id="text1158"
       y="482.34454"
       x="44.996475"
       style="font-style:normal;font-variant:normal;font-weight:normal;font-stretch:normal;font-size:8px;line-height:1.25;font-family:'DejaVu Sans Mono';-inkscape-font-specification:'DejaVu Sans Mono, Normal';font-variant-ligatures:normal;font-variant-caps:normal;font-variant-numeric:normal;font-feature-settings:normal;text-align:center;letter-spacing:0px;word-spacing:0px;writing-mode:lr-tb;text-anchor:middle;fill:#dcdcdc;fill-opacity:1;stroke:#000000;stroke-width:0.001;stroke-miterlimit:4;stroke-dasharray:none"
       xml:space="preserve"><tspan
         sodipodi:role="line"
         id="tspan1161"
         x="44.996475"
         y="482.34454">OR</tspan></text>
    <path
       sodipodi:type="star"
       style="opacity:1;fill:#000000;fill-opacity:1;stroke:#dcdcdc;stroke-width:0.001;stroke-linecap:butt;stroke-linejoin:miter;stroke-miterlimit:4;stroke-dasharray:none;stroke-opacity:1;paint-order:normal"
       id="path1195"
       sodipodi:sides="3"
       sodipodi:cx="29.092911"
       sodipodi:cy="229.45831"
       sodipodi:r1="3.4639099"
       sodipodi:r2="1.7319549"
       sodipodi:arg1="0"
       sodipodi:arg2="1.0471976"
       inkscape:flatsided="true"
       inkscape:rounded="0"
       inkscape:randomized="0"
       d="m 32.556821,229.45831 -5.195865,2.99984 v -5.99967 z"
       inkscape:transform-center-x="-0.86596624" />
    <path
       inkscape:transform-center-x="-0.86596624"
       d="m 32.556821,291.45831 -5.195865,2.99984 v -5.99967 z"
       inkscape:randomized="0"
       inkscape:rounded="0"
       inkscape:flatsided="true"
       sodipodi:arg2="1.0471976"
       sodipodi:arg1="0"
       sodipodi:r2="1.7319549"
       sodipodi:r1="3.4639099"
       sodipodi:cy="291.45831"
       sodipodi:cx="29.092911"
       sodipodi:sides="3"
       id="path1203"
       style="opacity:1;fill:#000000;fill-opacity:1;stroke:#dcdcdc;stroke-width:0.001;stroke-linecap:butt;stroke-linejoin:miter;stroke-miterlimit:4;stroke-dasharray:none;stroke-opacity:1;paint-order:normal"
       sodipodi:type="star" />
    <path
       sodipodi:type="star"
       style="opacity:1;fill:#000000;fill-opacity:1;stroke:#dcdcdc;stroke-width:0.001;stroke-linecap:butt;stroke-linejoin:miter;stroke-miterlimit:4;stroke-dasharray:none;stroke-opacity:1;paint-order:normal"
       id="path1205"
       sodipodi:sides="3"
       sodipodi:cx="29.092911"
       sodipodi:cy="355.45831"
       sodipodi:r1="3.4639099"
       sodipodi:r2="1.7319549"
       sodipodi:arg1="0"
       sodipodi:arg2="1.0471976"
       inkscape:flatsided="true"
       inkscape:rounded="0"
       inkscape:randomized="0"
       d="m 32.556821,355.45831 -5.195865,2.99984 v -5.99967 z"
       inkscape:transform-center-x="-0.86596624" />
    <g
       id="g1227"
       style="display:none">
      <rect
         ry="11"
         rx="11"
         y="218.45831"
         x="4"
         height="22"
         width="22"
         id="rect1052"
         style="opacity:1;fill:#dcdcdc;fill-opacity:1;stroke:none;stroke-width:0.001;stroke-linecap:butt;stroke-linejoin:miter;stroke-miterlimit:4;stroke-dasharray:none;stroke-opacity:1;paint-order:normal" />
      <rect
         style="opacity:1;fill:#dcdcdc;fill-opacity:1;stroke:none;stroke-width:0.001;stroke-linecap:butt;stroke-linejoin:miter;stroke-miterlimit:4;stroke-dasharray:none;stroke-opacity:1;paint-order:normal"
         id="rect1076"
         width="22"
         height="22"
         x="4"
         y="280.45831"
         rx="11"
         ry="11" />
      <rect
         ry="11"
         rx="11"
         y="256.45831"
         x="4"
         height="22"
         width="22"
         id="rect1088"
         style="opacity:1;fill:#b22222;fill-opacity:1;stroke:none;stroke-width:0.001;stroke-linecap:butt;stroke-linejoin:miter;stroke-miterlimit:4;stroke-dasharray:none;stroke-opacity:1;paint-order:normal" />
      <rect
         ry="11"
         rx="11"
         y="344.45831"
         x="4"
         height="22"
         width="22"
         id="rect1094"
         style="opacity:1;fill:#dcdcdc;fill-opacity:1;stroke:none;stroke-width:0.001;stroke-linecap:butt;stroke-linejoin:miter;stroke-miterlimit:4;stroke-dasharray:none;stroke-opacity:1;paint-order:normal" />
      <rect
         style="opacity:1;fill:#b22222;fill-opacity:1;stroke:none;stroke-width:0.001;stroke-linecap:butt;stroke-linejoin:miter;stroke-miterlimit:4;stroke-dasharray:none;stroke-opacity:1;paint-order:normal"
         id="rect1100"
         width="22"
         height="22"
         x="4"
         y="320.45831"
         rx="11"
         ry="11" />
      <rect
         style="opacity:1;fill:#dcdcdc;fill-opacity:1;stroke:none;stroke-width:0.001;stroke-linecap:butt;stroke-linejoin:miter;stroke-miterlimit:4;stroke-dasharray:none;stroke-opacity:1;paint-order:normal"
         id="rect1104"
         width="22"
         height="22"
         x="4"
         y="420.45831"
         rx="11"
         ry="11" />
      <rect
         ry="11"
         rx="11"
         y="444.45831"
         x="4"
         height="22"
         width="22"
         id="rect1110"
         style="opacity:1;fill:#dcdcdc;fill-opacity:1;stroke:none;stroke-width:0.001;stroke-linecap:butt;stroke-linejoin:miter;stroke-miterlimit:4;stroke-dasharray:none;stroke-opacity:1;paint-order:normal" />
      <rect
         ry="11"
         rx="11"
         y="532.45831"
         x="4"
         height="22"
         width="22"
         id="rect1120"
         style="opacity:1;fill:#dcdcdc;fill-opacity:1;stroke:none;stroke-width:0.001;stroke-linecap:butt;stroke-linejoin:miter;stroke-miterlimit:4;stroke-dasharray:none;stroke-opacity:1;paint-order:normal" />
      <rect
         style="opacity:1;fill:#dcdcdc;fill-opacity:1;stroke:none;stroke-width:0.001;stroke-linecap:butt;stroke-linejoin:miter;stroke-miterlimit:4;stroke-dasharray:none;stroke-opacity:1;paint-order:normal"
         id="rect1128"
         width="22"
         height="22"
         x="4"
         y="488.45831"
         rx="11"
         ry="11" />
      <rect
         ry="11"
         rx="11"
         y="420.45831"
         x="34"
         height="22"
         width="22"
         id="rect1136"
         style="opacity:1;fill:#dcdcdc;fill-opacity:1;stroke:none;stroke-width:0.001;stroke-linecap:butt;stroke-linejoin:miter;stroke-miterlimit:4;stroke-dasharray:none;stroke-opacity:1;paint-order:normal" />
      <rect
         style="opacity:1;fill:#dcdcdc;fill-opacity:1;stroke:none;stroke-width:0.001;stroke-linecap:butt;stroke-linejoin:miter;stroke-miterlimit:4;stroke-dasharray:none;stroke-opacity:1;paint-order:normal"
         id="rect1142"
         width="22"
         height="22"
         x="34"
         y="444.45831"
         rx="11"
         ry="11" />
      <rect
         style="opacity:1;fill:#dcdcdc;fill-opacity:1;stroke:none;stroke-width:0.001;stroke-linecap:butt;stroke-linejoin:miter;stroke-miterlimit:4;stroke-dasharray:none;stroke-opacity:1;paint-order:normal"
         id="rect1148"
         width="22"
         height="22"
         x="34"
         y="532.45831"
         rx="11"
         ry="11" />
      <rect
         ry="11"
         rx="11"
         y="488.45831"
         x="34"
         height="22"
         width="22"
         id="rect1154"
         style="opacity:1;fill:#dcdcdc;fill-opacity:1;stroke:none;stroke-width:0.001;stroke-linecap:butt;stroke-linejoin:miter;stroke-miterlimit:4;stroke-dasharray:none;stroke-opacity:1;paint-order:normal" />
      <rect
         style="opacity:1;fill:#dcdcdc;fill-opacity:1;stroke:none;stroke-width:0.001;stroke-linecap:butt;stroke-linejoin:miter;stroke-miterlimit:4;stroke-dasharray:none;stroke-opacity:1;paint-order:normal"
         id="rect1167"
         width="22"
         height="22"
         x="34"
         y="218.45831"
         rx="11"
         ry="11" />
      <rect
         ry="11"
         rx="11"
         y="280.45831"
         x="34"
         height="22"
         width="22"
         id="rect1173"
         style="opacity:1;fill:#dcdcdc;fill-opacity:1;stroke:none;stroke-width:0.001;stroke-linecap:butt;stroke-linejoin:miter;stroke-miterlimit:4;stroke-dasharray:none;stroke-opacity:1;paint-order:normal" />
      <rect
         style="opacity:1;fill:#b22222;fill-opacity:1;stroke:none;stroke-width:0.001;stroke-linecap:butt;stroke-linejoin:miter;stroke-miterlimit:4;stroke-dasharray:none;stroke-opacity:1;paint-order:normal"
         id="rect1175"
         width="22"
         height="22"
         x="34"
         y="256.45831"
         rx="11"
         ry="11" />
      <rect
         style="opacity:1;fill:#dcdcdc;fill-opacity:1;stroke:none;stroke-width:0.001;stroke-linecap:butt;stroke-linejoin:miter;stroke-miterlimit:4;stroke-dasharray:none;stroke-opacity:1;paint-order:normal"
         id="rect1177"
         width="22"
         height="22"
         x="34"
         y="344.45831"
         rx="11"
         ry="11" />
      <rect
         ry="11"
         rx="11"
         y="320.45831"
         x="34"
         height="22"
         width="22"
         id="rect1179"
         style="opacity:1;fill:#b22222;fill-opacity:1;stroke:none;stroke-width:0.001;stroke-linecap:butt;stroke-linejoin:miter;stroke-miterlimit:4;stroke-dasharray:none;stroke-opacity:1;paint-order:normal" />
      <rect
         style="opacity:1;fill:#000000;fill-opacity:1;stroke:none;stroke-width:0.001;stroke-linecap:butt;stroke-linejoin:miter;stroke-miterlimit:4;stroke-dasharray:none;stroke-opacity:1;paint-order:normal"
         id="rect1185"
         width="22"
         height="22"
         x="4"
         y="382.45831"
         rx="11"
         ry="11" />
      <rect
         ry="11"
         rx="11"
         y="382.45831"
         x="34"
         height="22"
         width="22"
         id="rect1187"
         style="opacity:1;fill:#000000;fill-opacity:1;stroke:none;stroke-width:0.001;stroke-linecap:butt;stroke-linejoin:miter;stroke-miterlimit:4;stroke-dasharray:none;stroke-opacity:1;paint-order:normal" />
    </g>
    <g
       aria-label="A INPUT B"
       style="font-style:normal;font-variant:normal;font-weight:normal;font-stretch:normal;font-size:8px;line-height:1.25;font-family:'DejaVu Sans Mono';-inkscape-font-specification:'DejaVu Sans Mono, Normal';font-variant-ligatures:normal;font-variant-caps:normal;font-variant-numeric:normal;font-feature-settings:normal;text-align:center;letter-spacing:0px;word-spacing:0px;writing-mode:lr-tb;text-anchor:middle;fill:#000000;fill-opacity:1;stroke:#dcdcdc;stroke-width:0.001;stroke-miterlimit:4;stroke-dasharray:none"
       id="text920">
      <path
         d="m 10.745487,245.32159 -0.832031,2.98438 h 1.664062 z m -0.476562,-0.69531 h 0.957031 l 1.785156,5.83203 h -0.816406 l -0.429688,-1.51953 H 9.7220497 l -0.421875,1.51953 H 8.4837685 Z"
         id="path950"
         inkscape:connector-curvature="0" />
      <path
         d="m 18.749393,244.62628 h 3.238282 v 0.66406 h -1.222657 v 4.50391 h 1.222657 v 0.66406 h -3.238282 v -0.66406 h 1.222657 v -4.50391 h -1.222657 z"
         id="path952"
         inkscape:connector-curvature="0" />
      <path
         d="m 23.319706,244.62628 h 1 l 1.96875,4.80078 v -4.80078 h 0.761719 v 5.83203 h -1 l -1.96875,-4.80078 v 4.80078 h -0.761719 z"
         id="path954"
         inkscape:connector-curvature="0" />
      <path
         d="m 29.147831,245.27472 v 2.19141 h 0.914062 q 0.546875,0 0.851563,-0.28907 0.308594,-0.28906 0.308594,-0.80859 0,-0.51953 -0.304688,-0.80469 -0.304687,-0.28906 -0.855469,-0.28906 z m -0.789063,-0.64844 h 1.703125 q 0.976563,0 1.480469,0.44531 0.503906,0.44141 0.503906,1.29688 0,0.86328 -0.503906,1.30469 -0.5,0.4414 -1.480469,0.4414 h -0.914062 v 2.34375 h -0.789063 z"
         id="path956"
         inkscape:connector-curvature="0" />
      <path
         d="m 32.975956,248.22003 v -3.59375 h 0.792969 v 3.95313 q 0,0.42578 0.02344,0.60937 0.02344,0.17969 0.08203,0.27735 0.125,0.23046 0.359375,0.34765 0.238282,0.11719 0.574219,0.11719 0.339844,0 0.574219,-0.11719 0.234375,-0.11719 0.363281,-0.34765 0.05859,-0.0977 0.08203,-0.27735 0.02344,-0.17969 0.02344,-0.60156 v -3.96094 h 0.789062 v 3.59375 q 0,0.89453 -0.113281,1.27344 -0.109375,0.375 -0.382812,0.62109 -0.257813,0.23047 -0.589844,0.34375 -0.332031,0.11328 -0.746094,0.11328 -0.410156,0 -0.742187,-0.11328 -0.332032,-0.11328 -0.59375,-0.34375 -0.269532,-0.24218 -0.382813,-0.625 -0.113281,-0.38672 -0.113281,-1.26953 z"
         id="path958"
         inkscape:connector-curvature="0" />
      <path
         d="m 37.397831,244.62628 h 4.449219 v 0.66406 h -1.824219 v 5.16797 h -0.792969 v -5.16797 h -1.832031 z"
         id="path960"
         inkscape:connector-curvature="0" />
      <path
         d="m 48.280643,247.67316 v 2.13672 h 0.933594 q 0.6875,0 0.980469,-0.23829 0.292969,-0.24218 0.292969,-0.79296 0,-0.57032 -0.308594,-0.83594 -0.308594,-0.26953 -0.964844,-0.26953 z m 0,-2.39844 v 1.75781 h 0.917969 q 0.570313,0 0.824219,-0.21875 0.257812,-0.21875 0.257812,-0.70703 0,-0.44141 -0.253906,-0.63672 -0.25,-0.19531 -0.828125,-0.19531 z m -0.792968,-0.64844 h 1.726562 q 0.894531,0 1.378906,0.38672 0.484375,0.38672 0.484375,1.09375 0,0.53516 -0.257812,0.84375 -0.253906,0.30859 -0.765625,0.38672 0.574219,0.0859 0.898437,0.49219 0.328125,0.40234 0.328125,1.02734 0,0.79297 -0.519531,1.19922 -0.519531,0.40234 -1.546875,0.40234 h -1.726562 z"
         id="path962"
         inkscape:connector-curvature="0" />
    </g>
    <g
       aria-label="POSITION"
       style="font-style:normal;font-variant:normal;font-weight:normal;font-stretch:normal;font-size:8px;line-height:1.25;font-family:'DejaVu Sans Mono';-inkscape-font-specification:'DejaVu Sans Mono, Normal';font-variant-ligatures:normal;font-variant-caps:normal;font-variant-numeric:normal;font-feature-settings:normal;text-align:center;letter-spacing:0px;word-spacing:0px;writing-mode:lr-tb;text-anchor:middle;fill:#b22222;fill-opacity:1;stroke:#000000;stroke-width:0.001;stroke-miterlimit:4;stroke-dasharray:none"
       id="text924">
      <path
         d="m 12.578508,307.27472 v 2.19141 h 0.914063 q 0.546875,0 0.851562,-0.28907 0.308594,-0.28906 0.308594,-0.80859 0,-0.51953 -0.304687,-0.80469 -0.304688,-0.28906 -0.855469,-0.28906 z m -0.789062,-0.64844 h 1.703125 q 0.976562,0 1.480469,0.44531 0.503906,0.44141 0.503906,1.29688 0,0.86328 -0.503906,1.30469 -0.5,0.4414 -1.480469,0.4414 h -0.914063 v 2.34375 h -0.789062 z"
         id="path965"
         inkscape:connector-curvature="0" />
      <path
         d="m 19.367571,309.54816 q 0,-1.28516 -0.265625,-1.83594 -0.261719,-0.55078 -0.863281,-0.55078 -0.597657,0 -0.863282,0.55078 -0.261718,0.55078 -0.261718,1.83594 0,1.28125 0.261718,1.83203 0.265625,0.55078 0.863282,0.55078 0.601562,0 0.863281,-0.54688 0.265625,-0.55078 0.265625,-1.83593 z m 0.824219,0 q 0,1.52343 -0.484375,2.27343 -0.480469,0.75 -1.46875,0.75 -0.988282,0 -1.46875,-0.74609 -0.480469,-0.74609 -0.480469,-2.27734 0,-1.52735 0.480469,-2.27735 0.484375,-0.75 1.46875,-0.75 0.988281,0 1.46875,0.75 0.484375,0.75 0.484375,2.27735 z"
         id="path967"
         inkscape:connector-curvature="0" />
      <path
         d="m 24.59804,306.8255 v 0.80078 q -0.359375,-0.23047 -0.722657,-0.34765 -0.359375,-0.11719 -0.726562,-0.11719 -0.558594,0 -0.882813,0.26172 -0.324218,0.25781 -0.324218,0.69922 0,0.38671 0.210937,0.58984 0.214844,0.20312 0.796875,0.33984 l 0.414063,0.0937 q 0.820312,0.19141 1.195312,0.60157 0.375,0.41015 0.375,1.11718 0,0.83203 -0.515625,1.26953 -0.515625,0.4375 -1.5,0.4375 -0.410156,0 -0.824219,-0.0898 -0.414062,-0.0859 -0.832031,-0.26172 v -0.83984 q 0.449219,0.28515 0.847656,0.41797 0.402344,0.13281 0.808594,0.13281 0.597656,0 0.929688,-0.26563 0.332031,-0.26953 0.332031,-0.75 0,-0.4375 -0.230469,-0.66796 -0.226562,-0.23047 -0.792969,-0.35547 l -0.421875,-0.0977 q -0.8125,-0.18359 -1.179687,-0.55469 -0.367188,-0.37109 -0.367188,-0.99609 0,-0.78125 0.523438,-1.25 0.527344,-0.47266 1.398437,-0.47266 0.335938,0 0.707032,0.0781 0.371093,0.0742 0.78125,0.22656 z"
         id="path969"
         inkscape:connector-curvature="0" />
      <path
         d="m 26.242571,306.62628 h 3.238281 v 0.66406 h -1.222656 v 4.50391 h 1.222656 v 0.66406 h -3.238281 v -0.66406 h 1.222656 v -4.50391 h -1.222656 z"
         id="path971"
         inkscape:connector-curvature="0" />
      <path
         d="m 30.453508,306.62628 h 4.449219 v 0.66406 h -1.824219 v 5.16797 H 32.28554 v -5.16797 h -1.832032 z"
         id="path973"
         inkscape:connector-curvature="0" />
      <path
         d="m 35.867571,306.62628 h 3.238281 v 0.66406 h -1.222656 v 4.50391 h 1.222656 v 0.66406 h -3.238281 v -0.66406 h 1.222656 v -4.50391 h -1.222656 z"
         id="path975"
         inkscape:connector-curvature="0" />
      <path
         d="m 43.430071,309.54816 q 0,-1.28516 -0.265625,-1.83594 -0.261719,-0.55078 -0.863281,-0.55078 -0.597657,0 -0.863282,0.55078 -0.261718,0.55078 -0.261718,1.83594 0,1.28125 0.261718,1.83203 0.265625,0.55078 0.863282,0.55078 0.601562,0 0.863281,-0.54688 0.265625,-0.55078 0.265625,-1.83593 z m 0.824219,0 q 0,1.52343 -0.484375,2.27343 -0.480469,0.75 -1.46875,0.75 -0.988282,0 -1.46875,-0.74609 -0.480469,-0.74609 -0.480469,-2.27734 0,-1.52735 0.480469,-2.27735 0.484375,-0.75 1.46875,-0.75 0.988281,0 1.46875,0.75 0.484375,0.75 0.484375,2.27735 z"
         id="path977"
         inkscape:connector-curvature="0" />
      <path
         d="m 45.250383,306.62628 h 1 l 1.96875,4.80078 v -4.80078 h 0.761719 v 5.83203 h -1 l -1.96875,-4.80078 v 4.80078 h -0.761719 z"
         id="path979"
         inkscape:connector-curvature="0" />
    </g>
    <g
       aria-label="WIDTH"
       style="font-style:normal;font-variant:normal;font-weight:normal;font-stretch:normal;font-size:8px;line-height:1.25;font-family:'DejaVu Sans Mono';-inkscape-font-specification:'DejaVu Sans Mono, Normal';font-variant-ligatures:normal;font-variant-caps:normal;font-variant-numeric:normal;font-feature-settings:normal;text-align:center;letter-spacing:0px;word-spacing:0px;writing-mode:lr-tb;text-anchor:middle;fill:#b22222;fill-opacity:1;stroke:#000000;stroke-width:0.001;stroke-miterlimit:4;stroke-dasharray:none"
       id="text928">
      <path
         d="m 18.238665,370.62628 h 0.769531 l 0.558594,4.73438 0.664062,-3.13282 h 0.824219 l 0.671875,3.14063 0.558594,-4.74219 h 0.769531 l -0.871094,5.83203 h -0.746094 l -0.792968,-3.46484 -0.789063,3.46484 h -0.746094 z"
         id="path982"
         inkscape:connector-curvature="0" />
      <path
         d="m 23.836321,370.62628 h 3.238281 v 0.66406 h -1.222656 v 4.50391 h 1.222656 v 0.66406 h -3.238281 v -0.66406 h 1.222656 v -4.50391 h -1.222656 z"
         id="path984"
         inkscape:connector-curvature="0" />
      <path
         d="m 29.56679,375.80988 q 0.996093,0 1.390625,-0.48829 0.394531,-0.49218 0.394531,-1.77343 0,-1.29297 -0.394531,-1.78125 -0.390625,-0.49219 -1.390625,-0.49219 h -0.375 v 4.53516 z m 0.01563,-5.1836 q 1.335937,0 1.96875,0.71094 0.632812,0.71094 0.632812,2.21094 0,1.49218 -0.632812,2.20312 -0.632813,0.70703 -1.96875,0.70703 h -1.183594 v -5.83203 z"
         id="path986"
         inkscape:connector-curvature="0" />
      <path
         d="m 32.859758,370.62628 h 4.449219 v 0.66406 h -1.824219 v 5.16797 H 34.69179 v -5.16797 h -1.832032 z"
         id="path988"
         inkscape:connector-curvature="0" />
      <path
         d="m 38.023821,370.62628 h 0.792969 v 2.39063 h 2.160156 v -2.39063 h 0.792969 v 5.83203 h -0.792969 v -2.77734 H 38.81679 v 2.77734 h -0.792969 z"
         id="path990"
         inkscape:connector-curvature="0" />
    </g>
    <g
       aria-label="A GATE B"
       style="font-style:normal;font-variant:normal;font-weight:normal;font-stretch:normal;font-size:8px;line-height:1.25;font-family:'DejaVu Sans Mono';-inkscape-font-specification:'DejaVu Sans Mono, Normal';font-variant-ligatures:normal;font-variant-caps:normal;font-variant-numeric:normal;font-feature-settings:normal;text-align:center;letter-spacing:0px;word-spacing:0px;writing-mode:lr-tb;text-anchor:middle;fill:#dcdcdc;fill-opacity:1;stroke:#000000;stroke-width:0.001;stroke-miterlimit:4;stroke-dasharray:none"
       id="text932"
       transform="translate(0,28)">
      <path
         d="m 13.213366,385.32159 -0.832032,2.98438 h 1.664063 z m -0.476563,-0.69531 h 0.957031 l 1.785157,5.83203 h -0.816407 l -0.429687,-1.51953 h -2.042969 l -0.421875,1.51953 h -0.816406 z"
         id="path993"
         inkscape:connector-curvature="0" />
      <path
         d="m 24.744616,389.97784 q -0.316407,0.29297 -0.714844,0.44532 -0.394531,0.14843 -0.855469,0.14843 -1.109375,0 -1.726562,-0.79296 -0.617188,-0.79688 -0.617188,-2.23047 0,-1.42969 0.625,-2.22657 0.625,-0.80078 1.738281,-0.80078 0.367188,0 0.703125,0.10547 0.335938,0.10156 0.648438,0.3125 v 0.8086 q -0.316406,-0.30079 -0.648438,-0.44141 -0.332031,-0.14453 -0.703125,-0.14453 -0.769531,0 -1.15625,0.59765 -0.382812,0.59375 -0.382812,1.78907 0,1.21484 0.371094,1.80078 0.375,0.58203 1.148437,0.58203 0.261719,0 0.457031,-0.0586 0.199219,-0.0625 0.359375,-0.19141 v -1.56641 h -0.847656 v -0.64843 h 1.601563 z"
         id="path995"
         inkscape:connector-curvature="0" />
      <path
         d="m 27.650866,385.32159 -0.832032,2.98438 h 1.664063 z m -0.476563,-0.69531 h 0.957031 l 1.785157,5.83203 h -0.816407 l -0.429687,-1.51953 h -2.042969 l -0.421875,1.51953 h -0.816406 z"
         id="path997"
         inkscape:connector-curvature="0" />
      <path
         d="m 30.240709,384.62628 h 4.449219 v 0.66406 h -1.824219 v 5.16797 h -0.792968 v -5.16797 h -1.832032 z"
         id="path999"
         inkscape:connector-curvature="0" />
      <path
         d="m 35.639147,384.62628 h 3.460937 v 0.66406 h -2.671875 v 1.72657 h 2.554688 v 0.66406 h -2.554688 v 2.11328 h 2.746094 v 0.66406 h -3.535156 z"
         id="path1001"
         inkscape:connector-curvature="0" />
      <path
         d="m 45.936022,387.67316 v 2.13672 h 0.933594 q 0.6875,0 0.980468,-0.23829 0.292969,-0.24218 0.292969,-0.79296 0,-0.57032 -0.308594,-0.83594 -0.308593,-0.26953 -0.964843,-0.26953 z m 0,-2.39844 v 1.75781 h 0.917969 q 0.570312,0 0.824218,-0.21875 0.257813,-0.21875 0.257813,-0.70703 0,-0.44141 -0.253906,-0.63672 -0.25,-0.19531 -0.828125,-0.19531 z m -0.792969,-0.64844 h 1.726563 q 0.894531,0 1.378906,0.38672 0.484375,0.38672 0.484375,1.09375 0,0.53516 -0.257813,0.84375 -0.253906,0.30859 -0.765625,0.38672 0.574219,0.0859 0.898438,0.49219 0.328125,0.40234 0.328125,1.02734 0,0.79297 -0.519531,1.19922 -0.519532,0.40234 -1.546875,0.40234 h -1.726563 z"
         id="path1003"
         inkscape:connector-curvature="0" />
    </g>
    <g
       aria-label="XOR"
       style="font-style:normal;font-variant:normal;font-weight:normal;font-stretch:normal;font-size:8px;line-height:1.25;font-family:'DejaVu Sans Mono';-inkscape-font-specification:'DejaVu Sans Mono, Normal';font-variant-ligatures:normal;font-variant-caps:normal;font-variant-numeric:normal;font-feature-settings:normal;text-align:center;letter-spacing:0px;word-spacing:0px;writing-mode:lr-tb;text-anchor:middle;fill:#dcdcdc;fill-opacity:1;stroke:#000000;stroke-width:0.001;stroke-miterlimit:4;stroke-dasharray:none"
       id="text936"
       transform="translate(0,-0.11377424)">
      <path
         d="m 8.1136646,518.62628 h 0.8476563 l 1.2812501,2.19922 1.304687,-2.19922 h 0.847657 l -1.746094,2.74219 1.871094,3.08984 h -0.847657 l -1.429687,-2.51172 -1.5429689,2.51172 H 7.8480396 l 1.953125,-3.08984 z"
         id="path1006"
         inkscape:connector-curvature="0" />
      <path
         d="m 16.125383,521.54816 q 0,-1.28516 -0.265625,-1.83594 -0.261718,-0.55078 -0.863281,-0.55078 -0.597656,0 -0.863281,0.55078 -0.261719,0.55078 -0.261719,1.83594 0,1.28125 0.261719,1.83203 0.265625,0.55078 0.863281,0.55078 0.601563,0 0.863281,-0.54688 0.265625,-0.55078 0.265625,-1.83593 z m 0.824219,0 q 0,1.52343 -0.484375,2.27343 -0.480469,0.75 -1.46875,0.75 -0.988281,0 -1.46875,-0.74609 -0.480469,-0.74609 -0.480469,-2.27734 0,-1.52735 0.480469,-2.27735 0.484375,-0.75 1.46875,-0.75 0.988281,0 1.46875,0.75 0.484375,0.75 0.484375,2.27735 z"
         id="path1008"
         inkscape:connector-curvature="0" />
      <path
         d="m 20.371477,521.70441 q 0.304688,0.0781 0.519531,0.29687 0.214844,0.21485 0.535157,0.86328 l 0.792968,1.59375 h -0.847656 l -0.695312,-1.47265 q -0.300782,-0.62891 -0.542969,-0.8086 -0.238281,-0.18359 -0.625,-0.18359 H 18.75429 v 2.46484 h -0.792969 v -5.83203 h 1.625 q 0.960937,0 1.472656,0.4336 0.511719,0.43359 0.511719,1.2539 0,0.57813 -0.316406,0.94531 -0.3125,0.36329 -0.882813,0.44532 z m -1.617187,-2.42969 v 2.07031 h 0.863281 q 0.566406,0 0.84375,-0.2539 0.277344,-0.25391 0.277344,-0.77735 0,-0.5039 -0.296875,-0.76953 -0.292969,-0.26953 -0.855469,-0.26953 z"
         id="path1010"
         inkscape:connector-curvature="0" />
    </g>
    <g
       aria-label="AND"
       style="font-style:normal;font-variant:normal;font-weight:normal;font-stretch:normal;font-size:8px;line-height:1.25;font-family:'DejaVu Sans Mono';-inkscape-font-specification:'DejaVu Sans Mono, Normal';font-variant-ligatures:normal;font-variant-caps:normal;font-variant-numeric:normal;font-feature-settings:normal;text-align:center;letter-spacing:0px;word-spacing:0px;writing-mode:lr-tb;text-anchor:middle;fill:#dcdcdc;fill-opacity:1;stroke:#000000;stroke-width:0.001;stroke-miterlimit:4;stroke-dasharray:none"
       id="text940"
       transform="translate(0,1.8862258)">
      <path
         d="m 10.183977,475.32159 -0.8320311,2.98438 h 1.6640621 z m -0.4765624,-0.69531 h 0.9570314 l 1.785156,5.83203 h -0.816406 l -0.429688,-1.51953 H 9.1605396 l -0.421875,1.51953 H 7.9222584 Z"
         id="path1013"
         inkscape:connector-curvature="0" />
      <path
         d="m 13.133196,474.62628 h 1 l 1.96875,4.80078 v -4.80078 h 0.761719 v 5.83203 h -1 l -1.96875,-4.80078 v 4.80078 h -0.761719 z"
         id="path1015"
         inkscape:connector-curvature="0" />
      <path
         d="m 19.105852,479.80988 q 0.996094,0 1.390625,-0.48829 0.394531,-0.49218 0.394531,-1.77343 0,-1.29297 -0.394531,-1.78125 -0.390625,-0.49219 -1.390625,-0.49219 h -0.375 v 4.53516 z m 0.01563,-5.1836 q 1.335938,0 1.96875,0.71094 0.632813,0.71094 0.632813,2.21094 0,1.49218 -0.632813,2.20312 -0.632812,0.70703 -1.96875,0.70703 h -1.183594 v -5.83203 z"
         id="path1017"
         inkscape:connector-curvature="0" />
    </g>
    <g
       aria-label="FLIP"
       style="font-style:normal;font-variant:normal;font-weight:normal;font-stretch:normal;font-size:8px;line-height:1.25;font-family:'DejaVu Sans Mono';-inkscape-font-specification:'DejaVu Sans Mono, Normal';font-variant-ligatures:normal;font-variant-caps:normal;font-variant-numeric:normal;font-feature-settings:normal;text-align:center;letter-spacing:0px;word-spacing:0px;writing-mode:lr-tb;text-anchor:middle;fill:#dcdcdc;fill-opacity:1;stroke:#000000;stroke-width:0.001;stroke-miterlimit:4;stroke-dasharray:none"
       id="text944"
       transform="translate(0,-0.11377424)">
      <path
         d="m 36.281631,518.62628 h 3.433594 v 0.66406 H 37.0746 v 1.71875 h 2.394531 v 0.66407 H 37.0746 v 2.78515 h -0.792969 z"
         id="path1020"
         inkscape:connector-curvature="0" />
      <path
         d="m 41.023819,518.62628 h 0.792969 v 5.16797 h 2.816406 v 0.66406 h -3.609375 z"
         id="path1022"
         inkscape:connector-curvature="0" />
      <path
         d="m 45.781631,518.62628 h 3.238282 v 0.66406 h -1.222657 v 4.50391 h 1.222657 v 0.66406 h -3.238282 v -0.66406 h 1.222657 v -4.50391 h -1.222657 z"
         id="path1024"
         inkscape:connector-curvature="0" />
      <path
         d="m 51.367569,519.27472 v 2.19141 h 0.914062 q 0.546875,0 0.851563,-0.28907 0.308594,-0.28906 0.308594,-0.80859 0,-0.51953 -0.304688,-0.80469 -0.304687,-0.28906 -0.855469,-0.28906 z m -0.789063,-0.64844 h 1.703125 q 0.976563,0 1.480469,0.44531 0.503906,0.44141 0.503906,1.29688 0,0.86328 -0.503906,1.30469 -0.5,0.4414 -1.480469,0.4414 h -0.914062 v 2.34375 h -0.789063 z"
         id="path1026"
         inkscape:connector-curvature="0" />
    </g>
    <g
       aria-label="OR"
       style="font-style:normal;font-variant:normal;font-weight:normal;font-stretch:normal;font-size:8px;line-height:1.25;font-family:'DejaVu Sans Mono';-inkscape-font-specification:'DejaVu Sans Mono, Normal';font-variant-ligatures:normal;font-variant-caps:normal;font-variant-numeric:normal;font-feature-settings:normal;text-align:center;letter-spacing:0px;word-spacing:0px;writing-mode:lr-tb;text-anchor:middle;fill:#dcdcdc;fill-opacity:1;stroke:#000000;stroke-width:0.001;stroke-miterlimit:4;stroke-dasharray:none"
       id="text948"
       transform="translate(0,1.8862258)">
      <path
         d="m 43.719131,477.54816 q 0,-1.28516 -0.265625,-1.83594 -0.261718,-0.55078 -0.863281,-0.55078 -0.597656,0 -0.863281,0.55078 -0.261719,0.55078 -0.261719,1.83594 0,1.28125 0.261719,1.83203 0.265625,0.55078 0.863281,0.55078 0.601563,0 0.863281,-0.54688 0.265625,-0.55078 0.265625,-1.83593 z m 0.824219,0 q 0,1.52343 -0.484375,2.27343 -0.480469,0.75 -1.46875,0.75 -0.988281,0 -1.46875,-0.74609 -0.480469,-0.74609 -0.480469,-2.27734 0,-1.52735 0.480469,-2.27735 0.484375,-0.75 1.46875,-0.75 0.988281,0 1.46875,0.75 0.484375,0.75 0.484375,2.27735 z"
         id="path1029"
         inkscape:connector-curvature="0" />
      <path
         d="m 47.965225,477.70441 q 0.304688,0.0781 0.519531,0.29687 0.214844,0.21485 0.535157,0.86328 l 0.792968,1.59375 h -0.847656 l -0.695312,-1.47265 q -0.300782,-0.62891 -0.542969,-0.8086 -0.238281,-0.18359 -0.625,-0.18359 h -0.753906 v 2.46484 h -0.792969 v -5.83203 h 1.625 q 0.960937,0 1.472656,0.4336 0.511719,0.43359 0.511719,1.2539 0,0.57813 -0.316406,0.94531 -0.3125,0.36329 -0.882813,0.44532 z m -1.617187,-2.42969 v 2.07031 h 0.863281 q 0.566406,0 0.84375,-0.2539 0.277344,-0.25391 0.277344,-0.77735 0,-0.5039 -0.296875,-0.76953 -0.292969,-0.26953 -0.855469,-0.26953 z"
         id="path1031"
         inkscape:connector-curvature="0" />
    </g>
  </g>
</svg>
