<?xml version="1.0" encoding="UTF-8" standalone="no"?>
<!-- Created with Inkscape (http://www.inkscape.org/) -->

<svg
   xmlns:dc="http://purl.org/dc/elements/1.1/"
   xmlns:cc="http://creativecommons.org/ns#"
   xmlns:rdf="http://www.w3.org/1999/02/22-rdf-syntax-ns#"
   xmlns:svg="http://www.w3.org/2000/svg"
   xmlns="http://www.w3.org/2000/svg"
   xmlns:sodipodi="http://sodipodi.sourceforge.net/DTD/sodipodi-0.dtd"
   xmlns:inkscape="http://www.inkscape.org/namespaces/inkscape"
   width="30"
   height="380"
   viewBox="0 0 7.9375003 100.54167"
   version="1.1"
   id="svg8"
   inkscape:version="0.92.2 (5c3e80d, 2017-08-06)"
   sodipodi:docname="CoSuOf.svg">
  <defs
     id="defs2" />
  <sodipodi:namedview
     id="base"
     pagecolor="#b3b1b0"
     bordercolor="#666666"
     borderopacity="1.0"
     inkscape:pageopacity="0.68235294"
     inkscape:pageshadow="2"
     inkscape:zoom="1.4142136"
     inkscape:cx="208.49543"
     inkscape:cy="214.27884"
     inkscape:document-units="px"
     inkscape:current-layer="g1796"
     showgrid="false"
     units="px"
     inkscape:snap-bbox="true"
     inkscape:snap-page="true"
     inkscape:bbox-nodes="true"
     inkscape:snap-bbox-edge-midpoints="true"
     inkscape:window-width="1730"
     inkscape:window-height="900"
     inkscape:window-x="0"
     inkscape:window-y="0"
     inkscape:window-maximized="0"
     inkscape:showpageshadow="false"
     showborder="true"
     inkscape:pagecheckerboard="true"
     showguides="true"
     inkscape:guide-bbox="true">
    <inkscape:grid
       type="xygrid"
       id="grid853" />
  </sodipodi:namedview>
  <metadata
     id="metadata5">
    <rdf:RDF>
      <cc:Work
         rdf:about="">
        <dc:format>image/svg+xml</dc:format>
        <dc:type
           rdf:resource="http://purl.org/dc/dcmitype/StillImage" />
        <dc:title></dc:title>
      </cc:Work>
    </rdf:RDF>
  </metadata>
  <g
     style="display:inline"
     transform="translate(0,-196.45832)"
     id="g1796"
     inkscape:label="single">
    <path
       inkscape:connector-curvature="0"
       id="path1790"
       transform="matrix(0.26458335,0,0,0.26458335,0,196.45832)"
       d="m 0,365 v 15 h 30 v -15 z m 7.5,4.25 h 15 c 1.8005,0 3.25,1.4495 3.25,3.25 0,1.8005 -1.4495,3.25 -3.25,3.25 h -15 c -1.8005,0 -3.25,-1.4495 -3.25,-3.25 0,-1.8005 1.4495,-3.25 3.25,-3.25 z"
       style="opacity:1;vector-effect:none;fill:#808080;fill-opacity:1;fill-rule:evenodd;stroke:none;stroke-width:0.21073182;stroke-linecap:butt;stroke-linejoin:round;stroke-miterlimit:4;stroke-dasharray:none;stroke-dashoffset:0;stroke-opacity:1;paint-order:normal"
       sodipodi:insensitive="true" />
    <path
       inkscape:connector-curvature="0"
       id="path1792"
       d="m 0,200.42707 h 7.9375004 v 92.60417 H 0 Z"
       style="opacity:1;vector-effect:none;fill:#808080;fill-opacity:1;fill-rule:evenodd;stroke:none;stroke-width:0.2693277;stroke-linecap:butt;stroke-linejoin:round;stroke-miterlimit:4;stroke-dasharray:none;stroke-dashoffset:0;stroke-opacity:1;paint-order:normal"
       sodipodi:insensitive="true" />
    <path
       style="opacity:1;vector-effect:none;fill:#808080;fill-opacity:1;fill-rule:evenodd;stroke:none;stroke-width:0.05575613;stroke-linecap:butt;stroke-linejoin:round;stroke-miterlimit:4;stroke-dasharray:none;stroke-dashoffset:0;stroke-opacity:1;paint-order:normal"
       d="m 0,196.45832 v 3.96875 h 7.9375005 v -3.96875 z m 1.9843751,1.12448 h 3.9687503 c 0.4763823,0 0.8598959,0.38351 0.8598959,0.8599 0,0.47638 -0.3835136,0.85989 -0.8598959,0.85989 H 1.9843751 c -0.4763823,0 -0.8598959,-0.38351 -0.8598959,-0.85989 0,-0.47639 0.3835136,-0.8599 0.8598959,-0.8599 z"
       id="path1794"
       inkscape:connector-curvature="0"
       sodipodi:insensitive="true" />
    <path
       style="opacity:1;vector-effect:none;fill:#696969;fill-opacity:1;fill-rule:evenodd;stroke:none;stroke-width:0.26778427;stroke-linecap:butt;stroke-linejoin:round;stroke-miterlimit:4;stroke-dasharray:none;stroke-dashoffset:0;stroke-opacity:1;paint-order:normal"
       d="m 0,200.95623 h 7.9375003 v 91.54584 H 0 Z"
       id="path1808"
       inkscape:connector-curvature="0"
       sodipodi:insensitive="true" />
    <text
       xml:space="preserve"
       style="font-style:normal;font-variant:normal;font-weight:normal;font-stretch:normal;font-size:2.11666679px;line-height:1.25;font-family:'DejaVu Sans Mono';-inkscape-font-specification:'DejaVu Sans Mono, Normal';font-variant-ligatures:normal;font-variant-caps:normal;font-variant-numeric:normal;font-feature-settings:normal;text-align:center;letter-spacing:0px;word-spacing:0px;writing-mode:lr-tb;text-anchor:middle;fill:#000000;fill-opacity:1;stroke:#dcdcdc;stroke-width:0.001;stroke-miterlimit:4;stroke-dasharray:none;stroke-opacity:1"
       x="3.9911776"
       y="217.625"
       id="text835"><tspan
         sodipodi:role="line"
         id="tspan854"
         x="3.9911776"
         y="217.625">+ IN</tspan></text>
    <text
       id="text839"
       y="235.61667"
       x="3.9911776"
       style="font-style:normal;font-variant:normal;font-weight:normal;font-stretch:normal;font-size:2.11666679px;line-height:1.25;font-family:'DejaVu Sans Mono';-inkscape-font-specification:'DejaVu Sans Mono, Normal';font-variant-ligatures:normal;font-variant-caps:normal;font-variant-numeric:normal;font-feature-settings:normal;text-align:center;letter-spacing:0px;word-spacing:0px;writing-mode:lr-tb;text-anchor:middle;fill:#000000;fill-opacity:1;stroke:#dcdcdc;stroke-width:0.001;stroke-miterlimit:4;stroke-dasharray:none"
       xml:space="preserve"><tspan
         sodipodi:role="line"
         id="tspan856"
         x="3.9911776"
         y="235.61667">- IN</tspan></text>
    <text
       xml:space="preserve"
       style="font-style:normal;font-variant:normal;font-weight:normal;font-stretch:normal;font-size:2.11666679px;line-height:1.25;font-family:'DejaVu Sans Mono';-inkscape-font-specification:'DejaVu Sans Mono, Normal';font-variant-ligatures:normal;font-variant-caps:normal;font-variant-numeric:normal;font-feature-settings:normal;text-align:center;letter-spacing:0px;word-spacing:0px;writing-mode:lr-tb;text-anchor:middle;fill:#b22222;fill-opacity:1;stroke:#000000;stroke-width:0.001;stroke-miterlimit:4;stroke-dasharray:none;stroke-opacity:1"
       x="3.9911776"
       y="249.34502"
       id="text845"><tspan
         sodipodi:role="line"
         id="tspan847"
         x="3.9911776"
         y="249.34502">OFF</tspan></text>
    <text
       id="text851"
       y="259.92834"
       x="3.9911776"
       style="font-style:normal;font-variant:normal;font-weight:normal;font-stretch:normal;font-size:2.11666679px;line-height:1.25;font-family:'DejaVu Sans Mono';-inkscape-font-specification:'DejaVu Sans Mono, Normal';font-variant-ligatures:normal;font-variant-caps:normal;font-variant-numeric:normal;font-feature-settings:normal;text-align:center;letter-spacing:0px;word-spacing:0px;writing-mode:lr-tb;text-anchor:middle;fill:#dcdcdc;fill-opacity:1;stroke:#000000;stroke-width:0.001;stroke-miterlimit:4;stroke-dasharray:none"
       xml:space="preserve"><tspan
         sodipodi:role="line"
         id="tspan853"
         x="3.9911776"
         y="259.92834">SUM</tspan></text>
    <text
       id="text867"
       y="284.27194"
       x="3.9911835"
       style="font-style:normal;font-variant:normal;font-weight:normal;font-stretch:normal;font-size:2.11668134px;line-height:1.25;font-family:'DejaVu Sans Mono';-inkscape-font-specification:'DejaVu Sans Mono, Normal';font-variant-ligatures:normal;font-variant-caps:normal;font-variant-numeric:normal;font-feature-settings:normal;text-align:center;letter-spacing:0px;word-spacing:0px;writing-mode:lr-tb;text-anchor:middle;fill:#dcdcdc;fill-opacity:1;stroke:#000000;stroke-width:0.001;stroke-miterlimit:4;stroke-dasharray:none"
       xml:space="preserve"
       transform="scale(1.0000068,0.99999318)"><tspan
         sodipodi:role="line"
         id="tspan869"
         x="3.9911835"
         y="284.27194"
         style="fill:#dcdcdc;stroke:#000000;stroke-width:0.001;stroke-miterlimit:4;stroke-dasharray:none">GATE</tspan></text>
    <text
       xml:space="preserve"
       style="font-style:normal;font-variant:normal;font-weight:normal;font-stretch:normal;font-size:2.11666679px;line-height:1.25;font-family:'DejaVu Sans Mono';-inkscape-font-specification:'DejaVu Sans Mono, Normal';font-variant-ligatures:normal;font-variant-caps:normal;font-variant-numeric:normal;font-feature-settings:normal;text-align:center;letter-spacing:0px;word-spacing:0px;writing-mode:lr-tb;text-anchor:middle;fill:#b22222;fill-opacity:1;stroke:#000000;stroke-width:0.001;stroke-miterlimit:4;stroke-dasharray:none;stroke-opacity:1"
       x="3.9911776"
       y="273.15753"
       id="text875"><tspan
         sodipodi:role="line"
         id="tspan877"
         x="3.9911776"
         y="273.15753">GAP</tspan></text>
    <g
       aria-label="OFF"
       style="font-style:normal;font-variant:normal;font-weight:normal;font-stretch:normal;font-size:2.11666679px;line-height:1.25;font-family:'DejaVu Sans Mono';-inkscape-font-specification:'DejaVu Sans Mono, Normal';font-variant-ligatures:normal;font-variant-caps:normal;font-variant-numeric:normal;font-feature-settings:normal;text-align:center;letter-spacing:0px;word-spacing:0px;writing-mode:lr-tb;text-anchor:middle;fill:#b22222;fill-opacity:1;stroke:#000000;stroke-width:0.001;stroke-miterlimit:4;stroke-dasharray:none;stroke-opacity:1"
       id="text878">
      <path
         d="m 3.01656,248.57504 q 0,-0.34003 -0.07028,-0.48576 -0.069246,-0.14573 -0.2284098,-0.14573 -0.1581299,0 -0.2284099,0.14573 -0.069246,0.14573 -0.069246,0.48576 0,0.339 0.069246,0.48472 0.07028,0.14573 0.2284099,0.14573 0.1591634,0 0.2284098,-0.14469 0.07028,-0.14573 0.07028,-0.48576 z m 0.2180745,0 q 0,0.40307 -0.1281575,0.60151 -0.127124,0.19844 -0.3886068,0.19844 -0.2614828,0 -0.3886068,-0.19741 -0.127124,-0.1974 -0.127124,-0.60254 0,-0.40411 0.127124,-0.60255 0.1281576,-0.19844 0.3886068,-0.19844 0.2614828,0 0.3886068,0.19844 0.1281575,0.19844 0.1281575,0.60255 z"
         id="path906"
         inkscape:connector-curvature="0" />
      <path
         d="m 3.595336,247.80196 h 0.9084718 v 0.1757 H 3.8051423 v 0.45475 h 0.6335531 v 0.1757 H 3.8051423 v 0.73691 H 3.595336 Z"
         id="path908"
         inkscape:connector-curvature="0" />
      <path
         d="m 4.8686433,247.80196 h 0.9084718 v 0.1757 H 5.0784497 v 0.45475 h 0.6335531 v 0.1757 H 5.0784497 v 0.73691 H 4.8686433 Z"
         id="path910"
         inkscape:connector-curvature="0" />
    </g>
    <g
       aria-label="SUM"
       style="font-style:normal;font-variant:normal;font-weight:normal;font-stretch:normal;font-size:2.11666679px;line-height:1.25;font-family:'DejaVu Sans Mono';-inkscape-font-specification:'DejaVu Sans Mono, Normal';font-variant-ligatures:normal;font-variant-caps:normal;font-variant-numeric:normal;font-feature-settings:normal;text-align:center;letter-spacing:0px;word-spacing:0px;writing-mode:lr-tb;text-anchor:middle;fill:#dcdcdc;fill-opacity:1;stroke:#000000;stroke-width:0.001;stroke-miterlimit:4;stroke-dasharray:none"
       id="text882">
      <path
         d="m 3.1271476,258.438 v 0.21187 q -0.095085,-0.061 -0.1912029,-0.092 -0.095085,-0.031 -0.1922363,-0.031 -0.1477946,0 -0.2335775,0.0693 -0.085783,0.0682 -0.085783,0.185 0,0.10232 0.055811,0.15606 0.056844,0.0537 0.2108398,0.0899 l 0.1095541,0.0248 q 0.217041,0.0506 0.3162598,0.15917 0.099219,0.10852 0.099219,0.29559 0,0.22014 -0.1364258,0.33589 -0.1364258,0.11576 -0.396875,0.11576 -0.1085205,0 -0.2180745,-0.0238 -0.1095541,-0.0227 -0.2201417,-0.0693 v -0.22221 q 0.1188558,0.0755 0.2242758,0.11059 0.1064534,0.0351 0.2139404,0.0351 0.1581299,0 0.2459798,-0.0703 0.08785,-0.0713 0.08785,-0.19844 0,-0.11575 -0.060978,-0.17673 -0.059945,-0.061 -0.2098063,-0.094 l -0.1116211,-0.0258 q -0.214974,-0.0486 -0.3121257,-0.14676 -0.097152,-0.0982 -0.097152,-0.26355 0,-0.20671 0.1384928,-0.33073 0.1395264,-0.12506 0.3700033,-0.12506 0.088883,0 0.1870687,0.0207 0.098185,0.0196 0.2067058,0.06 z"
         id="path913"
         inkscape:connector-curvature="0" />
      <path
         d="m 3.5064526,259.33613 v -0.95084 h 0.2098063 v 1.04593 q 0,0.11265 0.0062,0.16123 0.0062,0.0475 0.021704,0.0734 0.033073,0.061 0.095085,0.092 0.063045,0.031 0.1519287,0.031 0.089917,0 0.1519287,-0.031 0.062012,-0.031 0.096118,-0.092 0.015503,-0.0258 0.021704,-0.0734 0.0062,-0.0475 0.0062,-0.15917 v -1.04799 h 0.2087728 v 0.95084 q 0,0.23668 -0.029972,0.33693 -0.028939,0.0992 -0.1012858,0.16433 -0.068213,0.061 -0.1560628,0.0909 -0.08785,0.03 -0.197404,0.03 -0.1085205,0 -0.1963704,-0.03 -0.08785,-0.03 -0.1570964,-0.0909 -0.071314,-0.0641 -0.1012858,-0.16536 -0.029972,-0.10232 -0.029972,-0.3359 z"
         id="path915"
         inkscape:connector-curvature="0" />
      <path
         d="m 4.7167146,258.38529 h 0.2790528 l 0.2666504,0.78548 0.2687174,-0.78548 h 0.2800863 v 1.54305 H 5.6179517 v -1.36322 L 5.343033,259.37851 H 5.1849031 L 4.908951,258.56512 v 1.36322 H 4.7167146 Z"
         id="path917"
         inkscape:connector-curvature="0" />
    </g>
    <g
       aria-label="GATE"
       transform="scale(1.0000068,0.99999318)"
       style="font-style:normal;font-variant:normal;font-weight:normal;font-stretch:normal;font-size:2.11668134px;line-height:1.25;font-family:'DejaVu Sans Mono';-inkscape-font-specification:'DejaVu Sans Mono, Normal';font-variant-ligatures:normal;font-variant-caps:normal;font-variant-numeric:normal;font-feature-settings:normal;text-align:center;letter-spacing:0px;word-spacing:0px;writing-mode:lr-tb;text-anchor:middle;fill:#dcdcdc;fill-opacity:1;stroke:#000000;stroke-width:0.001;stroke-miterlimit:4;stroke-dasharray:none"
       id="text886">
      <path
         d="m 2.5855748,284.14482 q -0.083716,0.0775 -0.189137,0.11782 -0.1043872,0.0393 -0.2263444,0.0393 -0.2935241,0 -0.4568228,-0.2098 -0.1632987,-0.21084 -0.1632987,-0.59015 0,-0.37828 0.1653658,-0.58912 0.1653657,-0.21187 0.4599234,-0.21187 0.097152,0 0.1860364,0.0279 0.088884,0.0269 0.171567,0.0827 v 0.21394 q -0.083716,-0.0796 -0.171567,-0.11679 -0.087851,-0.0382 -0.1860364,-0.0382 -0.2036066,0 -0.3059266,0.15813 -0.1012865,0.1571 -0.1012865,0.47336 0,0.32143 0.098186,0.47646 0.099219,0.15399 0.3038595,0.15399 0.069247,0 0.1209237,-0.0155 0.05271,-0.0165 0.095085,-0.0506 v -0.41445 H 2.1618251 v -0.17157 h 0.4237497 z"
         style="fill:#dcdcdc;stroke:#000000;stroke-width:0.001;stroke-miterlimit:4;stroke-dasharray:none"
         id="path920"
         inkscape:connector-curvature="0" />
      <path
         d="m 3.3545255,282.91284 -0.2201431,0.78962 h 0.4402862 z m -0.1260914,-0.18397 h 0.2532163 l 0.4723259,1.54307 H 3.7379673 L 3.6242783,283.8699 H 3.0837391 l -0.1116219,0.40204 H 2.7561083 Z"
         style="fill:#dcdcdc;stroke:#000000;stroke-width:0.001;stroke-miterlimit:4;stroke-dasharray:none"
         id="path922"
         inkscape:connector-curvature="0" />
      <path
         d="M 4.0397598,282.72887 H 5.216957 v 0.1757 H 4.7342958 v 1.36737 H 4.5244881 v -1.36737 H 4.0397598 Z"
         style="fill:#dcdcdc;stroke:#000000;stroke-width:0.001;stroke-miterlimit:4;stroke-dasharray:none"
         id="path924"
         inkscape:connector-curvature="0" />
      <path
         d="M 5.4681063,282.72887 H 6.383819 v 0.1757 H 5.6768805 v 0.45683 h 0.6759324 v 0.1757 H 5.6768805 v 0.55914 h 0.7265757 v 0.1757 H 5.4681063 Z"
         style="fill:#dcdcdc;stroke:#000000;stroke-width:0.001;stroke-miterlimit:4;stroke-dasharray:none"
         id="path926"
         inkscape:connector-curvature="0" />
    </g>
    <g
       aria-label="GAP"
       style="font-style:normal;font-variant:normal;font-weight:normal;font-stretch:normal;font-size:2.11666679px;line-height:1.25;font-family:'DejaVu Sans Mono';-inkscape-font-specification:'DejaVu Sans Mono, Normal';font-variant-ligatures:normal;font-variant-caps:normal;font-variant-numeric:normal;font-feature-settings:normal;text-align:center;letter-spacing:0px;word-spacing:0px;writing-mode:lr-tb;text-anchor:middle;fill:#b22222;fill-opacity:1;stroke:#000000;stroke-width:0.001;stroke-miterlimit:4;stroke-dasharray:none;stroke-opacity:1"
       id="text890">
      <path
         d="m 3.2222322,273.03041 q -0.083716,0.0775 -0.1891358,0.11782 -0.1043864,0.0393 -0.2263427,0.0393 -0.2935222,0 -0.4568197,-0.2098 -0.1632976,-0.21084 -0.1632976,-0.59015 0,-0.37827 0.1653646,-0.58911 0.1653646,-0.21187 0.4599203,-0.21187 0.097152,0 0.1860352,0.0279 0.088883,0.0269 0.1715657,0.0827 v 0.21394 q -0.083716,-0.0796 -0.1715657,-0.11679 -0.08785,-0.0382 -0.1860352,-0.0382 -0.2036052,0 -0.3059245,0.15813 -0.1012858,0.15709 -0.1012858,0.47335 0,0.32143 0.098185,0.47646 0.099219,0.154 0.3038575,0.154 0.069246,0 0.1209228,-0.0155 0.05271,-0.0165 0.095085,-0.0506 v -0.41445 H 2.7984854 v -0.17156 h 0.4237468 z"
         id="path929"
         inkscape:connector-curvature="0" />
      <path
         d="m 3.9911775,271.79844 -0.2201416,0.78962 H 4.2113191 Z M 3.865087,271.61447 h 0.2532145 l 0.4723227,1.54306 H 4.3746167 L 4.2609285,272.75549 H 3.720393 l -0.1116211,0.40204 H 3.3927644 Z"
         id="path931"
         inkscape:connector-curvature="0" />
      <path
         d="m 5.0402091,271.78604 v 0.57981 h 0.2418457 q 0.144694,0 0.2253093,-0.0765 0.081649,-0.0765 0.081649,-0.21394 0,-0.13746 -0.080615,-0.21291 -0.080615,-0.0765 -0.2263428,-0.0765 z m -0.2087728,-0.17157 h 0.4506185 q 0.2583822,0 0.3917074,0.11783 0.1333252,0.11678 0.1333252,0.34313 0,0.22841 -0.1333252,0.3452 -0.1322917,0.11678 -0.3917074,0.11678 H 5.0402091 v 0.62012 H 4.8314363 Z"
         id="path933"
         inkscape:connector-curvature="0" />
    </g>
    <g
       aria-label="+ IN"
       style="font-style:normal;font-variant:normal;font-weight:normal;font-stretch:normal;font-size:2.11666679px;line-height:1.25;font-family:'DejaVu Sans Mono';-inkscape-font-specification:'DejaVu Sans Mono, Normal';font-variant-ligatures:normal;font-variant-caps:normal;font-variant-numeric:normal;font-feature-settings:normal;text-align:center;letter-spacing:0px;word-spacing:0px;writing-mode:lr-tb;text-anchor:middle;fill:#000000;fill-opacity:1;stroke:#dcdcdc;stroke-width:0.001;stroke-miterlimit:4;stroke-dasharray:none;stroke-opacity:1"
       id="text860">
      <path
         d="m 2.1680329,216.41474 v 0.45888 h 0.4599203 v 0.1757 H 2.1680329 v 0.45889 H 1.9944001 v -0.45889 H 1.5355133 v -0.1757 h 0.4588868 v -0.45888 z"
         id="path866"
         inkscape:connector-curvature="0" />
      <path
         d="M 4.1989167,216.08194 H 5.055712 v 0.1757 H 4.7322176 v 1.19166 H 5.055712 v 0.1757 H 4.1989167 v -0.1757 h 0.3234945 v -1.19166 H 4.1989167 Z"
         id="path868"
         inkscape:connector-curvature="0" />
      <path
         d="m 5.4081453,216.08194 h 0.2645833 l 0.5208985,1.27021 v -1.27021 H 6.3951652 V 217.625 H 6.1305819 L 5.6096834,216.35479 V 217.625 H 5.4081453 Z"
         id="path870"
         inkscape:connector-curvature="0" />
    </g>
    <g
       aria-label="- IN"
       style="font-style:normal;font-variant:normal;font-weight:normal;font-stretch:normal;font-size:2.11666679px;line-height:1.25;font-family:'DejaVu Sans Mono';-inkscape-font-specification:'DejaVu Sans Mono, Normal';font-variant-ligatures:normal;font-variant-caps:normal;font-variant-numeric:normal;font-feature-settings:normal;text-align:center;letter-spacing:0px;word-spacing:0px;writing-mode:lr-tb;text-anchor:middle;fill:#000000;fill-opacity:1;stroke:#dcdcdc;stroke-width:0.001;stroke-miterlimit:4;stroke-dasharray:none"
       id="text864">
      <path
         d="m 1.812499,234.95211 h 0.5384685 v 0.1695 H 1.812499 Z"
         id="path873"
         inkscape:connector-curvature="0" />
      <path
         d="M 4.1989167,234.07361 H 5.055712 v 0.1757 H 4.7322176 v 1.19166 H 5.055712 v 0.1757 H 4.1989167 v -0.1757 h 0.3234945 v -1.19166 H 4.1989167 Z"
         id="path875"
         inkscape:connector-curvature="0" />
      <path
         d="m 5.4081453,234.07361 h 0.2645833 l 0.5208985,1.27021 v -1.27021 h 0.2015381 v 1.54306 H 6.1305819 l -0.5208985,-1.27021 v 1.27021 H 5.4081453 Z"
         id="path877"
         inkscape:connector-curvature="0" />
    </g>
  </g>
</svg>
