<?xml version="1.0" encoding="UTF-8" standalone="no"?>
<!-- Created with Inkscape (http://www.inkscape.org/) -->

<svg
   xmlns:dc="http://purl.org/dc/elements/1.1/"
   xmlns:cc="http://creativecommons.org/ns#"
   xmlns:rdf="http://www.w3.org/1999/02/22-rdf-syntax-ns#"
   xmlns:svg="http://www.w3.org/2000/svg"
   xmlns="http://www.w3.org/2000/svg"
   xmlns:sodipodi="http://sodipodi.sourceforge.net/DTD/sodipodi-0.dtd"
   xmlns:inkscape="http://www.inkscape.org/namespaces/inkscape"
   width="60"
   height="380"
   viewBox="0 0 15.875001 100.54167"
   version="1.1"
   id="svg8"
   inkscape:version="0.92.2 (5c3e80d, 2017-08-06)"
   sodipodi:docname="Geighths.svg">
  <defs
     id="defs2" />
  <sodipodi:namedview
     id="base"
     pagecolor="#b3b1b0"
     bordercolor="#666666"
     borderopacity="1.0"
     inkscape:pageopacity="0.68235294"
     inkscape:pageshadow="2"
     inkscape:zoom="4"
     inkscape:cx="93.967387"
     inkscape:cy="271.57866"
     inkscape:document-units="px"
     inkscape:current-layer="g1796"
     showgrid="false"
     units="px"
     inkscape:snap-bbox="true"
     inkscape:snap-page="true"
     inkscape:bbox-nodes="true"
     inkscape:snap-bbox-edge-midpoints="true"
     inkscape:window-width="1730"
     inkscape:window-height="900"
     inkscape:window-x="0"
     inkscape:window-y="0"
     inkscape:window-maximized="0"
     inkscape:showpageshadow="false"
     showborder="true"
     inkscape:pagecheckerboard="true"
     showguides="true"
     inkscape:guide-bbox="true">
    <inkscape:grid
       type="xygrid"
       id="grid853" />
    <sodipodi:guide
       position="7.9375001,72.528905"
       orientation="1,0"
       id="guide1016"
       inkscape:locked="false" />
  </sodipodi:namedview>
  <metadata
     id="metadata5">
    <rdf:RDF>
      <cc:Work
         rdf:about="">
        <dc:format>image/svg+xml</dc:format>
        <dc:type
           rdf:resource="http://purl.org/dc/dcmitype/StillImage" />
        <dc:title />
      </cc:Work>
    </rdf:RDF>
  </metadata>
  <g
     style="display:inline"
     transform="translate(0,-196.45832)"
     id="g1796"
     inkscape:label="single">
    <path
       style="opacity:1;vector-effect:none;fill:#808080;fill-opacity:1;fill-rule:evenodd;stroke:none;stroke-width:0.21073182;stroke-linecap:butt;stroke-linejoin:round;stroke-miterlimit:4;stroke-dasharray:none;stroke-dashoffset:0;stroke-opacity:1;paint-order:normal"
       d="m 0,365 v 15 H 30 60 V 365 H 30 Z m 7.5,4.25 h 15 c 1.8005,0 3.25,1.4495 3.25,3.25 0,1.8005 -1.4495,3.25 -3.25,3.25 h -15 c -1.8005,0 -3.25,-1.4495 -3.25,-3.25 0,-1.8005 1.4495,-3.25 3.25,-3.25 z m 30,0 h 15 c 1.800503,0 3.25,1.44951 3.25,3.25 0,1.80049 -1.449497,3.25 -3.25,3.25 h -15 c -1.800498,0 -3.25,-1.44951 -3.25,-3.25 0,-1.80049 1.449502,-3.25 3.25,-3.25 z"
       id="path1790"
       inkscape:connector-curvature="0"
       transform="matrix(0.26458335,0,0,0.26458335,0,196.45832)"
       sodipodi:insensitive="true" />
    <path
       inkscape:connector-curvature="0"
       id="path1792"
       d="m 0,200.42707 h 15.875001 v 92.60417 H 0 Z"
       style="opacity:1;vector-effect:none;fill:#808080;fill-opacity:1;fill-rule:evenodd;stroke:none;stroke-width:0.38088688;stroke-linecap:butt;stroke-linejoin:round;stroke-miterlimit:4;stroke-dasharray:none;stroke-dashoffset:0;stroke-opacity:1;paint-order:normal"
       sodipodi:insensitive="true" />
    <path
       style="opacity:1;vector-effect:none;fill:#808080;fill-opacity:1;fill-rule:evenodd;stroke:none;stroke-width:0.21073182;stroke-linecap:butt;stroke-linejoin:round;stroke-miterlimit:4;stroke-dasharray:none;stroke-dashoffset:0;stroke-opacity:1;paint-order:normal"
       d="M 0,0 V 15 H 30 60 V 0 H 30 Z m 7.5,4.25 h 15 c 1.8005,0 3.25,1.449471 3.25,3.25 0,1.8004913 -1.4495,3.25 -3.25,3.25 H 7.5 C 5.6995001,10.75 4.25,9.3004913 4.25,7.5 4.25,5.699471 5.6995001,4.25 7.5,4.25 Z m 30,0 h 15 c 1.800503,0 3.25,1.449471 3.25,3.25 0,1.8004913 -1.449497,3.25 -3.25,3.25 h -15 c -1.800499,0 -3.25,-1.4495087 -3.25,-3.25 0,-1.800529 1.449501,-3.25 3.25,-3.25 z"
       transform="matrix(0.26458335,0,0,0.26458335,0,196.45832)"
       id="path1794"
       inkscape:connector-curvature="0"
       sodipodi:insensitive="true" />
    <path
       style="opacity:1;vector-effect:none;fill:#696969;fill-opacity:1;fill-rule:evenodd;stroke:none;stroke-width:0.37870413;stroke-linecap:butt;stroke-linejoin:round;stroke-miterlimit:4;stroke-dasharray:none;stroke-dashoffset:0;stroke-opacity:1;paint-order:normal"
       d="m 0,200.95623 h 15.875001 v 91.54584 H 0 Z"
       id="path1808"
       inkscape:connector-curvature="0"
       sodipodi:insensitive="true" />
    <text
       xml:space="preserve"
       style="font-style:normal;font-variant:normal;font-weight:normal;font-stretch:normal;font-size:2.11666679px;line-height:1.25;font-family:'DejaVu Sans Mono';-inkscape-font-specification:'DejaVu Sans Mono, Normal';font-variant-ligatures:normal;font-variant-caps:normal;font-variant-numeric:normal;font-feature-settings:normal;text-align:center;letter-spacing:0px;word-spacing:0px;writing-mode:lr-tb;text-anchor:middle;fill:#000000;fill-opacity:1;stroke:#b22222;stroke-width:0.00026458;stroke-miterlimit:4;stroke-dasharray:none"
       x="7.9354334"
       y="289.06232"
       id="text823"><tspan
         sodipodi:role="line"
         id="tspan821"
         x="7.9354334"
         y="289.06232"
         style="font-style:normal;font-variant:normal;font-weight:normal;font-stretch:normal;font-size:2.11666679px;font-family:'DejaVu Sans Mono';-inkscape-font-specification:'DejaVu Sans Mono, Normal';font-variant-ligatures:normal;font-variant-caps:normal;font-variant-numeric:normal;font-feature-settings:normal;text-align:center;writing-mode:lr-tb;text-anchor:middle;fill:#000000;stroke:#b22222;stroke-width:0.00026458;stroke-miterlimit:4;stroke-dasharray:none">1</tspan></text>
    <text
       id="text833"
       y="281.65402"
       x="7.9354334"
       style="font-style:normal;font-variant:normal;font-weight:normal;font-stretch:normal;font-size:2.11666679px;line-height:1.25;font-family:'DejaVu Sans Mono';-inkscape-font-specification:'DejaVu Sans Mono, Normal';font-variant-ligatures:normal;font-variant-caps:normal;font-variant-numeric:normal;font-feature-settings:normal;text-align:center;letter-spacing:0px;word-spacing:0px;writing-mode:lr-tb;text-anchor:middle;fill:#000000;fill-opacity:1;stroke:#b22222;stroke-width:0.00026458;stroke-miterlimit:4;stroke-dasharray:none"
       xml:space="preserve"><tspan
         sodipodi:role="line"
         id="tspan891"
         x="7.9354334"
         y="281.65402">2</tspan></text>
    <text
       id="text849"
       y="274.21573"
       x="7.9354334"
       style="font-style:normal;font-variant:normal;font-weight:normal;font-stretch:normal;font-size:2.11666679px;line-height:1.25;font-family:'DejaVu Sans Mono';-inkscape-font-specification:'DejaVu Sans Mono, Normal';font-variant-ligatures:normal;font-variant-caps:normal;font-variant-numeric:normal;font-feature-settings:normal;text-align:center;letter-spacing:0px;word-spacing:0px;writing-mode:lr-tb;text-anchor:middle;fill:#000000;fill-opacity:1;stroke:#b22222;stroke-width:0.00026458;stroke-miterlimit:4;stroke-dasharray:none"
       xml:space="preserve"><tspan
         sodipodi:role="line"
         id="tspan893"
         x="7.9354334"
         y="274.21573">3</tspan></text>
    <text
       xml:space="preserve"
       style="font-style:normal;font-variant:normal;font-weight:normal;font-stretch:normal;font-size:2.11666679px;line-height:1.25;font-family:'DejaVu Sans Mono';-inkscape-font-specification:'DejaVu Sans Mono, Normal';font-variant-ligatures:normal;font-variant-caps:normal;font-variant-numeric:normal;font-feature-settings:normal;text-align:center;letter-spacing:0px;word-spacing:0px;writing-mode:lr-tb;text-anchor:middle;fill:#000000;fill-opacity:1;stroke:#b22222;stroke-width:0.00026458;stroke-miterlimit:4;stroke-dasharray:none"
       x="7.9354334"
       y="266.83734"
       id="text857"><tspan
         sodipodi:role="line"
         id="tspan895"
         x="7.9354334"
         y="266.83734">4</tspan></text>
    <text
       id="text865"
       y="259.66339"
       x="7.9354334"
       style="font-style:normal;font-variant:normal;font-weight:normal;font-stretch:normal;font-size:2.11666679px;line-height:1.25;font-family:'DejaVu Sans Mono';-inkscape-font-specification:'DejaVu Sans Mono, Normal';font-variant-ligatures:normal;font-variant-caps:normal;font-variant-numeric:normal;font-feature-settings:normal;text-align:center;letter-spacing:0px;word-spacing:0px;writing-mode:lr-tb;text-anchor:middle;fill:#000000;fill-opacity:1;stroke:#b22222;stroke-width:0.00026458;stroke-miterlimit:4;stroke-dasharray:none"
       xml:space="preserve"><tspan
         sodipodi:role="line"
         id="tspan897"
         x="7.9354334"
         y="259.66339">5</tspan></text>
    <text
       xml:space="preserve"
       style="font-style:normal;font-variant:normal;font-weight:normal;font-stretch:normal;font-size:2.11666679px;line-height:1.25;font-family:'DejaVu Sans Mono';-inkscape-font-specification:'DejaVu Sans Mono, Normal';font-variant-ligatures:normal;font-variant-caps:normal;font-variant-numeric:normal;font-feature-settings:normal;text-align:center;letter-spacing:0px;word-spacing:0px;writing-mode:lr-tb;text-anchor:middle;fill:#000000;fill-opacity:1;stroke:#b22222;stroke-width:0.00026458;stroke-miterlimit:4;stroke-dasharray:none"
       x="7.9354334"
       y="251.99072"
       id="text873"><tspan
         sodipodi:role="line"
         id="tspan899"
         x="7.9354334"
         y="251.99072">6</tspan></text>
    <text
       xml:space="preserve"
       style="font-style:normal;font-variant:normal;font-weight:normal;font-stretch:normal;font-size:2.11666679px;line-height:1.25;font-family:'DejaVu Sans Mono';-inkscape-font-specification:'DejaVu Sans Mono, Normal';font-variant-ligatures:normal;font-variant-caps:normal;font-variant-numeric:normal;font-feature-settings:normal;text-align:center;letter-spacing:0px;word-spacing:0px;writing-mode:lr-tb;text-anchor:middle;fill:#000000;fill-opacity:1;stroke:#b22222;stroke-width:0.00026458;stroke-miterlimit:4;stroke-dasharray:none"
       x="7.9354334"
       y="244.61232"
       id="text881"><tspan
         sodipodi:role="line"
         id="tspan901"
         x="7.9354334"
         y="244.61232">7</tspan></text>
    <text
       id="text889"
       y="237.17403"
       x="7.9354334"
       style="font-style:normal;font-variant:normal;font-weight:normal;font-stretch:normal;font-size:2.11666679px;line-height:1.25;font-family:'DejaVu Sans Mono';-inkscape-font-specification:'DejaVu Sans Mono, Normal';font-variant-ligatures:normal;font-variant-caps:normal;font-variant-numeric:normal;font-feature-settings:normal;text-align:center;letter-spacing:0px;word-spacing:0px;writing-mode:lr-tb;text-anchor:middle;fill:#000000;fill-opacity:1;stroke:#b22222;stroke-width:0.00026458;stroke-miterlimit:4;stroke-dasharray:none"
       xml:space="preserve"><tspan
         sodipodi:role="line"
         id="tspan903"
         x="7.9354334"
         y="237.17403">8</tspan></text>
    <text
       xml:space="preserve"
       style="font-style:normal;font-variant:normal;font-weight:normal;font-stretch:normal;font-size:2.11666679px;line-height:1.25;font-family:'DejaVu Sans Mono';-inkscape-font-specification:'DejaVu Sans Mono, Normal';font-variant-ligatures:normal;font-variant-caps:normal;font-variant-numeric:normal;font-feature-settings:normal;text-align:center;letter-spacing:0px;word-spacing:0px;writing-mode:lr-tb;text-anchor:middle;fill:#000000;fill-opacity:1;stroke:#dcdcdc;stroke-width:0.00026458;stroke-miterlimit:4;stroke-dasharray:none"
       x="3.9675817"
       y="210.74568"
       id="text913"><tspan
         sodipodi:role="line"
         id="tspan917"
         x="3.9675817"
         y="210.74568">IN</tspan></text>
    <text
       id="text923"
       y="227.11984"
       x="3.9675827"
       style="font-style:normal;font-variant:normal;font-weight:normal;font-stretch:normal;font-size:2.11666679px;line-height:1.25;font-family:'DejaVu Sans Mono';-inkscape-font-specification:'DejaVu Sans Mono, Normal';font-variant-ligatures:normal;font-variant-caps:normal;font-variant-numeric:normal;font-feature-settings:normal;text-align:center;letter-spacing:0px;word-spacing:0px;writing-mode:lr-tb;text-anchor:middle;fill:#000000;fill-opacity:1;stroke:#dcdcdc;stroke-width:0.00026458;stroke-miterlimit:4;stroke-dasharray:none"
       xml:space="preserve"><tspan
         sodipodi:role="line"
         id="tspan925"
         x="3.9675827"
         y="227.11984">TRIG</tspan></text>
    <text
       id="text933"
       y="210.74568"
       x="11.90508"
       style="font-style:normal;font-variant:normal;font-weight:normal;font-stretch:normal;font-size:2.11666679px;line-height:1.25;font-family:'DejaVu Sans Mono';-inkscape-font-specification:'DejaVu Sans Mono, Normal';font-variant-ligatures:normal;font-variant-caps:normal;font-variant-numeric:normal;font-feature-settings:normal;text-align:center;letter-spacing:0px;word-spacing:0px;writing-mode:lr-tb;text-anchor:middle;fill:#b22222;fill-opacity:1;stroke:#000000;stroke-width:0.00026458;stroke-miterlimit:4;stroke-dasharray:none"
       xml:space="preserve"><tspan
         sodipodi:role="line"
         id="tspan935"
         x="11.90508"
         y="210.74568">ATT</tspan></text>
    <text
       xml:space="preserve"
       style="font-style:normal;font-variant:normal;font-weight:normal;font-stretch:normal;font-size:2.11666679px;line-height:1.25;font-family:'DejaVu Sans Mono';-inkscape-font-specification:'DejaVu Sans Mono, Normal';font-variant-ligatures:normal;font-variant-caps:normal;font-variant-numeric:normal;font-feature-settings:normal;text-align:center;letter-spacing:0px;word-spacing:0px;writing-mode:lr-tb;text-anchor:middle;fill:#b22222;fill-opacity:1;stroke:#000000;stroke-width:0.00026458;stroke-miterlimit:4;stroke-dasharray:none"
       x="11.90508"
       y="220.27071"
       id="text941"><tspan
         sodipodi:role="line"
         id="tspan943"
         x="11.90508"
         y="220.27071">OFF</tspan></text>
    <text
       xml:space="preserve"
       style="font-style:normal;font-variant:normal;font-weight:normal;font-stretch:normal;font-size:2.11666679px;line-height:1.25;font-family:'DejaVu Sans Mono';-inkscape-font-specification:'DejaVu Sans Mono, Normal';font-variant-ligatures:normal;font-variant-caps:normal;font-variant-numeric:normal;font-feature-settings:normal;text-align:center;letter-spacing:0px;word-spacing:0px;writing-mode:lr-tb;text-anchor:middle;fill:#b22222;fill-opacity:1;stroke:#000000;stroke-width:0.00026458;stroke-miterlimit:4;stroke-dasharray:none"
       x="3.9675827"
       y="232.41153"
       id="text947"><tspan
         sodipodi:role="line"
         id="tspan926"
         x="3.9675827"
         y="232.41153">TIME</tspan></text>
    <text
       id="text955"
       y="232.41153"
       x="11.905081"
       style="font-style:normal;font-variant:normal;font-weight:normal;font-stretch:normal;font-size:2.11666679px;line-height:1.25;font-family:'DejaVu Sans Mono';-inkscape-font-specification:'DejaVu Sans Mono, Normal';font-variant-ligatures:normal;font-variant-caps:normal;font-variant-numeric:normal;font-feature-settings:normal;text-align:center;letter-spacing:0px;word-spacing:0px;writing-mode:lr-tb;text-anchor:middle;fill:#dcdcdc;fill-opacity:1;stroke:#000000;stroke-width:0.00026458;stroke-miterlimit:4;stroke-dasharray:none"
       xml:space="preserve"><tspan
         sodipodi:role="line"
         id="tspan928"
         x="11.905081"
         y="232.41153">GATES</tspan></text>
    <g
       id="g888"
       style="display:none">
      <rect
         style="opacity:1;fill:#000000;fill-opacity:1;stroke:none;stroke-width:0.00026458;stroke-linecap:butt;stroke-linejoin:miter;stroke-miterlimit:4;stroke-dasharray:none;stroke-opacity:1;paint-order:normal"
         id="rect819"
         width="5.8208337"
         height="5.8208337"
         x="8.9958324"
         y="285.35834"
         rx="2.9104168"
         ry="2.9104168" />
      <rect
         ry="2.9104168"
         rx="2.9104168"
         y="277.94998"
         x="8.9958324"
         height="5.8208337"
         width="5.8208337"
         id="rect829"
         style="opacity:1;fill:#000000;fill-opacity:1;stroke:none;stroke-width:0.00026458;stroke-linecap:butt;stroke-linejoin:miter;stroke-miterlimit:4;stroke-dasharray:none;stroke-opacity:1;paint-order:normal" />
      <rect
         ry="2.9104168"
         rx="2.9104168"
         y="270.01254"
         x="8.9958324"
         height="5.8208337"
         width="5.8208337"
         id="rect845"
         style="opacity:1;fill:#000000;fill-opacity:1;stroke:none;stroke-width:0.00026458;stroke-linecap:butt;stroke-linejoin:miter;stroke-miterlimit:4;stroke-dasharray:none;stroke-opacity:1;paint-order:normal" />
      <rect
         style="opacity:1;fill:#000000;fill-opacity:1;stroke:none;stroke-width:0.00026458;stroke-linecap:butt;stroke-linejoin:miter;stroke-miterlimit:4;stroke-dasharray:none;stroke-opacity:1;paint-order:normal"
         id="rect853"
         width="5.8208337"
         height="5.8208337"
         x="8.9958324"
         y="262.60419"
         rx="2.9104168"
         ry="2.9104168" />
      <rect
         ry="2.9104168"
         rx="2.9104168"
         y="255.19586"
         x="8.9958324"
         height="5.8208337"
         width="5.8208337"
         id="rect861"
         style="opacity:1;fill:#000000;fill-opacity:1;stroke:none;stroke-width:0.00026458;stroke-linecap:butt;stroke-linejoin:miter;stroke-miterlimit:4;stroke-dasharray:none;stroke-opacity:1;paint-order:normal" />
      <rect
         style="opacity:1;fill:#000000;fill-opacity:1;stroke:none;stroke-width:0.00026458;stroke-linecap:butt;stroke-linejoin:miter;stroke-miterlimit:4;stroke-dasharray:none;stroke-opacity:1;paint-order:normal"
         id="rect869"
         width="5.8208337"
         height="5.8208337"
         x="8.9958324"
         y="247.78757"
         rx="2.9104168"
         ry="2.9104168" />
      <rect
         style="opacity:1;fill:#000000;fill-opacity:1;stroke:none;stroke-width:0.00026458;stroke-linecap:butt;stroke-linejoin:miter;stroke-miterlimit:4;stroke-dasharray:none;stroke-opacity:1;paint-order:normal"
         id="rect877"
         width="5.8208337"
         height="5.8208337"
         x="8.9958324"
         y="239.8501"
         rx="2.9104168"
         ry="2.9104168" />
      <rect
         ry="2.9104168"
         rx="2.9104168"
         y="232.44173"
         x="8.9958324"
         height="5.8208337"
         width="5.8208337"
         id="rect885"
         style="opacity:1;fill:#000000;fill-opacity:1;stroke:none;stroke-width:0.00026458;stroke-linecap:butt;stroke-linejoin:miter;stroke-miterlimit:4;stroke-dasharray:none;stroke-opacity:1;paint-order:normal" />
      <rect
         ry="2.9104168"
         rx="2.9104168"
         y="202.27916"
         x="1.5874991"
         height="5.8208337"
         width="5.8208337"
         id="rect907"
         style="opacity:1;fill:#000000;fill-opacity:1;stroke:none;stroke-width:0.00026458;stroke-linecap:butt;stroke-linejoin:miter;stroke-miterlimit:4;stroke-dasharray:none;stroke-opacity:1;paint-order:normal" />
      <rect
         style="opacity:1;fill:#000000;fill-opacity:1;stroke:none;stroke-width:0.00026458;stroke-linecap:butt;stroke-linejoin:miter;stroke-miterlimit:4;stroke-dasharray:none;stroke-opacity:1;paint-order:normal"
         id="rect919"
         width="5.8208337"
         height="5.8208337"
         x="1.5874991"
         y="217.09581"
         rx="2.9104168"
         ry="2.9104168" />
      <rect
         style="opacity:1;fill:#b22222;fill-opacity:1;stroke:none;stroke-width:0.00026458;stroke-linecap:butt;stroke-linejoin:miter;stroke-miterlimit:4;stroke-dasharray:none;stroke-opacity:1;paint-order:normal"
         id="rect929"
         width="5.8208337"
         height="5.8208337"
         x="8.4666662"
         y="202.27916"
         rx="2.9104168"
         ry="2.9104168" />
      <rect
         ry="2.9104168"
         rx="2.9104168"
         y="211.80418"
         x="8.4666662"
         height="5.8208337"
         width="5.8208337"
         id="rect937"
         style="opacity:1;fill:#b22222;fill-opacity:1;stroke:none;stroke-width:0.00026458;stroke-linecap:butt;stroke-linejoin:miter;stroke-miterlimit:4;stroke-dasharray:none;stroke-opacity:1;paint-order:normal" />
      <rect
         ry="2.9104168"
         rx="2.9104168"
         y="285.35834"
         x="1.0583334"
         height="5.8208337"
         width="5.8208337"
         id="rect817"
         style="opacity:1;fill:#b22222;fill-opacity:1;stroke:none;stroke-width:0.00026458;stroke-linecap:butt;stroke-linejoin:miter;stroke-miterlimit:4;stroke-dasharray:none;stroke-opacity:1;paint-order:normal" />
      <rect
         style="opacity:1;fill:#b22222;fill-opacity:1;stroke:none;stroke-width:0.00026458;stroke-linecap:butt;stroke-linejoin:miter;stroke-miterlimit:4;stroke-dasharray:none;stroke-opacity:1;paint-order:normal"
         id="rect827"
         width="5.8208337"
         height="5.8208337"
         x="1.0583334"
         y="277.94998"
         rx="2.9104168"
         ry="2.9104168" />
      <rect
         style="opacity:1;fill:#b22222;fill-opacity:1;stroke:none;stroke-width:0.00026458;stroke-linecap:butt;stroke-linejoin:miter;stroke-miterlimit:4;stroke-dasharray:none;stroke-opacity:1;paint-order:normal"
         id="rect843"
         width="5.8208337"
         height="5.8208337"
         x="1.0583334"
         y="270.01254"
         rx="2.9104168"
         ry="2.9104168" />
      <rect
         ry="2.9104168"
         rx="2.9104168"
         y="262.60419"
         x="1.0583334"
         height="5.8208337"
         width="5.8208337"
         id="rect851"
         style="opacity:1;fill:#b22222;fill-opacity:1;stroke:none;stroke-width:0.00026458;stroke-linecap:butt;stroke-linejoin:miter;stroke-miterlimit:4;stroke-dasharray:none;stroke-opacity:1;paint-order:normal" />
      <rect
         style="opacity:1;fill:#b22222;fill-opacity:1;stroke:none;stroke-width:0.00026458;stroke-linecap:butt;stroke-linejoin:miter;stroke-miterlimit:4;stroke-dasharray:none;stroke-opacity:1;paint-order:normal"
         id="rect859"
         width="5.8208337"
         height="5.8208337"
         x="1.0583334"
         y="255.19586"
         rx="2.9104168"
         ry="2.9104168" />
      <rect
         ry="2.9104168"
         rx="2.9104168"
         y="247.78757"
         x="1.0583334"
         height="5.8208337"
         width="5.8208337"
         id="rect867"
         style="opacity:1;fill:#b22222;fill-opacity:1;stroke:none;stroke-width:0.00026458;stroke-linecap:butt;stroke-linejoin:miter;stroke-miterlimit:4;stroke-dasharray:none;stroke-opacity:1;paint-order:normal" />
      <rect
         ry="2.9104168"
         rx="2.9104168"
         y="239.8501"
         x="1.0583334"
         height="5.8208337"
         width="5.8208337"
         id="rect875"
         style="opacity:1;fill:#b22222;fill-opacity:1;stroke:none;stroke-width:0.00026458;stroke-linecap:butt;stroke-linejoin:miter;stroke-miterlimit:4;stroke-dasharray:none;stroke-opacity:1;paint-order:normal" />
      <rect
         style="opacity:1;fill:#b22222;fill-opacity:1;stroke:none;stroke-width:0.00026458;stroke-linecap:butt;stroke-linejoin:miter;stroke-miterlimit:4;stroke-dasharray:none;stroke-opacity:1;paint-order:normal"
         id="rect883"
         width="5.8208337"
         height="5.8208337"
         x="1.0583334"
         y="232.44173"
         rx="2.9104168"
         ry="2.9104168" />
    </g>
    <g
       aria-label="1"
       style="font-style:normal;font-variant:normal;font-weight:normal;font-stretch:normal;font-size:2.11666679px;line-height:1.25;font-family:'DejaVu Sans Mono';-inkscape-font-specification:'DejaVu Sans Mono, Normal';font-variant-ligatures:normal;font-variant-caps:normal;font-variant-numeric:normal;font-feature-settings:normal;text-align:center;letter-spacing:0px;word-spacing:0px;writing-mode:lr-tb;text-anchor:middle;fill:#000000;fill-opacity:1;stroke:#b22222;stroke-width:0.00026458;stroke-miterlimit:4;stroke-dasharray:none"
       id="text892"
       transform="translate(0.05468574,-2.3117159e-4)">
      <path
         d="m 7.523143,288.88686 h 0.3245281 v -1.17926 l -0.3493327,0.0786 v -0.19017 l 0.3472656,-0.0765 h 0.2087728 v 1.36736 h 0.3203939 v 0.1757 H 7.523143 Z"
         style="font-style:normal;font-variant:normal;font-weight:normal;font-stretch:normal;font-size:2.11666679px;font-family:'DejaVu Sans Mono';-inkscape-font-specification:'DejaVu Sans Mono, Normal';font-variant-ligatures:normal;font-variant-caps:normal;font-variant-numeric:normal;font-feature-settings:normal;text-align:center;writing-mode:lr-tb;text-anchor:middle;fill:#000000;stroke:#b22222;stroke-width:0.00026458;stroke-miterlimit:4;stroke-dasharray:none"
         id="path946"
         inkscape:connector-curvature="0" />
    </g>
    <g
       aria-label="2"
       style="font-style:normal;font-variant:normal;font-weight:normal;font-stretch:normal;font-size:2.11666679px;line-height:1.25;font-family:'DejaVu Sans Mono';-inkscape-font-specification:'DejaVu Sans Mono, Normal';font-variant-ligatures:normal;font-variant-caps:normal;font-variant-numeric:normal;font-feature-settings:normal;text-align:center;letter-spacing:0px;word-spacing:0px;writing-mode:lr-tb;text-anchor:middle;fill:#000000;fill-opacity:1;stroke:#b22222;stroke-width:0.00026458;stroke-miterlimit:4;stroke-dasharray:none"
       id="text896"
       transform="translate(0.05468574,-1.8486106e-4)">
      <path
         d="m 7.6295965,281.47851 h 0.7090007 v 0.1757 H 7.4011867 v -0.1757 q 0.1932698,-0.20361 0.3379638,-0.35967 0.1446941,-0.15607 0.1994711,-0.22014 0.1033529,-0.12609 0.1395264,-0.20361 0.036174,-0.0786 0.036174,-0.1602 0,-0.12919 -0.076481,-0.20257 -0.075448,-0.0734 -0.2077392,-0.0734 -0.094051,0 -0.197404,0.0341 -0.1033529,0.0341 -0.2191081,0.10335 v -0.21084 q 0.1064535,-0.0506 0.2087728,-0.0765 0.1033529,-0.0258 0.2036052,-0.0258 0.2263427,0 0.3638021,0.12092 0.1384928,0.11989 0.1384928,0.31523 0,0.0992 -0.046509,0.19844 -0.045475,0.0992 -0.1488281,0.21911 -0.057878,0.0672 -0.1684652,0.18603 -0.109554,0.11886 -0.3348633,0.35554 z"
         id="path949"
         inkscape:connector-curvature="0" />
    </g>
    <g
       aria-label="3"
       style="font-style:normal;font-variant:normal;font-weight:normal;font-stretch:normal;font-size:2.11666679px;line-height:1.25;font-family:'DejaVu Sans Mono';-inkscape-font-specification:'DejaVu Sans Mono, Normal';font-variant-ligatures:normal;font-variant-caps:normal;font-variant-numeric:normal;font-feature-settings:normal;text-align:center;letter-spacing:0px;word-spacing:0px;writing-mode:lr-tb;text-anchor:middle;fill:#000000;fill-opacity:1;stroke:#b22222;stroke-width:0.00026458;stroke-miterlimit:4;stroke-dasharray:none"
       id="text900"
       transform="translate(0.05468574,0.49895145)">
      <path
         d="m 8.0461086,272.89098 q 0.1519287,0.0403 0.2325439,0.14366 0.080615,0.10232 0.080615,0.25631 0,0.21291 -0.1436605,0.33487 -0.142627,0.12092 -0.3958415,0.12092 -0.1064535,0 -0.217041,-0.0196 -0.1105876,-0.0196 -0.2170411,-0.0568 v -0.20774 q 0.10542,0.0548 0.2077393,0.0817 0.1023193,0.0269 0.2036052,0.0269 0.1715657,0 0.2635498,-0.0775 0.091984,-0.0775 0.091984,-0.22324 0,-0.13436 -0.091984,-0.2129 -0.091984,-0.0796 -0.2490804,-0.0796 H 7.6523341 v -0.17156 h 0.1591635 q 0.1436604,0 0.2242757,-0.0631 0.080615,-0.063 0.080615,-0.1757 0,-0.11885 -0.075448,-0.1819 -0.074414,-0.0641 -0.2129069,-0.0641 -0.091984,0 -0.1901693,0.0207 -0.098185,0.0207 -0.2056722,0.062 v -0.19223 q 0.125057,-0.0331 0.2222087,-0.0496 0.098185,-0.0165 0.1736328,-0.0165 0.2253093,0 0.359668,0.11369 0.1353923,0.11266 0.1353923,0.29972 0,0.12713 -0.071313,0.21188 -0.07028,0.0847 -0.2056722,0.11989 z"
         id="path952"
         inkscape:connector-curvature="0" />
    </g>
    <g
       aria-label="4"
       style="font-style:normal;font-variant:normal;font-weight:normal;font-stretch:normal;font-size:2.11666679px;line-height:1.25;font-family:'DejaVu Sans Mono';-inkscape-font-specification:'DejaVu Sans Mono, Normal';font-variant-ligatures:normal;font-variant-caps:normal;font-variant-numeric:normal;font-feature-settings:normal;text-align:center;letter-spacing:0px;word-spacing:0px;writing-mode:lr-tb;text-anchor:middle;fill:#000000;fill-opacity:1;stroke:#b22222;stroke-width:0.00026458;stroke-miterlimit:4;stroke-dasharray:none"
       id="text904"
       transform="translate(0.05468574,0.52893901)">
      <path
         d="m 8.0037339,264.95552 -0.486792,0.81546 h 0.486792 z m -0.034107,-0.19017 h 0.2418458 v 1.00563 h 0.2056722 v 0.16949 H 8.2114732 v 0.36794 H 8.0037339 v -0.36794 H 7.3495102 v -0.1974 z"
         id="path955"
         inkscape:connector-curvature="0" />
    </g>
    <g
       aria-label="5"
       style="font-style:normal;font-variant:normal;font-weight:normal;font-stretch:normal;font-size:2.11666679px;line-height:1.25;font-family:'DejaVu Sans Mono';-inkscape-font-specification:'DejaVu Sans Mono, Normal';font-variant-ligatures:normal;font-variant-caps:normal;font-variant-numeric:normal;font-feature-settings:normal;text-align:center;letter-spacing:0px;word-spacing:0px;writing-mode:lr-tb;text-anchor:middle;fill:#000000;fill-opacity:1;stroke:#b22222;stroke-width:0.00026458;stroke-miterlimit:4;stroke-dasharray:none"
       id="text908"
       transform="translate(0.05468574,0.76333741)">
      <path
         d="m 7.4580307,257.357 h 0.7813477 v 0.1757 H 7.6482 v 0.3793 q 0.044442,-0.0165 0.088883,-0.0238 0.045475,-0.008 0.09095,-0.008 0.2397787,0 0.3803386,0.1416 0.1405599,0.14159 0.1405599,0.38343 0,0.24392 -0.1477946,0.38448 -0.1467611,0.14056 -0.4020427,0.14056 -0.1229899,0 -0.2253092,-0.0165 -0.1012859,-0.0165 -0.1819011,-0.0496 v -0.21187 q 0.095085,0.0517 0.1912028,0.0775 0.096118,0.0248 0.1963705,0.0248 0.1725993,0 0.2656168,-0.0909 0.094051,-0.091 0.094051,-0.25839 0,-0.16536 -0.097152,-0.25734 -0.096118,-0.092 -0.2687175,-0.092 -0.083716,0 -0.1632975,0.0196 -0.079582,0.0186 -0.1519288,0.0568 z"
         id="path958"
         inkscape:connector-curvature="0" />
    </g>
    <g
       aria-label="6"
       style="font-style:normal;font-variant:normal;font-weight:normal;font-stretch:normal;font-size:2.11666679px;line-height:1.25;font-family:'DejaVu Sans Mono';-inkscape-font-specification:'DejaVu Sans Mono, Normal';font-variant-ligatures:normal;font-variant-caps:normal;font-variant-numeric:normal;font-feature-settings:normal;text-align:center;letter-spacing:0px;word-spacing:0px;writing-mode:lr-tb;text-anchor:middle;fill:#000000;fill-opacity:1;stroke:#b22222;stroke-width:0.00026458;stroke-miterlimit:4;stroke-dasharray:none"
       id="text912"
       transform="translate(0.05468574,0.49900357)">
      <path
         d="m 8.2683172,249.98276 v 0.19224 q -0.065112,-0.0382 -0.1384928,-0.0579 -0.073381,-0.0207 -0.1529622,-0.0207 -0.1984376,0 -0.3007569,0.14986 -0.1023193,0.14883 -0.1023193,0.43925 0.049609,-0.10335 0.1374593,-0.15813 0.08785,-0.0558 0.2015381,-0.0558 0.2232422,0 0.3451986,0.13746 0.1229899,0.13643 0.1229899,0.38757 0,0.25012 -0.1260905,0.38758 -0.1260905,0.13746 -0.3545004,0.13746 -0.2687174,0 -0.3937744,-0.19224 -0.125057,-0.19327 -0.125057,-0.60771 0,-0.39068 0.1498617,-0.59532 0.1508952,-0.20567 0.4361491,-0.20567 0.076481,0 0.1529622,0.0165 0.076481,0.0155 0.1477946,0.0455 z m -0.3720703,0.65216 q -0.1333252,0 -0.2098063,0.0961 -0.076481,0.0961 -0.076481,0.26561 0,0.1695 0.076481,0.26562 0.076481,0.0961 0.2098063,0.0961 0.1384929,0 0.2087728,-0.091 0.07028,-0.092 0.07028,-0.27079 0,-0.17983 -0.07028,-0.27078 -0.07028,-0.0909 -0.2087728,-0.0909 z"
         id="path961"
         inkscape:connector-curvature="0" />
    </g>
    <g
       aria-label="7"
       style="font-style:normal;font-variant:normal;font-weight:normal;font-stretch:normal;font-size:2.11666679px;line-height:1.25;font-family:'DejaVu Sans Mono';-inkscape-font-specification:'DejaVu Sans Mono, Normal';font-variant-ligatures:normal;font-variant-caps:normal;font-variant-numeric:normal;font-feature-settings:normal;text-align:center;letter-spacing:0px;word-spacing:0px;writing-mode:lr-tb;text-anchor:middle;fill:#000000;fill-opacity:1;stroke:#b22222;stroke-width:0.00026458;stroke-miterlimit:4;stroke-dasharray:none"
       id="text916"
       transform="translate(0.05468574,1.0580967)">
      <path
         d="m 7.3877508,242.01119 h 0.971517 v 0.0889 l -0.5519044,1.45417 H 7.5892889 l 0.5374349,-1.36735 h -0.738973 z"
         id="path964"
         inkscape:connector-curvature="0" />
    </g>
    <g
       aria-label="8"
       style="font-style:normal;font-variant:normal;font-weight:normal;font-stretch:normal;font-size:2.11666679px;line-height:1.25;font-family:'DejaVu Sans Mono';-inkscape-font-specification:'DejaVu Sans Mono, Normal';font-variant-ligatures:normal;font-variant-caps:normal;font-variant-numeric:normal;font-feature-settings:normal;text-align:center;letter-spacing:0px;word-spacing:0px;writing-mode:lr-tb;text-anchor:middle;fill:#000000;fill-opacity:1;stroke:#b22222;stroke-width:0.00026458;stroke-miterlimit:4;stroke-dasharray:none"
       id="text920"
       transform="translate(0.05468574,1.028163)">
      <path
         d="m 7.880744,235.4131 q -0.1395264,0 -0.2160075,0.0786 -0.075448,0.0775 -0.075448,0.22014 0,0.14263 0.076481,0.22221 0.077515,0.0786 0.214974,0.0786 0.1405599,0 0.2160075,-0.0775 0.076481,-0.0785 0.076481,-0.22324 0,-0.14159 -0.077515,-0.22014 -0.076481,-0.0786 -0.214974,-0.0786 z m -0.1819011,-0.0868 q -0.1333252,-0.0341 -0.2087728,-0.12713 -0.074414,-0.093 -0.074414,-0.22427 0,-0.18397 0.1250569,-0.29146 0.125057,-0.10852 0.340031,-0.10852 0.2160075,0 0.3410645,0.10852 0.1250569,0.10749 0.1250569,0.29146 0,0.13125 -0.075448,0.22427 -0.074414,0.093 -0.2077392,0.12713 0.1550293,0.0341 0.236678,0.13746 0.082682,0.10335 0.082682,0.26768 0,0.20877 -0.1333252,0.32659 -0.1333252,0.11783 -0.3689697,0.11783 -0.2356446,0 -0.3689698,-0.11679 -0.1322916,-0.11782 -0.1322916,-0.32556 0,-0.16537 0.081649,-0.26872 0.082682,-0.10439 0.237712,-0.13849 z m -0.075448,-0.33177 q 0,0.12403 0.066146,0.18914 0.066146,0.0651 0.1912028,0.0651 0.1260905,0 0.1922363,-0.0651 0.066146,-0.0651 0.066146,-0.18914 0,-0.12609 -0.066146,-0.19223 -0.065112,-0.0661 -0.1922363,-0.0661 -0.125057,0 -0.1912028,0.0672 -0.066146,0.0661 -0.066146,0.1912 z"
         id="path967"
         inkscape:connector-curvature="0" />
    </g>
    <g
       aria-label="IN"
       style="font-style:normal;font-variant:normal;font-weight:normal;font-stretch:normal;font-size:2.11666679px;line-height:1.25;font-family:'DejaVu Sans Mono';-inkscape-font-specification:'DejaVu Sans Mono, Normal';font-variant-ligatures:normal;font-variant-caps:normal;font-variant-numeric:normal;font-feature-settings:normal;text-align:center;letter-spacing:0px;word-spacing:0px;writing-mode:lr-tb;text-anchor:middle;fill:#000000;fill-opacity:1;stroke:#dcdcdc;stroke-width:0.00026458;stroke-miterlimit:4;stroke-dasharray:none"
       id="text924"
       transform="translate(-0.52916669)">
      <path
         d="m 3.4311803,209.20262 h 0.8567953 v 0.1757 H 3.9644812 v 1.19166 h 0.3234944 v 0.1757 H 3.4311803 v -0.1757 h 0.3234945 v -1.19166 H 3.4311803 Z"
         id="path970"
         inkscape:connector-curvature="0" />
      <path
         d="m 4.6404089,209.20262 h 0.2645833 l 0.5208985,1.27021 v -1.27021 h 0.2015381 v 1.54306 H 5.3628455 L 4.841947,209.47547 v 1.27021 H 4.6404089 Z"
         id="path972"
         inkscape:connector-curvature="0" />
    </g>
    <g
       aria-label="TRIG"
       style="font-style:normal;font-variant:normal;font-weight:normal;font-stretch:normal;font-size:2.11666679px;line-height:1.25;font-family:'DejaVu Sans Mono';-inkscape-font-specification:'DejaVu Sans Mono, Normal';font-variant-ligatures:normal;font-variant-caps:normal;font-variant-numeric:normal;font-feature-settings:normal;text-align:center;letter-spacing:0px;word-spacing:0px;writing-mode:lr-tb;text-anchor:middle;fill:#000000;fill-opacity:1;stroke:#dcdcdc;stroke-width:0.00026458;stroke-miterlimit:4;stroke-dasharray:none"
       id="text928"
       transform="translate(-0.52916669,1.5875001)">
      <path
         d="m 1.9987105,223.98931 h 1.1771892 v 0.1757 H 2.6932418 v 1.36735 H 2.4834355 v -1.36735 h -0.484725 z"
         id="path975"
         inkscape:connector-curvature="0" />
      <path
         d="m 4.0089238,224.80373 q 0.080615,0.0207 0.1374593,0.0785 0.056844,0.0568 0.1415935,0.22841 l 0.2098063,0.42168 H 4.2735072 l -0.1839682,-0.3896 q -0.079582,-0.16639 -0.1436604,-0.21394 -0.063045,-0.0486 -0.1653646,-0.0486 H 3.5810429 v 0.65215 H 3.3712366 v -1.54305 h 0.4299479 q 0.2542481,0 0.3896404,0.11472 0.1353922,0.11472 0.1353922,0.33176 0,0.15296 -0.083716,0.25011 -0.082682,0.0961 -0.2335775,0.11783 z m -0.4278809,-0.64286 v 0.54777 h 0.2284099 q 0.1498616,0 0.2232422,-0.0672 0.07338,-0.0672 0.07338,-0.20567 0,-0.13333 -0.078548,-0.20361 -0.077515,-0.0713 -0.2263428,-0.0713 z"
         id="path977"
         inkscape:connector-curvature="0" />
      <path
         d="m 4.7044886,223.98931 h 0.8567953 v 0.1757 H 5.2377894 v 1.19165 h 0.3234945 v 0.1757 H 4.7044886 v -0.1757 h 0.3234945 v -1.19165 H 4.7044886 Z"
         id="path979"
         inkscape:connector-curvature="0" />
      <path
         d="m 6.9110723,225.40524 q -0.083716,0.0775 -0.1891357,0.11782 -0.1043864,0.0393 -0.2263428,0.0393 -0.2935222,0 -0.4568197,-0.20981 -0.1632975,-0.21084 -0.1632975,-0.59014 0,-0.37828 0.1653646,-0.58912 0.1653645,-0.21187 0.4599202,-0.21187 0.097152,0 0.1860352,0.0279 0.088883,0.0269 0.1715658,0.0827 v 0.21394 q -0.083716,-0.0796 -0.1715658,-0.11679 -0.08785,-0.0382 -0.1860352,-0.0382 -0.2036051,0 -0.3059245,0.15813 -0.1012858,0.1571 -0.1012858,0.47336 0,0.32142 0.098185,0.47645 0.099219,0.154 0.3038575,0.154 0.069246,0 0.1209228,-0.0155 0.05271,-0.0165 0.095085,-0.0506 v -0.41444 H 6.4873256 v -0.17157 h 0.4237467 z"
         id="path981"
         inkscape:connector-curvature="0" />
    </g>
    <g
       aria-label="ATT"
       style="font-style:normal;font-variant:normal;font-weight:normal;font-stretch:normal;font-size:2.11666679px;line-height:1.25;font-family:'DejaVu Sans Mono';-inkscape-font-specification:'DejaVu Sans Mono, Normal';font-variant-ligatures:normal;font-variant-caps:normal;font-variant-numeric:normal;font-feature-settings:normal;text-align:center;letter-spacing:0px;word-spacing:0px;writing-mode:lr-tb;text-anchor:middle;fill:#b22222;fill-opacity:1;stroke:#000000;stroke-width:0.00026458;stroke-miterlimit:4;stroke-dasharray:none"
       id="text932"
       transform="translate(0.52916669)">
      <path
         d="m 10.102606,209.38659 -0.2201414,0.78962 H 10.322748 Z M 9.9765157,209.20262 H 10.22973 l 0.472323,1.54306 h -0.216008 l -0.113688,-0.40204 H 9.8318217 l -0.1116211,0.40204 H 9.5041931 Z"
         id="path984"
         inkscape:connector-curvature="0" />
      <path
         d="m 10.787836,209.20262 h 1.177189 v 0.1757 h -0.482658 v 1.36736 h -0.209806 v -1.36736 h -0.484725 z"
         id="path986"
         inkscape:connector-curvature="0" />
      <path
         d="m 12.061143,209.20262 h 1.177189 v 0.1757 h -0.482658 v 1.36736 h -0.209806 v -1.36736 h -0.484725 z"
         id="path988"
         inkscape:connector-curvature="0" />
    </g>
    <g
       aria-label="OFF"
       style="font-style:normal;font-variant:normal;font-weight:normal;font-stretch:normal;font-size:2.11666679px;line-height:1.25;font-family:'DejaVu Sans Mono';-inkscape-font-specification:'DejaVu Sans Mono, Normal';font-variant-ligatures:normal;font-variant-caps:normal;font-variant-numeric:normal;font-feature-settings:normal;text-align:center;letter-spacing:0px;word-spacing:0px;writing-mode:lr-tb;text-anchor:middle;fill:#b22222;fill-opacity:1;stroke:#000000;stroke-width:0.00026458;stroke-miterlimit:4;stroke-dasharray:none"
       id="text936"
       transform="translate(0.52916669)">
      <path
         d="m 10.401296,219.50073 q 0,-0.34003 -0.07028,-0.48576 -0.06925,-0.14573 -0.22841,-0.14573 -0.1581296,0 -0.2284096,0.14573 -0.069246,0.14573 -0.069246,0.48576 0,0.33899 0.069246,0.48472 0.07028,0.14573 0.2284096,0.14573 0.159164,0 0.22841,-0.14469 0.07028,-0.14573 0.07028,-0.48576 z m 0.218075,0 q 0,0.40307 -0.128158,0.60151 -0.127124,0.19844 -0.388607,0.19844 -0.2614825,0 -0.3886065,-0.19741 -0.1271241,-0.1974 -0.1271241,-0.60254 0,-0.40411 0.1271241,-0.60255 0.1281575,-0.19844 0.3886065,-0.19844 0.261483,0 0.388607,0.19844 0.128158,0.19844 0.128158,0.60255 z"
         id="path991"
         inkscape:connector-curvature="0" />
      <path
         d="m 10.980072,218.72765 h 0.908472 v 0.1757 h -0.698666 v 0.45475 h 0.633554 v 0.1757 h -0.633554 v 0.73691 h -0.209806 z"
         id="path993"
         inkscape:connector-curvature="0" />
      <path
         d="m 12.253379,218.72765 h 0.908472 v 0.1757 h -0.698665 v 0.45475 h 0.633553 v 0.1757 h -0.633553 v 0.73691 h -0.209807 z"
         id="path995"
         inkscape:connector-curvature="0" />
    </g>
    <g
       aria-label="TIME"
       style="font-style:normal;font-variant:normal;font-weight:normal;font-stretch:normal;font-size:2.11666679px;line-height:1.25;font-family:'DejaVu Sans Mono';-inkscape-font-specification:'DejaVu Sans Mono, Normal';font-variant-ligatures:normal;font-variant-caps:normal;font-variant-numeric:normal;font-feature-settings:normal;text-align:center;letter-spacing:0px;word-spacing:0px;writing-mode:lr-tb;text-anchor:middle;fill:#b22222;fill-opacity:1;stroke:#000000;stroke-width:0.00026458;stroke-miterlimit:4;stroke-dasharray:none"
       id="text934">
      <path
         d="M 1.4695438,230.86847 H 2.646733 v 0.1757 H 2.1640751 v 1.36736 H 1.9542688 v -1.36736 h -0.484725 z"
         id="path940"
         inkscape:connector-curvature="0" />
      <path
         d="m 2.9020146,230.86847 h 0.8567953 v 0.1757 H 3.4353154 v 1.19166 h 0.3234945 v 0.1757 H 2.9020146 v -0.1757 H 3.225509 v -1.19166 H 2.9020146 Z"
         id="path942"
         inkscape:connector-curvature="0" />
      <path
         d="m 4.0564661,230.86847 h 0.2790527 l 0.2666504,0.78548 0.2687175,-0.78548 H 5.150973 v 1.54306 H 4.9577031 v -1.36322 l -0.2749186,0.81338 H 4.5246546 l -0.2759522,-0.81338 v 1.36322 H 4.0564661 Z"
         id="path944"
         inkscape:connector-curvature="0" />
      <path
         d="m 5.4444951,230.86847 h 0.9157064 v 0.1757 H 5.6532679 v 0.45682 h 0.6759278 v 0.1757 H 5.6532679 v 0.55914 h 0.7265707 v 0.1757 H 5.4444951 Z"
         id="path947"
         inkscape:connector-curvature="0" />
    </g>
    <g
       aria-label="GATES"
       style="font-style:normal;font-variant:normal;font-weight:normal;font-stretch:normal;font-size:2.11666679px;line-height:1.25;font-family:'DejaVu Sans Mono';-inkscape-font-specification:'DejaVu Sans Mono, Normal';font-variant-ligatures:normal;font-variant-caps:normal;font-variant-numeric:normal;font-feature-settings:normal;text-align:center;letter-spacing:0px;word-spacing:0px;writing-mode:lr-tb;text-anchor:middle;fill:#dcdcdc;fill-opacity:1;stroke:#000000;stroke-width:0.00026458;stroke-miterlimit:4;stroke-dasharray:none"
       id="text938">
      <path
         d="m 9.8628281,232.28441 q -0.083716,0.0775 -0.1891358,0.11782 -0.1043864,0.0393 -0.2263428,0.0393 -0.2935221,0 -0.4568197,-0.2098 -0.1632975,-0.21084 -0.1632975,-0.59015 0,-0.37827 0.1653646,-0.58911 0.1653646,-0.21187 0.4599203,-0.21187 0.097152,0 0.1860351,0.0279 0.088883,0.0269 0.1715658,0.0827 v 0.21394 q -0.083716,-0.0796 -0.1715658,-0.11678 -0.08785,-0.0382 -0.1860351,-0.0382 -0.2036052,0 -0.3059245,0.15813 -0.1012858,0.1571 -0.1012858,0.47336 0,0.32143 0.098185,0.47646 0.099219,0.15399 0.3038574,0.15399 0.069247,0 0.1209229,-0.0155 0.05271,-0.0165 0.095085,-0.0506 v -0.41445 H 9.4390813 v -0.17156 h 0.4237468 z"
         id="path950"
         inkscape:connector-curvature="0" />
      <path
         d="m 10.631773,231.05244 -0.220141,0.78962 h 0.440283 z m -0.12609,-0.18397 h 0.253214 l 0.472323,1.54306 h -0.216007 l -0.113689,-0.40204 h -0.540535 l -0.111621,0.40204 H 10.03336 Z"
         id="path953"
         inkscape:connector-curvature="0" />
      <path
         d="m 11.317003,230.86847 h 1.177189 v 0.1757 h -0.482658 v 1.36736 h -0.209806 v -1.36736 h -0.484725 z"
         id="path956"
         inkscape:connector-curvature="0" />
      <path
         d="m 12.74534,230.86847 h 0.915706 v 0.1757 h -0.706934 v 0.45682 h 0.675928 v 0.1757 h -0.675928 v 0.55914 h 0.726571 v 0.1757 H 12.74534 Z"
         id="path959"
         inkscape:connector-curvature="0" />
      <path
         d="m 14.860973,230.92118 v 0.21187 q -0.09508,-0.061 -0.191203,-0.092 -0.09508,-0.031 -0.192236,-0.031 -0.147795,0 -0.233578,0.0692 -0.08578,0.0682 -0.08578,0.185 0,0.10232 0.05581,0.15607 0.05684,0.0537 0.21084,0.0899 l 0.109554,0.0248 q 0.217041,0.0506 0.316259,0.15916 0.09922,0.10852 0.09922,0.29559 0,0.22014 -0.136426,0.3359 -0.136425,0.11575 -0.396875,0.11575 -0.10852,0 -0.218074,-0.0238 -0.109554,-0.0227 -0.220142,-0.0693 v -0.2222 q 0.118856,0.0754 0.224276,0.11058 0.106453,0.0351 0.21394,0.0351 0.15813,0 0.24598,-0.0703 0.08785,-0.0713 0.08785,-0.19843 0,-0.11576 -0.06098,-0.17674 -0.05994,-0.061 -0.209806,-0.0941 l -0.111621,-0.0258 q -0.214974,-0.0486 -0.312126,-0.14676 -0.09715,-0.0982 -0.09715,-0.26355 0,-0.2067 0.138493,-0.33073 0.139526,-0.12505 0.370003,-0.12505 0.08888,0 0.187069,0.0207 0.09818,0.0196 0.206706,0.0599 z"
         id="path962"
         inkscape:connector-curvature="0" />
    </g>
  </g>
</svg>
