<?xml version="1.0" encoding="UTF-8" standalone="no"?>
<!-- Created with Inkscape (http://www.inkscape.org/) -->

<svg
   xmlns:dc="http://purl.org/dc/elements/1.1/"
   xmlns:cc="http://creativecommons.org/ns#"
   xmlns:rdf="http://www.w3.org/1999/02/22-rdf-syntax-ns#"
   xmlns:svg="http://www.w3.org/2000/svg"
   xmlns="http://www.w3.org/2000/svg"
   xmlns:sodipodi="http://sodipodi.sourceforge.net/DTD/sodipodi-0.dtd"
   xmlns:inkscape="http://www.inkscape.org/namespaces/inkscape"
   width="30"
   height="380"
   viewBox="0 0 7.9375005 100.54167"
   version="1.1"
   id="svg8"
   inkscape:version="0.92.2 (5c3e80d, 2017-08-06)"
   sodipodi:docname="InToAorB.svg"
   inkscape:export-filename="C:\Users\phdsg\Desktop\vcv\chanceswitches.png"
   inkscape:export-xdpi="96"
   inkscape:export-ydpi="96">
  <defs
     id="defs2" />
  <sodipodi:namedview
     id="base"
     pagecolor="#b3b1b0"
     bordercolor="#666666"
     borderopacity="1.0"
     inkscape:pageopacity="0.68235294"
     inkscape:pageshadow="2"
     inkscape:zoom="2"
     inkscape:cx="-0.98028737"
     inkscape:cy="204.50303"
     inkscape:document-units="px"
     inkscape:current-layer="g873"
     showgrid="false"
     units="px"
     inkscape:snap-bbox="true"
     inkscape:snap-page="true"
     inkscape:bbox-nodes="true"
     inkscape:snap-bbox-edge-midpoints="true"
     inkscape:window-width="1730"
     inkscape:window-height="900"
     inkscape:window-x="0"
     inkscape:window-y="0"
     inkscape:window-maximized="0"
     inkscape:showpageshadow="false"
     showborder="true"
     inkscape:pagecheckerboard="true"
     showguides="true"
     inkscape:guide-bbox="true">
    <inkscape:grid
       type="xygrid"
       id="grid853" />
    <sodipodi:guide
       position="3.9687502,104.06394"
       orientation="1,0"
       id="guide857"
       inkscape:locked="false" />
  </sodipodi:namedview>
  <metadata
     id="metadata5">
    <rdf:RDF>
      <cc:Work
         rdf:about="">
        <dc:format>image/svg+xml</dc:format>
        <dc:type
           rdf:resource="http://purl.org/dc/dcmitype/StillImage" />
        <dc:title />
      </cc:Work>
    </rdf:RDF>
  </metadata>
  <g
     style="display:inline"
     transform="translate(0,-196.45832)"
     id="g1796"
     inkscape:label="single">
    <path
       inkscape:connector-curvature="0"
       id="path1792"
       d="m 0,200.42707 h 7.9375004 v 92.60417 H 0 Z"
       style="opacity:1;vector-effect:none;fill:#808080;fill-opacity:1;fill-rule:evenodd;stroke:none;stroke-width:0.2693277;stroke-linecap:butt;stroke-linejoin:round;stroke-miterlimit:4;stroke-dasharray:none;stroke-dashoffset:0;stroke-opacity:1;paint-order:normal"
       sodipodi:insensitive="true" />
    <path
       style="opacity:1;vector-effect:none;fill:#808080;fill-opacity:1;fill-rule:evenodd;stroke:none;stroke-width:0.21073182;stroke-linecap:butt;stroke-linejoin:round;stroke-miterlimit:4;stroke-dasharray:none;stroke-dashoffset:0;stroke-opacity:1;paint-order:normal"
       d="M 0,0 V 15 H 30 V 0 Z m 7.5,4.25 h 15 c 1.8005,0 3.25,1.449471 3.25,3.25 0,1.8004913 -1.4495,3.25 -3.25,3.25 H 7.5 C 5.6995001,10.75 4.25,9.3004913 4.25,7.5 4.25,5.699471 5.6995001,4.25 7.5,4.25 Z"
       transform="matrix(0.26458335,0,0,0.26458335,0,196.45832)"
       id="path1794"
       inkscape:connector-curvature="0" />
    <path
       style="opacity:1;vector-effect:none;fill:#696969;fill-opacity:1;fill-rule:evenodd;stroke:none;stroke-width:0.26778427;stroke-linecap:butt;stroke-linejoin:round;stroke-miterlimit:4;stroke-dasharray:none;stroke-dashoffset:0;stroke-opacity:1;paint-order:normal"
       d="m 0,200.95623 h 7.9375004 v 91.54584 H 0 Z"
       id="path1808"
       inkscape:connector-curvature="0"
       sodipodi:insensitive="true" />
    <path
       inkscape:connector-curvature="0"
       id="path1079"
       d="m 0,293.03124 v 3.96875 h 7.9375005 v -3.96875 z m 1.9843751,1.12448 h 3.9687503 c 0.4763823,0 0.8598959,0.38351 0.8598959,0.8599 0,0.47638 -0.3835136,0.85989 -0.8598959,0.85989 H 1.9843751 c -0.4763823,0 -0.8598959,-0.38351 -0.8598959,-0.85989 0,-0.47639 0.3835136,-0.8599 0.8598959,-0.8599 z"
       style="opacity:1;vector-effect:none;fill:#808080;fill-opacity:1;fill-rule:evenodd;stroke:none;stroke-width:0.05575613;stroke-linecap:butt;stroke-linejoin:round;stroke-miterlimit:4;stroke-dasharray:none;stroke-dashoffset:0;stroke-opacity:1;paint-order:normal" />
    <g
       id="g855"
       style="display:none">
      <rect
         style="opacity:1;fill:#4169e1;fill-opacity:1;stroke:none;stroke-width:0.26458335;stroke-linecap:butt;stroke-linejoin:miter;stroke-miterlimit:4;stroke-dasharray:none;stroke-opacity:1;paint-order:normal"
         id="rect990"
         width="5.8208337"
         height="5.8208337"
         x="0.79374981"
         y="202.27916"
         rx="5.8208337"
         ry="5.8208337" />
      <rect
         ry="5.8208337"
         rx="5.8208337"
         y="262.60397"
         x="1.0583334"
         height="5.8208337"
         width="5.8208337"
         id="rect992"
         style="opacity:1;fill:#ff0000;fill-opacity:1;stroke:none;stroke-width:0.26458335;stroke-linecap:butt;stroke-linejoin:miter;stroke-miterlimit:4;stroke-dasharray:none;stroke-opacity:1;paint-order:normal" />
      <rect
         ry="5.8208337"
         rx="5.8208337"
         y="212.862"
         x="1.0583334"
         height="5.8208337"
         width="5.8208337"
         id="rect994"
         style="opacity:1;fill:#b22222;fill-opacity:1;stroke:none;stroke-width:0.26458335;stroke-linecap:butt;stroke-linejoin:miter;stroke-miterlimit:4;stroke-dasharray:none;stroke-opacity:1;paint-order:normal" />
      <rect
         style="opacity:1;fill:#b22222;fill-opacity:1;stroke:none;stroke-width:0.26458335;stroke-linecap:butt;stroke-linejoin:miter;stroke-miterlimit:4;stroke-dasharray:none;stroke-opacity:1;paint-order:normal"
         id="rect996"
         width="5.8208337"
         height="5.8208337"
         x="1.0583334"
         y="219.21204"
         rx="5.8208337"
         ry="5.8208337" />
      <rect
         ry="5.8208337"
         rx="5.8208337"
         y="228.73642"
         x="1.0583334"
         height="5.8208337"
         width="5.8208337"
         id="rect998"
         style="opacity:1;fill:#ffff00;fill-opacity:1;stroke:none;stroke-width:0.26458335;stroke-linecap:butt;stroke-linejoin:miter;stroke-miterlimit:4;stroke-dasharray:none;stroke-opacity:1;paint-order:normal" />
      <rect
         style="opacity:1;fill:#ffff00;fill-opacity:1;stroke:none;stroke-width:0.26458335;stroke-linecap:butt;stroke-linejoin:miter;stroke-miterlimit:4;stroke-dasharray:none;stroke-opacity:1;paint-order:normal"
         id="rect1016"
         width="5.8208337"
         height="5.8208337"
         x="1.0583344"
         y="248.84549"
         rx="5.8208337"
         ry="5.8208337" />
      <rect
         ry="5.8208337"
         rx="5.8208337"
         y="238.79042"
         x="1.0583334"
         height="5.8208337"
         width="5.8208337"
         id="rect1018"
         style="opacity:1;fill:#ffff00;fill-opacity:1;stroke:none;stroke-width:0.26458335;stroke-linecap:butt;stroke-linejoin:miter;stroke-miterlimit:4;stroke-dasharray:none;stroke-opacity:1;paint-order:normal" />
      <rect
         style="opacity:1;fill:#ff0000;fill-opacity:1;stroke:none;stroke-width:0.26458335;stroke-linecap:butt;stroke-linejoin:miter;stroke-miterlimit:4;stroke-dasharray:none;stroke-opacity:1;paint-order:normal"
         id="rect1026"
         width="5.8208337"
         height="5.8208337"
         x="1.0583363"
         y="279.00824"
         rx="5.8208337"
         ry="5.8208337" />
      <rect
         style="opacity:1;fill:#000000;fill-opacity:1;stroke:none;stroke-width:0.26458335;stroke-linecap:butt;stroke-linejoin:miter;stroke-miterlimit:4;stroke-dasharray:none;stroke-opacity:1;paint-order:normal"
         id="rect1032"
         width="1.0583334"
         height="1.0583334"
         x="3.4395835"
         y="261.28101"
         rx="1.0583334"
         ry="1.0583334" />
      <rect
         ry="1.0583334"
         rx="1.0583334"
         y="277.68527"
         x="3.439589"
         height="1.0583334"
         width="1.0583334"
         id="rect1034"
         style="opacity:1;fill:#000000;fill-opacity:1;stroke:none;stroke-width:0.26458335;stroke-linecap:butt;stroke-linejoin:miter;stroke-miterlimit:4;stroke-dasharray:none;stroke-opacity:1;paint-order:normal" />
      <rect
         ry="5.8208337"
         rx="5.8208337"
         y="285.35834"
         x="1.0583344"
         height="5.8208337"
         width="5.8208337"
         id="rect1089"
         style="opacity:1;fill:#ffa500;fill-opacity:1;stroke:none;stroke-width:0.26458335;stroke-linecap:butt;stroke-linejoin:miter;stroke-miterlimit:4;stroke-dasharray:none;stroke-opacity:1;paint-order:normal" />
      <rect
         style="opacity:1;fill:#ffa500;fill-opacity:1;stroke:none;stroke-width:0.26458335;stroke-linecap:butt;stroke-linejoin:miter;stroke-miterlimit:4;stroke-dasharray:none;stroke-opacity:1;paint-order:normal"
         id="rect1091"
         width="5.8208337"
         height="5.8208337"
         x="1.0583344"
         y="268.95392"
         rx="5.8208337"
         ry="5.8208337" />
    </g>
    <g
       id="g873"
       style="display:inline">
      <text
         xml:space="preserve"
         style="font-style:normal;font-variant:normal;font-weight:normal;font-stretch:normal;font-size:2.11666679px;line-height:1.25;font-family:'DejaVu Sans Mono';-inkscape-font-specification:'DejaVu Sans Mono, Normal';font-variant-ligatures:normal;font-variant-caps:normal;font-variant-numeric:normal;font-feature-settings:normal;text-align:center;letter-spacing:0px;word-spacing:0px;writing-mode:lr-tb;text-anchor:middle;fill:#dcdcdc;fill-opacity:1;stroke:none;stroke-width:0.26458335"
         x="3.9945049"
         y="260.22272"
         id="text1006"><tspan
           y="260.22272"
           x="3.9945049"
           id="tspan1119"
           sodipodi:role="line">HI</tspan></text>
      <text
         id="text1010"
         y="236.64516"
         x="4.0132999"
         style="font-style:normal;font-variant:normal;font-weight:normal;font-stretch:normal;font-size:2.11666679px;line-height:1.25;font-family:'DejaVu Sans Mono';-inkscape-font-specification:'DejaVu Sans Mono, Normal';font-variant-ligatures:normal;font-variant-caps:normal;font-variant-numeric:normal;font-feature-settings:normal;text-align:center;letter-spacing:0px;word-spacing:0px;writing-mode:lr-tb;text-anchor:middle;fill:#000000;fill-opacity:1;stroke:none;stroke-width:0.26458335"
         xml:space="preserve"><tspan
           sodipodi:role="line"
           id="tspan1008"
           x="4.0132999"
           y="236.64516">TOSS</tspan></text>
      <text
         xml:space="preserve"
         style="font-style:normal;font-variant:normal;font-weight:normal;font-stretch:normal;font-size:2.11666679px;line-height:1.25;font-family:'DejaVu Sans Mono';-inkscape-font-specification:'DejaVu Sans Mono, Normal';font-variant-ligatures:normal;font-variant-caps:normal;font-variant-numeric:normal;font-feature-settings:normal;text-align:center;letter-spacing:0px;word-spacing:0px;writing-mode:lr-tb;text-anchor:middle;fill:#b22222;fill-opacity:1;stroke:none;stroke-width:0.26458335"
         x="3.9080629"
         y="226.59085"
         id="text1014"><tspan
           sodipodi:role="line"
           id="tspan1012"
           x="3.9080629"
           y="226.59085">PROB</tspan></text>
      <text
         id="text1022"
         y="246.729"
         x="3.8963699"
         style="font-style:normal;font-variant:normal;font-weight:normal;font-stretch:normal;font-size:2.11666679px;line-height:1.25;font-family:'DejaVu Sans Mono';-inkscape-font-specification:'DejaVu Sans Mono, Normal';font-variant-ligatures:normal;font-variant-caps:normal;font-variant-numeric:normal;font-feature-settings:normal;text-align:center;letter-spacing:0px;word-spacing:0px;writing-mode:lr-tb;text-anchor:middle;fill:#000000;fill-opacity:1;stroke:none;stroke-width:0.26458335"
         xml:space="preserve"><tspan
           sodipodi:role="line"
           id="tspan1020"
           x="3.8963699"
           y="246.729">FLIP</tspan></text>
      <text
         id="text1030"
         y="277.15616"
         x="3.9126596"
         style="font-style:normal;font-variant:normal;font-weight:normal;font-stretch:normal;font-size:2.11666679px;line-height:1.25;font-family:'DejaVu Sans Mono';-inkscape-font-specification:'DejaVu Sans Mono, Normal';font-variant-ligatures:normal;font-variant-caps:normal;font-variant-numeric:normal;font-feature-settings:normal;text-align:center;letter-spacing:0px;word-spacing:0px;writing-mode:lr-tb;text-anchor:middle;fill:#dcdcdc;fill-opacity:1;stroke:none;stroke-width:0.26458335"
         xml:space="preserve"><tspan
           y="277.15616"
           x="3.9126596"
           id="tspan1121"
           sodipodi:role="line">LO</tspan></text>
      <text
         xml:space="preserve"
         style="font-style:normal;font-variant:normal;font-weight:normal;font-stretch:normal;font-size:2.11666679px;line-height:1.25;font-family:'DejaVu Sans Mono';-inkscape-font-specification:'DejaVu Sans Mono, Normal';font-variant-ligatures:normal;font-variant-caps:normal;font-variant-numeric:normal;font-feature-settings:normal;text-align:center;letter-spacing:0px;word-spacing:0px;writing-mode:lr-tb;text-anchor:middle;fill:#000000;fill-opacity:1;stroke:none;stroke-width:0.26458335"
         x="3.9268503"
         y="210.74582"
         id="text1066"><tspan
           y="210.74582"
           x="3.9268503"
           id="tspan1097"
           sodipodi:role="line">IN</tspan></text>
      <text
         xml:space="preserve"
         style="font-style:normal;font-variant:normal;font-weight:normal;font-stretch:normal;font-size:2.11666679px;line-height:1.25;font-family:'DejaVu Sans Mono';-inkscape-font-specification:'DejaVu Sans Mono, Normal';font-variant-ligatures:normal;font-variant-caps:normal;font-variant-numeric:normal;font-feature-settings:normal;text-align:center;letter-spacing:0px;word-spacing:0px;writing-mode:lr-tb;text-anchor:middle;fill:#000000;fill-opacity:1;stroke:none;stroke-width:0.26458335"
         x="3.9782209"
         y="256.75336"
         id="text1085"><tspan
           y="256.75336"
           x="3.9782209"
           id="tspan1087"
           sodipodi:role="line">GATE</tspan></text>
      <g
         aria-label="HI"
         style="font-style:normal;font-variant:normal;font-weight:normal;font-stretch:normal;font-size:2.11666679px;line-height:1.25;font-family:'DejaVu Sans Mono';-inkscape-font-specification:'DejaVu Sans Mono, Normal';font-variant-ligatures:normal;font-variant-caps:normal;font-variant-numeric:normal;font-feature-settings:normal;text-align:center;letter-spacing:0px;word-spacing:0px;writing-mode:lr-tb;text-anchor:middle;fill:#dcdcdc;fill-opacity:1;stroke:none;stroke-width:0.26458335"
         id="text958"
         transform="translate(0,-0.52916669)">
        <path
           d="m 2.862791,259.20883 h 0.2098063 v 0.63252 h 0.5715414 v -0.63252 H 3.853945 v 1.54306 H 3.6441387 v -0.73484 H 3.0725973 v 0.73484 H 2.862791 Z"
           id="path984"
           inkscape:connector-curvature="0" />
        <path
           d="m 4.2022442,259.20883 h 0.8567953 v 0.1757 H 4.735545 v 1.19166 h 0.3234945 v 0.1757 H 4.2022442 v -0.1757 h 0.3234944 v -1.19166 H 4.2022442 Z"
           id="path986"
           inkscape:connector-curvature="0" />
      </g>
      <g
         aria-label="TOSS"
         style="font-style:normal;font-variant:normal;font-weight:normal;font-stretch:normal;font-size:2.11666679px;line-height:1.25;font-family:'DejaVu Sans Mono';-inkscape-font-specification:'DejaVu Sans Mono, Normal';font-variant-ligatures:normal;font-variant-caps:normal;font-variant-numeric:normal;font-feature-settings:normal;text-align:center;letter-spacing:0px;word-spacing:0px;writing-mode:lr-tb;text-anchor:middle;fill:#000000;fill-opacity:1;stroke:none;stroke-width:0.26458335"
         id="text962"
         transform="translate(0,-0.52916669)">
        <path
           d="m 1.5152611,235.63126 h 1.1771892 v 0.1757 h -0.482658 v 1.36736 H 1.999986 v -1.36736 H 1.5152611 Z"
           id="path989"
           inkscape:connector-curvature="0" />
        <path
           d="m 3.675336,236.40434 q 0,-0.34003 -0.07028,-0.48576 -0.069247,-0.14573 -0.2284099,-0.14573 -0.1581299,0 -0.2284098,0.14573 -0.069247,0.14573 -0.069247,0.48576 0,0.33899 0.069247,0.48472 0.07028,0.14573 0.2284098,0.14573 0.1591634,0 0.2284099,-0.14469 0.07028,-0.14573 0.07028,-0.48576 z m 0.2180746,0 q 0,0.40307 -0.1281576,0.60151 -0.127124,0.19844 -0.3886068,0.19844 -0.2614827,0 -0.3886068,-0.19741 -0.127124,-0.1974 -0.127124,-0.60254 0,-0.40411 0.127124,-0.60255 0.1281576,-0.19844 0.3886068,-0.19844 0.2614828,0 0.3886068,0.19844 0.1281576,0.19844 0.1281576,0.60255 z"
           id="path991"
           inkscape:connector-curvature="0" />
        <path
           d="m 5.0592309,235.68397 v 0.21187 q -0.095085,-0.061 -0.1912028,-0.092 -0.095085,-0.031 -0.1922363,-0.031 -0.1477947,0 -0.2335775,0.0692 -0.085783,0.0682 -0.085783,0.185 0,0.10232 0.05581,0.15606 0.056844,0.0538 0.2108399,0.0899 l 0.109554,0.0248 q 0.2170411,0.0507 0.3162598,0.15917 0.099219,0.10852 0.099219,0.29559 0,0.22014 -0.1364258,0.33589 -0.1364258,0.11576 -0.396875,0.11576 -0.1085206,0 -0.2180746,-0.0238 -0.109554,-0.0227 -0.2201416,-0.0693 v -0.22221 q 0.1188558,0.0754 0.2242757,0.11059 0.1064535,0.0351 0.2139405,0.0351 0.1581299,0 0.2459798,-0.0703 0.08785,-0.0713 0.08785,-0.19844 0,-0.11575 -0.060978,-0.17673 -0.059945,-0.061 -0.2098063,-0.094 l -0.1116211,-0.0258 q -0.214974,-0.0486 -0.3121257,-0.14676 -0.097152,-0.0982 -0.097152,-0.26355 0,-0.20671 0.1384929,-0.33073 0.1395264,-0.12506 0.3700033,-0.12506 0.088883,0 0.1870687,0.0207 0.098185,0.0196 0.2067057,0.0599 z"
           id="path993"
           inkscape:connector-curvature="0" />
        <path
           d="m 6.3325382,235.68397 v 0.21187 q -0.095085,-0.061 -0.1912028,-0.092 -0.095085,-0.031 -0.1922363,-0.031 -0.1477946,0 -0.2335775,0.0692 -0.085783,0.0682 -0.085783,0.185 0,0.10232 0.055811,0.15606 0.056844,0.0538 0.2108398,0.0899 l 0.1095541,0.0248 q 0.217041,0.0507 0.3162597,0.15917 0.099219,0.10852 0.099219,0.29559 0,0.22014 -0.1364258,0.33589 -0.1364258,0.11576 -0.396875,0.11576 -0.1085205,0 -0.2180746,-0.0238 -0.109554,-0.0227 -0.2201416,-0.0693 v -0.22221 q 0.1188558,0.0754 0.2242757,0.11059 0.1064535,0.0351 0.2139405,0.0351 0.1581299,0 0.2459798,-0.0703 0.08785,-0.0713 0.08785,-0.19844 0,-0.11575 -0.060978,-0.17673 -0.059945,-0.061 -0.2098064,-0.094 l -0.1116211,-0.0258 q -0.2149739,-0.0486 -0.3121256,-0.14676 -0.097152,-0.0982 -0.097152,-0.26355 0,-0.20671 0.1384928,-0.33073 0.1395264,-0.12506 0.3700033,-0.12506 0.088883,0 0.1870687,0.0207 0.098185,0.0196 0.2067057,0.0599 z"
           id="path995"
           inkscape:connector-curvature="0" />
      </g>
      <g
         aria-label="PROB"
         style="font-style:normal;font-variant:normal;font-weight:normal;font-stretch:normal;font-size:2.11666679px;line-height:1.25;font-family:'DejaVu Sans Mono';-inkscape-font-specification:'DejaVu Sans Mono, Normal';font-variant-ligatures:normal;font-variant-caps:normal;font-variant-numeric:normal;font-feature-settings:normal;text-align:center;letter-spacing:0px;word-spacing:0px;writing-mode:lr-tb;text-anchor:middle;fill:#b22222;fill-opacity:1;stroke:none;stroke-width:0.26458335"
         id="text966"
         transform="translate(0,-0.52916669)">
        <path
           d="m 1.7738262,225.74852 v 0.57981 h 0.2418457 q 0.144694,0 0.2253092,-0.0765 0.081649,-0.0765 0.081649,-0.21394 0,-0.13746 -0.080615,-0.21291 -0.080615,-0.0765 -0.2263428,-0.0765 z m -0.2087728,-0.17157 h 0.4506185 q 0.2583821,0 0.3917074,0.11782 0.1333252,0.11679 0.1333252,0.34314 0,0.22841 -0.1333252,0.34519 -0.1322917,0.11679 -0.3917074,0.11679 H 1.7738262 v 0.62012 H 1.5650534 Z"
           id="path998"
           inkscape:connector-curvature="0" />
        <path
           d="m 3.4202373,226.39137 q 0.080615,0.0207 0.1374594,0.0786 0.056844,0.0568 0.1415934,0.22841 l 0.2098063,0.42168 H 3.6848207 l -0.1839681,-0.38964 q -0.079582,-0.1664 -0.1436605,-0.21394 -0.063045,-0.0486 -0.1653646,-0.0486 h -0.199471 v 0.65216 H 2.7825501 v -1.54306 h 0.429948 q 0.254248,0 0.3896403,0.11472 0.1353923,0.11473 0.1353923,0.33177 0,0.15296 -0.083716,0.25011 -0.082682,0.0961 -0.2335775,0.11782 z m -0.4278808,-0.64285 v 0.54777 h 0.2284098 q 0.1498617,0 0.2232422,-0.0672 0.073381,-0.0672 0.073381,-0.20567 0,-0.13333 -0.078548,-0.20361 -0.077515,-0.0713 -0.2263428,-0.0713 z"
           id="path1000"
           inkscape:connector-curvature="0" />
        <path
           d="m 4.8434063,226.35003 q 0,-0.34003 -0.07028,-0.48576 -0.069246,-0.14572 -0.2284099,-0.14572 -0.1581299,0 -0.2284098,0.14572 -0.069246,0.14573 -0.069246,0.48576 0,0.339 0.069246,0.48473 0.07028,0.14572 0.2284098,0.14572 0.1591635,0 0.2284099,-0.14469 0.07028,-0.14573 0.07028,-0.48576 z m 0.2180746,0 q 0,0.40308 -0.1281576,0.60152 -0.127124,0.19843 -0.3886068,0.19843 -0.2614827,0 -0.3886068,-0.1974 -0.127124,-0.19741 -0.127124,-0.60255 0,-0.40411 0.127124,-0.60255 0.1281576,-0.19843 0.3886068,-0.19843 0.2614828,0 0.3886068,0.19843 0.1281576,0.19844 0.1281576,0.60255 z"
           id="path1002"
           inkscape:connector-curvature="0" />
        <path
           d="m 5.5627423,226.3831 v 0.56534 h 0.2470133 q 0.1819011,0 0.2594157,-0.063 0.077515,-0.0641 0.077515,-0.20981 0,-0.15089 -0.081649,-0.22117 -0.081649,-0.0713 -0.2552816,-0.0713 z m 0,-0.63458 v 0.46509 h 0.2428792 q 0.1508952,0 0.2180746,-0.0579 0.068213,-0.0579 0.068213,-0.18707 0,-0.11679 -0.067179,-0.16847 -0.066146,-0.0517 -0.2191081,-0.0517 z m -0.2098064,-0.17157 h 0.4568197 q 0.2366781,0 0.3648357,0.10232 0.1281575,0.10232 0.1281575,0.28939 0,0.14159 -0.068213,0.22324 -0.067179,0.0816 -0.2025716,0.10232 0.1519287,0.0227 0.2377116,0.13023 0.086816,0.10645 0.086816,0.27181 0,0.20981 -0.1374593,0.3173 -0.1374593,0.10645 -0.4092774,0.10645 H 5.3529359 Z"
           id="path1004"
           inkscape:connector-curvature="0" />
      </g>
      <g
         aria-label="FLIP"
         style="font-style:normal;font-variant:normal;font-weight:normal;font-stretch:normal;font-size:2.11666679px;line-height:1.25;font-family:'DejaVu Sans Mono';-inkscape-font-specification:'DejaVu Sans Mono, Normal';font-variant-ligatures:normal;font-variant-caps:normal;font-variant-numeric:normal;font-feature-settings:normal;text-align:center;letter-spacing:0px;word-spacing:0px;writing-mode:lr-tb;text-anchor:middle;fill:#000000;fill-opacity:1;stroke:none;stroke-width:0.26458335"
         id="text970"
         transform="translate(0,-0.52916669)">
        <path
           d="m 1.5905674,245.71511 h 0.9084717 v 0.17569 H 1.8003737 v 0.45476 h 0.6335531 v 0.1757 H 1.8003737 v 0.7369 H 1.5905674 Z"
           id="path1007"
           inkscape:connector-curvature="0" />
        <path
           d="m 2.8452712,245.71511 h 0.2098063 v 1.36735 h 0.7451742 v 0.1757 H 2.8452712 Z"
           id="path1009"
           inkscape:connector-curvature="0" />
        <path
           d="m 4.1041091,245.71511 h 0.8567953 v 0.17569 H 4.6374099 v 1.19166 h 0.3234945 v 0.1757 H 4.1041091 v -0.1757 H 4.4276036 V 245.8908 H 4.1041091 Z"
           id="path1011"
           inkscape:connector-curvature="0" />
        <path
           d="m 5.5820551,245.88667 v 0.57981 h 0.2418457 q 0.1446941,0 0.2253093,-0.0765 0.081649,-0.0765 0.081649,-0.21394 0,-0.13746 -0.080615,-0.21291 -0.080615,-0.0765 -0.2263428,-0.0765 z m -0.2087728,-0.17156 h 0.4506185 q 0.2583822,0 0.3917074,0.11782 0.1333252,0.11679 0.1333252,0.34313 0,0.22841 -0.1333252,0.3452 -0.1322917,0.11679 -0.3917074,0.11679 H 5.5820551 v 0.62011 H 5.3732823 Z"
           id="path1013"
           inkscape:connector-curvature="0" />
      </g>
      <g
         aria-label="LO"
         style="font-style:normal;font-variant:normal;font-weight:normal;font-stretch:normal;font-size:2.11666679px;line-height:1.25;font-family:'DejaVu Sans Mono';-inkscape-font-specification:'DejaVu Sans Mono, Normal';font-variant-ligatures:normal;font-variant-caps:normal;font-variant-numeric:normal;font-feature-settings:normal;text-align:center;letter-spacing:0px;word-spacing:0px;writing-mode:lr-tb;text-anchor:middle;fill:#dcdcdc;fill-opacity:1;stroke:none;stroke-width:0.26458335"
         id="text974">
        <path
           d="m 2.8615609,275.6131 h 0.2098064 v 1.36736 h 0.7451742 v 0.1757 H 2.8615609 Z"
           id="path1016"
           inkscape:connector-curvature="0" />
        <path
           d="m 4.8480031,276.38618 q 0,-0.34003 -0.07028,-0.48576 -0.069246,-0.14573 -0.2284098,-0.14573 -0.1581299,0 -0.2284099,0.14573 -0.069246,0.14573 -0.069246,0.48576 0,0.339 0.069246,0.48472 0.07028,0.14573 0.2284099,0.14573 0.1591634,0 0.2284098,-0.14469 0.07028,-0.14573 0.07028,-0.48576 z m 0.2180745,0 q 0,0.40308 -0.1281575,0.60151 -0.1271241,0.19844 -0.3886068,0.19844 -0.2614828,0 -0.3886068,-0.1974 -0.127124,-0.19741 -0.127124,-0.60255 0,-0.40411 0.127124,-0.60255 0.1281576,-0.19844 0.3886068,-0.19844 0.2614827,0 0.3886068,0.19844 0.1281575,0.19844 0.1281575,0.60255 z"
           id="path1018"
           inkscape:connector-curvature="0" />
      </g>
      <g
         aria-label="IN"
         style="font-style:normal;font-variant:normal;font-weight:normal;font-stretch:normal;font-size:2.11666679px;line-height:1.25;font-family:'DejaVu Sans Mono';-inkscape-font-specification:'DejaVu Sans Mono, Normal';font-variant-ligatures:normal;font-variant-caps:normal;font-variant-numeric:normal;font-feature-settings:normal;text-align:center;letter-spacing:0px;word-spacing:0px;writing-mode:lr-tb;text-anchor:middle;fill:#000000;fill-opacity:1;stroke:none;stroke-width:0.26458335"
         id="text978">
        <path
           d="m 2.8612822,209.20276 h 0.8567953 v 0.1757 H 3.394583 v 1.19166 h 0.3234945 v 0.1757 H 2.8612822 v -0.1757 h 0.3234945 v -1.19166 H 2.8612822 Z"
           id="path1021"
           inkscape:connector-curvature="0" />
        <path
           d="m 4.0705108,209.20276 h 0.2645833 l 0.5208985,1.27021 v -1.27021 h 0.2015381 v 1.54306 H 4.7929473 l -0.5208984,-1.27021 v 1.27021 H 4.0705108 Z"
           id="path1023"
           inkscape:connector-curvature="0" />
      </g>
      <g
         aria-label="GATE"
         style="font-style:normal;font-variant:normal;font-weight:normal;font-stretch:normal;font-size:2.11666679px;line-height:1.25;font-family:'DejaVu Sans Mono';-inkscape-font-specification:'DejaVu Sans Mono, Normal';font-variant-ligatures:normal;font-variant-caps:normal;font-variant-numeric:normal;font-feature-settings:normal;text-align:center;letter-spacing:0px;word-spacing:0px;writing-mode:lr-tb;text-anchor:middle;fill:#000000;fill-opacity:1;stroke:none;stroke-width:0.26458335"
         id="text982"
         transform="translate(0,-0.52916669)">
        <path
           d="m 2.5726219,257.15541 q -0.083716,0.0775 -0.1891358,0.11782 -0.1043864,0.0393 -0.2263427,0.0393 -0.2935222,0 -0.4568197,-0.2098 -0.1632976,-0.21084 -0.1632976,-0.59015 0,-0.37827 0.1653646,-0.58911 0.1653646,-0.21187 0.4599203,-0.21187 0.097152,0 0.1860352,0.0279 0.088883,0.0269 0.1715657,0.0827 v 0.21394 q -0.083716,-0.0796 -0.1715657,-0.11679 -0.08785,-0.0382 -0.1860352,-0.0382 -0.2036052,0 -0.3059245,0.15813 -0.1012858,0.15709 -0.1012858,0.47335 0,0.32143 0.098185,0.47646 0.099219,0.154 0.3038575,0.154 0.069246,0 0.1209228,-0.0155 0.05271,-0.0165 0.095085,-0.0506 v -0.41445 H 2.1488751 v -0.17156 h 0.4237468 z"
           id="path1026"
           inkscape:connector-curvature="0" />
        <path
           d="m 3.3415672,255.92344 -0.2201416,0.78962 h 0.4402832 z m -0.1260905,-0.18397 h 0.2532145 l 0.4723227,1.54306 H 3.7250064 L 3.6113182,256.88049 H 3.0707827 l -0.1116211,0.40204 H 2.7431541 Z"
           id="path1028"
           inkscape:connector-curvature="0" />
        <path
           d="m 4.0267967,255.73947 h 1.1771892 v 0.1757 H 4.721328 v 1.36736 H 4.5115217 v -1.36736 h -0.484725 z"
           id="path1030"
           inkscape:connector-curvature="0" />
        <path
           d="m 5.4551333,255.73947 h 0.9157065 v 0.1757 H 5.6639061 v 0.45682 h 0.6759278 v 0.1757 H 5.6639061 v 0.55914 h 0.7265707 v 0.1757 H 5.4551333 Z"
           id="path1032"
           inkscape:connector-curvature="0" />
      </g>
    </g>
  </g>
</svg>
