<?xml version="1.0" encoding="UTF-8" standalone="no"?>
<!-- Created with Inkscape (http://www.inkscape.org/) -->

<svg
   xmlns:dc="http://purl.org/dc/elements/1.1/"
   xmlns:cc="http://creativecommons.org/ns#"
   xmlns:rdf="http://www.w3.org/1999/02/22-rdf-syntax-ns#"
   xmlns:svg="http://www.w3.org/2000/svg"
   xmlns="http://www.w3.org/2000/svg"
   xmlns:sodipodi="http://sodipodi.sourceforge.net/DTD/sodipodi-0.dtd"
   xmlns:inkscape="http://www.inkscape.org/namespaces/inkscape"
   width="90"
   height="380"
   viewBox="0 0 23.812501 100.54167"
   version="1.1"
   id="svg8"
   inkscape:version="0.92.2 (5c3e80d, 2017-08-06)"
   sodipodi:docname="panel6HE.svg">
  <defs
     id="defs2" />
  <sodipodi:namedview
     id="base"
     pagecolor="#b3b1b0"
     bordercolor="#666666"
     borderopacity="1.0"
     inkscape:pageopacity="0.68235294"
     inkscape:pageshadow="2"
     inkscape:zoom="7.7976008"
     inkscape:cx="86.916099"
     inkscape:cy="397.78015"
     inkscape:document-units="px"
     inkscape:current-layer="g1796"
     showgrid="false"
     units="px"
     inkscape:snap-bbox="true"
     inkscape:snap-page="true"
     inkscape:bbox-nodes="true"
     inkscape:snap-bbox-edge-midpoints="true"
     inkscape:window-width="1730"
     inkscape:window-height="900"
     inkscape:window-x="0"
     inkscape:window-y="0"
     inkscape:window-maximized="0"
     inkscape:showpageshadow="false"
     showborder="true"
     inkscape:pagecheckerboard="true">
    <inkscape:grid
       type="xygrid"
       id="grid853" />
  </sodipodi:namedview>
  <metadata
     id="metadata5">
    <rdf:RDF>
      <cc:Work
         rdf:about="">
        <dc:format>image/svg+xml</dc:format>
        <dc:type
           rdf:resource="http://purl.org/dc/dcmitype/StillImage" />
        <dc:title></dc:title>
      </cc:Work>
    </rdf:RDF>
  </metadata>
  <g
     style="display:inline"
     transform="translate(0,-196.45832)"
     id="g1796"
     inkscape:label="single">
    <path
       style="opacity:1;vector-effect:none;fill:#808080;fill-opacity:1;fill-rule:evenodd;stroke:none;stroke-width:0.21073182;stroke-linecap:butt;stroke-linejoin:round;stroke-miterlimit:4;stroke-dasharray:none;stroke-dashoffset:0;stroke-opacity:1;paint-order:normal"
       d="m 0,365 v 15 H 30 60 90 V 365 H 60 30 Z m 7.5,4.25 h 15 c 1.8005,0 3.25,1.44951 3.25,3.25 0,1.80049 -1.4495,3.25 -3.25,3.25 h -15 c -1.8005,0 -3.25,-1.44951 -3.25,-3.25 0,-1.80049 1.4495,-3.25 3.25,-3.25 z m 30,0 h 15 c 1.800499,0 3.25,1.44951 3.25,3.25 0,1.80049 -1.449501,3.25 -3.25,3.25 h -15 c -1.8005,0 -3.25,-1.44951 -3.25,-3.25 0,-1.80049 1.4495,-3.25 3.25,-3.25 z m 30,0 h 15 c 1.800499,0 3.25,1.44951 3.25,3.25 0,1.80049 -1.449501,3.25 -3.25,3.25 h -15 c -1.800499,0 -3.25,-1.44951 -3.25,-3.25 0,-1.80049 1.449501,-3.25 3.25,-3.25 z"
       transform="matrix(0.26458334,0,0,0.26458334,0,196.45832)"
       id="path1187"
       inkscape:connector-curvature="0" />
    <path
       id="path1189"
       style="opacity:1;vector-effect:none;fill:#808080;fill-opacity:1;fill-rule:evenodd;stroke:none;stroke-width:0.32985771;stroke-linecap:butt;stroke-linejoin:round;stroke-miterlimit:4;stroke-dasharray:none;stroke-dashoffset:0;stroke-opacity:1;paint-order:normal"
       d="m 11.90625,200.42707 h 11.906251 v 92.60417 H 11.90625 Z m -11.90625,0 h 11.90625 v 92.60417 H 0 Z"
       inkscape:connector-curvature="0" />
    <path
       style="opacity:1;vector-effect:none;fill:#808080;fill-opacity:1;fill-rule:evenodd;stroke:none;stroke-width:0.21073182;stroke-linecap:butt;stroke-linejoin:round;stroke-miterlimit:4;stroke-dasharray:none;stroke-dashoffset:0;stroke-opacity:1;paint-order:normal"
       d="M 0,0 V 15 H 30 60 90 V 0 H 60 30 Z m 7.5,4.25 h 15 c 1.8005,0 3.25,1.4494709 3.25,3.25 0,1.8004913 -1.4495,3.25 -3.25,3.25 H 7.5 C 5.6995,10.75 4.25,9.3004913 4.25,7.5 4.25,5.6994709 5.6995,4.25 7.5,4.25 Z m 30,0 h 15 c 1.800499,0 3.25,1.4494709 3.25,3.25 0,1.8004913 -1.449501,3.25 -3.25,3.25 h -15 c -1.8005,0 -3.25,-1.4495087 -3.25,-3.25 0,-1.8005291 1.4495,-3.25 3.25,-3.25 z m 30,0 h 15 c 1.800499,0 3.25,1.4494709 3.25,3.25 0,1.8004913 -1.449501,3.25 -3.25,3.25 h -15 c -1.800499,0 -3.25,-1.4495087 -3.25,-3.25 0,-1.8005291 1.449501,-3.25 3.25,-3.25 z"
       transform="matrix(0.26458334,0,0,0.26458334,0,196.45832)"
       id="path1191"
       inkscape:connector-curvature="0" />
    <path
       id="path1193"
       style="opacity:1;vector-effect:none;fill:#696969;fill-opacity:1;fill-rule:evenodd;stroke:none;stroke-width:0.32796741;stroke-linecap:butt;stroke-linejoin:round;stroke-miterlimit:4;stroke-dasharray:none;stroke-dashoffset:0;stroke-opacity:1;paint-order:normal"
       d="m 11.90625,200.95623 h 11.906251 v 91.54584 H 11.90625 Z m -11.90625,0 h 11.90625 v 91.54584 H 0 Z"
       inkscape:connector-curvature="0" />
  </g>
</svg>
