<?xml version="1.0" encoding="UTF-8" standalone="no"?>
<!-- Created with Inkscape (http://www.inkscape.org/) -->

<svg
   xmlns:dc="http://purl.org/dc/elements/1.1/"
   xmlns:cc="http://creativecommons.org/ns#"
   xmlns:rdf="http://www.w3.org/1999/02/22-rdf-syntax-ns#"
   xmlns:svg="http://www.w3.org/2000/svg"
   xmlns="http://www.w3.org/2000/svg"
   xmlns:sodipodi="http://sodipodi.sourceforge.net/DTD/sodipodi-0.dtd"
   xmlns:inkscape="http://www.inkscape.org/namespaces/inkscape"
   width="90"
   height="380"
   viewBox="0 0 23.812501 100.54167"
   version="1.1"
   id="svg8"
   inkscape:version="0.92.2 (5c3e80d, 2017-08-06)"
   sodipodi:docname="SumIt.svg">
  <defs
     id="defs2" />
  <sodipodi:namedview
     id="base"
     pagecolor="#b3b1b0"
     bordercolor="#666666"
     borderopacity="1.0"
     inkscape:pageopacity="0.68235294"
     inkscape:pageshadow="2"
     inkscape:zoom="2.8284271"
     inkscape:cx="128.08731"
     inkscape:cy="260.25691"
     inkscape:document-units="px"
     inkscape:current-layer="g1796"
     showgrid="false"
     units="px"
     inkscape:snap-bbox="true"
     inkscape:snap-page="true"
     inkscape:bbox-nodes="true"
     inkscape:snap-bbox-edge-midpoints="true"
     inkscape:window-width="1730"
     inkscape:window-height="940"
     inkscape:window-x="115"
     inkscape:window-y="24"
     inkscape:window-maximized="0"
     inkscape:showpageshadow="false"
     showborder="true"
     inkscape:pagecheckerboard="true"
     showguides="true"
     inkscape:guide-bbox="true">
    <inkscape:grid
       type="xygrid"
       id="grid853" />
    <sodipodi:guide
       position="7.9364668,105.98837"
       orientation="1,0"
       id="guide1646"
       inkscape:locked="false" />
    <sodipodi:guide
       position="3.9687502,21.431251"
       orientation="1,0"
       id="guide946"
       inkscape:locked="false" />
    <sodipodi:guide
       position="11.90625,1.2444444e-006"
       orientation="1,0"
       id="guide949"
       inkscape:locked="false" />
  </sodipodi:namedview>
  <metadata
     id="metadata5">
    <rdf:RDF>
      <cc:Work
         rdf:about="">
        <dc:format>image/svg+xml</dc:format>
        <dc:type
           rdf:resource="http://purl.org/dc/dcmitype/StillImage" />
        <dc:title />
      </cc:Work>
    </rdf:RDF>
  </metadata>
  <g
     style="display:inline"
     transform="translate(0,-196.45832)"
     id="g1796"
     inkscape:label="single">
    <rect
       style="display:inline;opacity:1;fill:#ffff00;fill-opacity:1;stroke:none;stroke-width:0.26458335;stroke-linecap:butt;stroke-linejoin:miter;stroke-miterlimit:4;stroke-dasharray:none;stroke-opacity:1;paint-order:normal"
       id="rect877"
       width="5.8208337"
       height="5.8208337"
       x="16.933336"
       y="281.65414"
       rx="5.8208337"
       ry="5.8208337" />
    <rect
       style="display:inline;opacity:1;fill:#ffff00;fill-opacity:1;stroke:none;stroke-width:0.26458335;stroke-linecap:butt;stroke-linejoin:miter;stroke-miterlimit:4;stroke-dasharray:none;stroke-opacity:1;paint-order:normal"
       id="rect879"
       width="5.8208337"
       height="5.8208337"
       x="1.0583363"
       y="281.65414"
       rx="5.8208337"
       ry="5.8208337" />
    <rect
       ry="5.8208337"
       rx="5.8208337"
       y="281.65414"
       x="8.9958353"
       height="5.8208337"
       width="5.8208337"
       id="rect1309"
       style="display:inline;opacity:1;fill:#ffff00;fill-opacity:1;stroke:none;stroke-width:0.26458335;stroke-linecap:butt;stroke-linejoin:miter;stroke-miterlimit:4;stroke-dasharray:none;stroke-opacity:1;paint-order:normal" />
    <rect
       style="display:none;opacity:1;fill:#00bfff;fill-opacity:1;stroke:none;stroke-width:0.26458335;stroke-linecap:butt;stroke-linejoin:miter;stroke-miterlimit:4;stroke-dasharray:none;stroke-opacity:1;paint-order:normal"
       id="rect849"
       width="5.8208337"
       height="5.8208337"
       x="1.0583334"
       y="203.33733"
       rx="5.8208337"
       ry="5.8208337" />
    <rect
       ry="5.8208337"
       rx="5.8208337"
       y="203.33794"
       x="13.758337"
       height="5.8208337"
       width="5.8208337"
       id="rect851"
       style="display:none;opacity:1;fill:#ff0000;fill-opacity:1;stroke:none;stroke-width:0.26458335;stroke-linecap:butt;stroke-linejoin:miter;stroke-miterlimit:4;stroke-dasharray:none;stroke-opacity:1;paint-order:normal" />
    <rect
       ry="5.8208337"
       rx="5.8208337"
       y="203.33733"
       x="7.4083376"
       height="5.8208337"
       width="5.8208337"
       id="rect853"
       style="display:none;opacity:1;fill:#ffff00;fill-opacity:1;stroke:none;stroke-width:0.26458335;stroke-linecap:butt;stroke-linejoin:miter;stroke-miterlimit:4;stroke-dasharray:none;stroke-opacity:1;paint-order:normal" />
    <rect
       ry="5.8208337"
       rx="5.8208337"
       y="212.86227"
       x="1.0583334"
       height="5.8208337"
       width="5.8208337"
       id="rect1119"
       style="display:none;opacity:1;fill:#00bfff;fill-opacity:1;stroke:none;stroke-width:0.26458335;stroke-linecap:butt;stroke-linejoin:miter;stroke-miterlimit:4;stroke-dasharray:none;stroke-opacity:1;paint-order:normal" />
    <rect
       style="display:none;opacity:1;fill:#ff0000;fill-opacity:1;stroke:none;stroke-width:0.26458335;stroke-linecap:butt;stroke-linejoin:miter;stroke-miterlimit:4;stroke-dasharray:none;stroke-opacity:1;paint-order:normal"
       id="rect1121"
       width="5.8208337"
       height="5.8208337"
       x="13.758337"
       y="212.86288"
       rx="5.8208337"
       ry="5.8208337" />
    <rect
       style="display:none;opacity:1;fill:#ffff00;fill-opacity:1;stroke:none;stroke-width:0.26458335;stroke-linecap:butt;stroke-linejoin:miter;stroke-miterlimit:4;stroke-dasharray:none;stroke-opacity:1;paint-order:normal"
       id="rect1123"
       width="5.8208337"
       height="5.8208337"
       x="7.4083376"
       y="212.86227"
       rx="5.8208337"
       ry="5.8208337" />
    <rect
       ry="5.8208337"
       rx="5.8208337"
       y="222.3873"
       x="1.0583334"
       height="5.8208337"
       width="5.8208337"
       id="rect1137"
       style="display:none;opacity:1;fill:#00bfff;fill-opacity:1;stroke:none;stroke-width:0.26458335;stroke-linecap:butt;stroke-linejoin:miter;stroke-miterlimit:4;stroke-dasharray:none;stroke-opacity:1;paint-order:normal" />
    <rect
       style="display:none;opacity:1;fill:#ff0000;fill-opacity:1;stroke:none;stroke-width:0.26458335;stroke-linecap:butt;stroke-linejoin:miter;stroke-miterlimit:4;stroke-dasharray:none;stroke-opacity:1;paint-order:normal"
       id="rect1139"
       width="5.8208337"
       height="5.8208337"
       x="13.758337"
       y="222.38791"
       rx="5.8208337"
       ry="5.8208337" />
    <rect
       style="display:none;opacity:1;fill:#ffff00;fill-opacity:1;stroke:none;stroke-width:0.26458335;stroke-linecap:butt;stroke-linejoin:miter;stroke-miterlimit:4;stroke-dasharray:none;stroke-opacity:1;paint-order:normal"
       id="rect1141"
       width="5.8208337"
       height="5.8208337"
       x="7.4083376"
       y="222.3873"
       rx="5.8208337"
       ry="5.8208337" />
    <rect
       style="display:none;opacity:1;fill:#00bfff;fill-opacity:1;stroke:none;stroke-width:0.26458335;stroke-linecap:butt;stroke-linejoin:miter;stroke-miterlimit:4;stroke-dasharray:none;stroke-opacity:1;paint-order:normal"
       id="rect1155"
       width="5.8208337"
       height="5.8208337"
       x="1.0583334"
       y="231.91225"
       rx="5.8208337"
       ry="5.8208337" />
    <rect
       ry="5.8208337"
       rx="5.8208337"
       y="231.91286"
       x="13.758337"
       height="5.8208337"
       width="5.8208337"
       id="rect1157"
       style="display:none;opacity:1;fill:#ff0000;fill-opacity:1;stroke:none;stroke-width:0.26458335;stroke-linecap:butt;stroke-linejoin:miter;stroke-miterlimit:4;stroke-dasharray:none;stroke-opacity:1;paint-order:normal" />
    <rect
       ry="5.8208337"
       rx="5.8208337"
       y="231.91225"
       x="7.4083376"
       height="5.8208337"
       width="5.8208337"
       id="rect1159"
       style="display:none;opacity:1;fill:#ffff00;fill-opacity:1;stroke:none;stroke-width:0.26458335;stroke-linecap:butt;stroke-linejoin:miter;stroke-miterlimit:4;stroke-dasharray:none;stroke-opacity:1;paint-order:normal" />
    <rect
       ry="5.8208337"
       rx="5.8208337"
       y="241.43735"
       x="1.0583334"
       height="5.8208337"
       width="5.8208337"
       id="rect1173"
       style="display:none;opacity:1;fill:#00bfff;fill-opacity:1;stroke:none;stroke-width:0.26458335;stroke-linecap:butt;stroke-linejoin:miter;stroke-miterlimit:4;stroke-dasharray:none;stroke-opacity:1;paint-order:normal" />
    <rect
       style="display:none;opacity:1;fill:#ff0000;fill-opacity:1;stroke:none;stroke-width:0.26458335;stroke-linecap:butt;stroke-linejoin:miter;stroke-miterlimit:4;stroke-dasharray:none;stroke-opacity:1;paint-order:normal"
       id="rect1175"
       width="5.8208337"
       height="5.8208337"
       x="13.758337"
       y="241.43796"
       rx="5.8208337"
       ry="5.8208337" />
    <rect
       style="display:none;opacity:1;fill:#ffff00;fill-opacity:1;stroke:none;stroke-width:0.26458335;stroke-linecap:butt;stroke-linejoin:miter;stroke-miterlimit:4;stroke-dasharray:none;stroke-opacity:1;paint-order:normal"
       id="rect1177"
       width="5.8208337"
       height="5.8208337"
       x="7.4083376"
       y="241.43735"
       rx="5.8208337"
       ry="5.8208337" />
    <rect
       style="display:none;opacity:1;fill:#00bfff;fill-opacity:1;stroke:none;stroke-width:0.26458335;stroke-linecap:butt;stroke-linejoin:miter;stroke-miterlimit:4;stroke-dasharray:none;stroke-opacity:1;paint-order:normal"
       id="rect1191"
       width="5.8208337"
       height="5.8208337"
       x="1.0583334"
       y="250.96219"
       rx="5.8208337"
       ry="5.8208337" />
    <rect
       ry="5.8208337"
       rx="5.8208337"
       y="250.96271"
       x="13.758337"
       height="5.8208337"
       width="5.8208337"
       id="rect1193"
       style="display:none;opacity:1;fill:#ff0000;fill-opacity:1;stroke:none;stroke-width:0.26458335;stroke-linecap:butt;stroke-linejoin:miter;stroke-miterlimit:4;stroke-dasharray:none;stroke-opacity:1;paint-order:normal" />
    <rect
       ry="5.8208337"
       rx="5.8208337"
       y="250.96216"
       x="7.4083376"
       height="5.8208337"
       width="5.8208337"
       id="rect1195"
       style="display:none;opacity:1;fill:#ffff00;fill-opacity:1;stroke:none;stroke-width:0.26458335;stroke-linecap:butt;stroke-linejoin:miter;stroke-miterlimit:4;stroke-dasharray:none;stroke-opacity:1;paint-order:normal" />
    <rect
       style="display:none;opacity:1;fill:#00bfff;fill-opacity:1;stroke:none;stroke-width:0.26458335;stroke-linecap:butt;stroke-linejoin:miter;stroke-miterlimit:4;stroke-dasharray:none;stroke-opacity:1;paint-order:normal"
       id="rect1209"
       width="5.8208337"
       height="5.8208337"
       x="1.0583334"
       y="260.48703"
       rx="5.8208337"
       ry="5.8208337" />
    <rect
       ry="5.8208337"
       rx="5.8208337"
       y="260.48758"
       x="13.758337"
       height="5.8208337"
       width="5.8208337"
       id="rect1211"
       style="display:none;opacity:1;fill:#ff0000;fill-opacity:1;stroke:none;stroke-width:0.26458335;stroke-linecap:butt;stroke-linejoin:miter;stroke-miterlimit:4;stroke-dasharray:none;stroke-opacity:1;paint-order:normal" />
    <rect
       ry="5.8208337"
       rx="5.8208337"
       y="260.487"
       x="7.4083376"
       height="5.8208337"
       width="5.8208337"
       id="rect1213"
       style="display:none;opacity:1;fill:#ffff00;fill-opacity:1;stroke:none;stroke-width:0.26458335;stroke-linecap:butt;stroke-linejoin:miter;stroke-miterlimit:4;stroke-dasharray:none;stroke-opacity:1;paint-order:normal" />
    <rect
       ry="5.8208337"
       rx="5.8208337"
       y="270.01193"
       x="1.0583334"
       height="5.8208337"
       width="5.8208337"
       id="rect1227"
       style="display:none;opacity:1;fill:#00bfff;fill-opacity:1;stroke:none;stroke-width:0.26458335;stroke-linecap:butt;stroke-linejoin:miter;stroke-miterlimit:4;stroke-dasharray:none;stroke-opacity:1;paint-order:normal" />
    <rect
       style="display:none;opacity:1;fill:#ff0000;fill-opacity:1;stroke:none;stroke-width:0.26458335;stroke-linecap:butt;stroke-linejoin:miter;stroke-miterlimit:4;stroke-dasharray:none;stroke-opacity:1;paint-order:normal"
       id="rect1229"
       width="5.8208337"
       height="5.8208337"
       x="13.758337"
       y="270.01248"
       rx="5.8208337"
       ry="5.8208337" />
    <rect
       style="display:none;opacity:1;fill:#ffff00;fill-opacity:1;stroke:none;stroke-width:0.26458335;stroke-linecap:butt;stroke-linejoin:miter;stroke-miterlimit:4;stroke-dasharray:none;stroke-opacity:1;paint-order:normal"
       id="rect1231"
       width="5.8208337"
       height="5.8208337"
       x="7.4083376"
       y="270.0119"
       rx="5.8208337"
       ry="5.8208337" />
    <path
       style="opacity:1;vector-effect:none;fill:#808080;fill-opacity:1;fill-rule:evenodd;stroke:none;stroke-width:0.21073182;stroke-linecap:butt;stroke-linejoin:round;stroke-miterlimit:4;stroke-dasharray:none;stroke-dashoffset:0;stroke-opacity:1;paint-order:normal"
       d="m 0,365 v 15 H 30 60 90 V 365 H 60 30 Z m 7.5,4.25 h 15 c 1.8005,0 3.25,1.44951 3.25,3.25 0,1.80049 -1.4495,3.25 -3.25,3.25 h -15 c -1.8005,0 -3.25,-1.44951 -3.25,-3.25 0,-1.80049 1.4495,-3.25 3.25,-3.25 z m 30,0 h 15 c 1.800499,0 3.25,1.44951 3.25,3.25 0,1.80049 -1.449501,3.25 -3.25,3.25 h -15 c -1.8005,0 -3.25,-1.44951 -3.25,-3.25 0,-1.80049 1.4495,-3.25 3.25,-3.25 z m 30,0 h 15 c 1.800499,0 3.25,1.44951 3.25,3.25 0,1.80049 -1.449501,3.25 -3.25,3.25 h -15 c -1.800499,0 -3.25,-1.44951 -3.25,-3.25 0,-1.80049 1.449501,-3.25 3.25,-3.25 z"
       transform="matrix(0.26458334,0,0,0.26458334,0,196.45832)"
       id="path1187"
       inkscape:connector-curvature="0" />
    <path
       id="path1189"
       style="opacity:1;vector-effect:none;fill:#808080;fill-opacity:1;fill-rule:evenodd;stroke:none;stroke-width:0.32985771;stroke-linecap:butt;stroke-linejoin:round;stroke-miterlimit:4;stroke-dasharray:none;stroke-dashoffset:0;stroke-opacity:1;paint-order:normal"
       d="m 11.90625,200.42707 h 11.906251 v 92.60417 H 11.90625 Z m -11.90625,0 h 11.90625 v 92.60417 H 0 Z"
       inkscape:connector-curvature="0"
       sodipodi:insensitive="true" />
    <path
       style="opacity:1;vector-effect:none;fill:#808080;fill-opacity:1;fill-rule:evenodd;stroke:none;stroke-width:0.21073182;stroke-linecap:butt;stroke-linejoin:round;stroke-miterlimit:4;stroke-dasharray:none;stroke-dashoffset:0;stroke-opacity:1;paint-order:normal"
       d="M 0,0 V 15 H 30 60 90 V 0 H 60 30 Z m 7.5,4.25 h 15 c 1.8005,0 3.25,1.4494709 3.25,3.25 0,1.8004913 -1.4495,3.25 -3.25,3.25 H 7.5 C 5.6995,10.75 4.25,9.3004913 4.25,7.5 4.25,5.6994709 5.6995,4.25 7.5,4.25 Z m 30,0 h 15 c 1.800499,0 3.25,1.4494709 3.25,3.25 0,1.8004913 -1.449501,3.25 -3.25,3.25 h -15 c -1.8005,0 -3.25,-1.4495087 -3.25,-3.25 0,-1.8005291 1.4495,-3.25 3.25,-3.25 z m 30,0 h 15 c 1.800499,0 3.25,1.4494709 3.25,3.25 0,1.8004913 -1.449501,3.25 -3.25,3.25 h -15 c -1.800499,0 -3.25,-1.4495087 -3.25,-3.25 0,-1.8005291 1.449501,-3.25 3.25,-3.25 z"
       id="path1191"
       inkscape:connector-curvature="0"
       transform="matrix(0.26458334,0,0,0.26458334,0,196.45832)"
       sodipodi:insensitive="true" />
    <path
       id="path1193"
       style="opacity:1;vector-effect:none;fill:#696969;fill-opacity:1;fill-rule:evenodd;stroke:none;stroke-width:0.32796741;stroke-linecap:butt;stroke-linejoin:round;stroke-miterlimit:4;stroke-dasharray:none;stroke-dashoffset:0;stroke-opacity:1;paint-order:normal"
       d="m 11.90625,200.95623 h 11.906251 v 91.54584 H 11.90625 Z m -11.90625,0 h 11.90625 v 91.54584 H 0 Z"
       inkscape:connector-curvature="0"
       sodipodi:insensitive="true" />
    <rect
       style="display:none;opacity:1;fill:#c0c0c0;fill-opacity:0.25490196;stroke:#000000;stroke-width:0.26458335;stroke-linecap:butt;stroke-linejoin:miter;stroke-miterlimit:4;stroke-dasharray:none;stroke-opacity:0.25373134;paint-order:normal"
       id="rect1245"
       width="23.018751"
       height="14.022917"
       x="0.39687502"
       y="278.08221"
       rx="0.79375005"
       ry="0.79375005" />
    <rect
       style="opacity:1;fill:none;fill-opacity:0.50196078;stroke:#414141;stroke-width:0.26458335;stroke-linecap:square;stroke-linejoin:round;stroke-miterlimit:4;stroke-dasharray:none;stroke-dashoffset:0;stroke-opacity:1;paint-order:stroke markers fill"
       id="rect969"
       width="23.018751"
       height="9.5250006"
       x="0.39687502"
       y="201.35315"
       rx="0.79375005"
       ry="0.79375005" />
    <rect
       ry="0.79375005"
       rx="0.79375005"
       y="210.8781"
       x="0.39687502"
       height="9.5250006"
       width="23.018751"
       id="rect1005"
       style="opacity:1;fill:#000000;fill-opacity:0.02985074;stroke:#414141;stroke-width:0.26458335;stroke-linecap:square;stroke-linejoin:round;stroke-miterlimit:4;stroke-dasharray:none;stroke-dashoffset:0;stroke-opacity:1;paint-order:stroke markers fill" />
    <rect
       style="opacity:1;fill:none;fill-opacity:0.50196078;stroke:#414141;stroke-width:0.26458335;stroke-linecap:square;stroke-linejoin:round;stroke-miterlimit:4;stroke-dasharray:none;stroke-dashoffset:0;stroke-opacity:1;paint-order:stroke markers fill"
       id="rect1007"
       width="23.018751"
       height="9.5250006"
       x="0.39687502"
       y="220.40312"
       rx="0.79375005"
       ry="0.79375005" />
    <rect
       ry="0.79375005"
       rx="0.79375005"
       y="229.92815"
       x="0.39687502"
       height="9.5250006"
       width="23.018751"
       id="rect1009"
       style="opacity:1;fill:#000000;fill-opacity:0.02985074;stroke:#414141;stroke-width:0.26458335;stroke-linecap:square;stroke-linejoin:round;stroke-miterlimit:4;stroke-dasharray:none;stroke-dashoffset:0;stroke-opacity:1;paint-order:stroke markers fill" />
    <rect
       style="opacity:1;fill:none;fill-opacity:0.50196078;stroke:#414141;stroke-width:0.26458335;stroke-linecap:square;stroke-linejoin:round;stroke-miterlimit:4;stroke-dasharray:none;stroke-dashoffset:0;stroke-opacity:1;paint-order:stroke markers fill"
       id="rect1011"
       width="23.018751"
       height="9.5250006"
       x="0.39687502"
       y="239.45317"
       rx="0.79375005"
       ry="0.79375005" />
    <rect
       ry="0.79375005"
       rx="0.79375005"
       y="248.9782"
       x="0.39687502"
       height="9.5250006"
       width="23.018751"
       id="rect1013"
       style="opacity:1;fill:#000000;fill-opacity:0.02985074;stroke:#414141;stroke-width:0.26458335;stroke-linecap:square;stroke-linejoin:round;stroke-miterlimit:4;stroke-dasharray:none;stroke-dashoffset:0;stroke-opacity:1;paint-order:stroke markers fill" />
    <rect
       style="opacity:1;fill:none;fill-opacity:0.50196078;stroke:#414141;stroke-width:0.26458335;stroke-linecap:square;stroke-linejoin:round;stroke-miterlimit:4;stroke-dasharray:none;stroke-dashoffset:0;stroke-opacity:1;paint-order:stroke markers fill"
       id="rect1015"
       width="23.018751"
       height="9.5250006"
       x="0.39687502"
       y="258.50317"
       rx="0.79375005"
       ry="0.79375005" />
    <rect
       ry="0.79375005"
       rx="0.79375005"
       y="268.02814"
       x="0.39687502"
       height="9.5250006"
       width="23.018751"
       id="rect1017"
       style="opacity:1;fill:#000000;fill-opacity:0.02985074;stroke:#414141;stroke-width:0.26458335;stroke-linecap:square;stroke-linejoin:round;stroke-miterlimit:4;stroke-dasharray:none;stroke-dashoffset:0;stroke-opacity:1;paint-order:stroke markers fill" />
    <g
       transform="translate(0.79375304,-5.2917367)"
       id="layer1"
       inkscape:label="Ebene 1"
       style="fill:#b2b2b2;fill-opacity:0.50196078;stroke:none" />
    <g
       inkscape:label="Ebene 1"
       id="g963"
       transform="translate(8.7312534,-5.2917367)"
       style="fill:#b2b2b2;fill-opacity:0.50196078;stroke:none" />
    <g
       transform="translate(16.668755,-5.2917367)"
       id="g967"
       inkscape:label="Ebene 1"
       style="fill:#b2b2b2;fill-opacity:0.50196078;stroke:none" />
    <rect
       ry="1.4552083"
       rx="1.4552083"
       y="-22.886461"
       x="269.88019"
       height="2.9104166"
       width="6.0854168"
       id="rect967"
       style="display:inline;opacity:1;fill:#b2b2b2;fill-opacity:0.50196078;stroke:none;stroke-width:0.26458332;stroke-linecap:butt;stroke-linejoin:miter;stroke-miterlimit:4;stroke-dasharray:none;stroke-opacity:1;paint-order:normal"
       transform="rotate(90)" />
    <rect
       transform="rotate(90)"
       style="display:inline;opacity:1;fill:#b2b2b2;fill-opacity:0.50196078;stroke:none;stroke-width:0.26458332;stroke-linecap:butt;stroke-linejoin:miter;stroke-miterlimit:4;stroke-dasharray:none;stroke-opacity:1;paint-order:normal"
       id="rect970"
       width="6.0854168"
       height="2.9104166"
       x="260.35522"
       y="-22.886461"
       rx="1.4552083"
       ry="1.4552083" />
    <rect
       ry="1.4552083"
       rx="1.4552083"
       y="-22.886461"
       x="250.83023"
       height="2.9104166"
       width="6.0854168"
       id="rect972"
       style="display:inline;opacity:1;fill:#b2b2b2;fill-opacity:0.50196078;stroke:none;stroke-width:0.26458332;stroke-linecap:butt;stroke-linejoin:miter;stroke-miterlimit:4;stroke-dasharray:none;stroke-opacity:1;paint-order:normal"
       transform="rotate(90)" />
    <rect
       transform="rotate(90)"
       style="display:inline;opacity:1;fill:#b2b2b2;fill-opacity:0.50196078;stroke:none;stroke-width:0.26458332;stroke-linecap:butt;stroke-linejoin:miter;stroke-miterlimit:4;stroke-dasharray:none;stroke-opacity:1;paint-order:normal"
       id="rect974"
       width="6.0854168"
       height="2.9104166"
       x="241.30521"
       y="-22.886461"
       rx="1.4552083"
       ry="1.4552083" />
    <rect
       ry="1.4552083"
       rx="1.4552083"
       y="-22.886461"
       x="231.78018"
       height="2.9104166"
       width="6.0854168"
       id="rect976"
       style="display:inline;opacity:1;fill:#b2b2b2;fill-opacity:0.50196078;stroke:none;stroke-width:0.26458332;stroke-linecap:butt;stroke-linejoin:miter;stroke-miterlimit:4;stroke-dasharray:none;stroke-opacity:1;paint-order:normal"
       transform="rotate(90)" />
    <rect
       transform="rotate(90)"
       style="display:inline;opacity:1;fill:#b2b2b2;fill-opacity:0.50196078;stroke:none;stroke-width:0.26458332;stroke-linecap:butt;stroke-linejoin:miter;stroke-miterlimit:4;stroke-dasharray:none;stroke-opacity:1;paint-order:normal"
       id="rect978"
       width="6.0854168"
       height="2.9104166"
       x="222.25516"
       y="-22.886461"
       rx="1.4552083"
       ry="1.4552083" />
    <rect
       ry="1.4552083"
       rx="1.4552083"
       y="-22.886461"
       x="212.73013"
       height="2.9104166"
       width="6.0854168"
       id="rect980"
       style="display:inline;opacity:1;fill:#b2b2b2;fill-opacity:0.50196078;stroke:none;stroke-width:0.26458332;stroke-linecap:butt;stroke-linejoin:miter;stroke-miterlimit:4;stroke-dasharray:none;stroke-opacity:1;paint-order:normal"
       transform="rotate(90)" />
    <rect
       transform="rotate(90)"
       style="display:inline;opacity:1;fill:#b2b2b2;fill-opacity:0.50196078;stroke:none;stroke-width:0.26458332;stroke-linecap:butt;stroke-linejoin:miter;stroke-miterlimit:4;stroke-dasharray:none;stroke-opacity:1;paint-order:normal"
       id="rect982"
       width="6.0854168"
       height="2.9104166"
       x="203.20511"
       y="-22.886461"
       rx="1.4552083"
       ry="1.4552083" />
    <text
       id="text1427"
       y="273.68665"
       x="21.428024"
       style="font-style:normal;font-variant:normal;font-weight:normal;font-stretch:normal;font-size:2.11666679px;line-height:1.25;font-family:'DejaVu Sans Mono';-inkscape-font-specification:'DejaVu Sans Mono, Normal';font-variant-ligatures:normal;font-variant-caps:normal;font-variant-numeric:normal;font-feature-settings:normal;text-align:center;letter-spacing:0px;word-spacing:0px;writing-mode:lr-tb;text-anchor:middle;fill:#000000;fill-opacity:1;stroke:none;stroke-width:0.26458335"
       xml:space="preserve"><tspan
         sodipodi:role="line"
         id="tspan1429"
         x="21.428024"
         y="273.68665">8</tspan></text>
    <text
       xml:space="preserve"
       style="font-style:normal;font-variant:normal;font-weight:normal;font-stretch:normal;font-size:2.11666679px;line-height:1.25;font-family:'DejaVu Sans Mono';-inkscape-font-specification:'DejaVu Sans Mono, Normal';font-variant-ligatures:normal;font-variant-caps:normal;font-variant-numeric:normal;font-feature-settings:normal;text-align:center;letter-spacing:0px;word-spacing:0px;writing-mode:lr-tb;text-anchor:middle;fill:#000000;fill-opacity:1;stroke:none;stroke-width:0.26458335"
       x="21.428024"
       y="264.16168"
       id="text1433"><tspan
         sodipodi:role="line"
         id="tspan1435"
         x="21.428024"
         y="264.16168">7</tspan></text>
    <text
       id="text1439"
       y="254.6368"
       x="21.428024"
       style="font-style:normal;font-variant:normal;font-weight:normal;font-stretch:normal;font-size:2.11666679px;line-height:1.25;font-family:'DejaVu Sans Mono';-inkscape-font-specification:'DejaVu Sans Mono, Normal';font-variant-ligatures:normal;font-variant-caps:normal;font-variant-numeric:normal;font-feature-settings:normal;text-align:center;letter-spacing:0px;word-spacing:0px;writing-mode:lr-tb;text-anchor:middle;fill:#000000;fill-opacity:1;stroke:none;stroke-width:0.26458335"
       xml:space="preserve"><tspan
         sodipodi:role="line"
         id="tspan1441"
         x="21.428024"
         y="254.6368">6</tspan></text>
    <text
       xml:space="preserve"
       style="font-style:normal;font-variant:normal;font-weight:normal;font-stretch:normal;font-size:2.11666679px;line-height:1.25;font-family:'DejaVu Sans Mono';-inkscape-font-specification:'DejaVu Sans Mono, Normal';font-variant-ligatures:normal;font-variant-caps:normal;font-variant-numeric:normal;font-feature-settings:normal;text-align:center;letter-spacing:0px;word-spacing:0px;writing-mode:lr-tb;text-anchor:middle;fill:#000000;fill-opacity:1;stroke:none;stroke-width:0.26458335"
       x="21.428024"
       y="245.11185"
       id="text1445"><tspan
         sodipodi:role="line"
         id="tspan1447"
         x="21.428024"
         y="245.11185">5</tspan></text>
    <text
       id="text1451"
       y="235.58682"
       x="21.428024"
       style="font-style:normal;font-variant:normal;font-weight:normal;font-stretch:normal;font-size:2.11666679px;line-height:1.25;font-family:'DejaVu Sans Mono';-inkscape-font-specification:'DejaVu Sans Mono, Normal';font-variant-ligatures:normal;font-variant-caps:normal;font-variant-numeric:normal;font-feature-settings:normal;text-align:center;letter-spacing:0px;word-spacing:0px;writing-mode:lr-tb;text-anchor:middle;fill:#000000;fill-opacity:1;stroke:none;stroke-width:0.26458335"
       xml:space="preserve"><tspan
         sodipodi:role="line"
         id="tspan1453"
         x="21.428024"
         y="235.58682">4</tspan></text>
    <text
       xml:space="preserve"
       style="font-style:normal;font-variant:normal;font-weight:normal;font-stretch:normal;font-size:2.11666679px;line-height:1.25;font-family:'DejaVu Sans Mono';-inkscape-font-specification:'DejaVu Sans Mono, Normal';font-variant-ligatures:normal;font-variant-caps:normal;font-variant-numeric:normal;font-feature-settings:normal;text-align:center;letter-spacing:0px;word-spacing:0px;writing-mode:lr-tb;text-anchor:middle;fill:#000000;fill-opacity:1;stroke:none;stroke-width:0.26458335"
       x="21.428024"
       y="226.0618"
       id="text1457"><tspan
         sodipodi:role="line"
         id="tspan1459"
         x="21.428024"
         y="226.0618">3</tspan></text>
    <text
       id="text1463"
       y="216.53677"
       x="21.428024"
       style="font-style:normal;font-variant:normal;font-weight:normal;font-stretch:normal;font-size:2.11666679px;line-height:1.25;font-family:'DejaVu Sans Mono';-inkscape-font-specification:'DejaVu Sans Mono, Normal';font-variant-ligatures:normal;font-variant-caps:normal;font-variant-numeric:normal;font-feature-settings:normal;text-align:center;letter-spacing:0px;word-spacing:0px;writing-mode:lr-tb;text-anchor:middle;fill:#000000;fill-opacity:1;stroke:none;stroke-width:0.26458335"
       xml:space="preserve"><tspan
         sodipodi:role="line"
         id="tspan1465"
         x="21.428024"
         y="216.53677">2</tspan></text>
    <text
       xml:space="preserve"
       style="font-style:normal;font-variant:normal;font-weight:normal;font-stretch:normal;font-size:2.11666679px;line-height:1.25;font-family:'DejaVu Sans Mono';-inkscape-font-specification:'DejaVu Sans Mono, Normal';font-variant-ligatures:normal;font-variant-caps:normal;font-variant-numeric:normal;font-feature-settings:normal;text-align:center;letter-spacing:0px;word-spacing:0px;writing-mode:lr-tb;text-anchor:middle;fill:#000000;fill-opacity:1;stroke:none;stroke-width:0.26458335"
       x="21.363743"
       y="207.01175"
       id="text1469"><tspan
         sodipodi:role="line"
         id="tspan1471"
         x="21.363743"
         y="207.01175">1</tspan></text>
    <g
       aria-label="8"
       style="font-style:normal;font-variant:normal;font-weight:normal;font-stretch:normal;font-size:2.11666679px;line-height:1.25;font-family:'DejaVu Sans Mono';-inkscape-font-specification:'DejaVu Sans Mono, Normal';font-variant-ligatures:normal;font-variant-caps:normal;font-variant-numeric:normal;font-feature-settings:normal;text-align:center;letter-spacing:0px;word-spacing:0px;writing-mode:lr-tb;text-anchor:middle;fill:#000000;fill-opacity:1;stroke:none;stroke-width:0.26458335"
       id="text950">
      <path
         d="m 21.428024,272.95387 q -0.139526,0 -0.216007,0.0786 -0.07545,0.0775 -0.07545,0.22014 0,0.14263 0.07648,0.22221 0.07752,0.0786 0.214974,0.0786 0.14056,0 0.216008,-0.0775 0.07648,-0.0786 0.07648,-0.22325 0,-0.14159 -0.07752,-0.22014 -0.07648,-0.0786 -0.214974,-0.0786 z m -0.181901,-0.0868 q -0.133325,-0.0341 -0.208773,-0.12713 -0.07441,-0.093 -0.07441,-0.22427 0,-0.18397 0.125057,-0.29146 0.125057,-0.10852 0.340031,-0.10852 0.216008,0 0.341065,0.10852 0.125057,0.10749 0.125057,0.29146 0,0.13126 -0.07545,0.22427 -0.07441,0.093 -0.207739,0.12713 0.155029,0.0341 0.236678,0.13746 0.08268,0.10335 0.08268,0.26768 0,0.20877 -0.133325,0.3266 -0.133325,0.11782 -0.36897,0.11782 -0.235644,0 -0.368969,-0.11679 -0.132292,-0.11782 -0.132292,-0.32556 0,-0.16537 0.08165,-0.26872 0.08268,-0.10439 0.237711,-0.13849 z m -0.07545,-0.33177 q 0,0.12403 0.06614,0.18914 0.06615,0.0651 0.191203,0.0651 0.126091,0 0.192237,-0.0651 0.06615,-0.0651 0.06615,-0.18914 0,-0.12609 -0.06615,-0.19223 -0.06511,-0.0661 -0.192237,-0.0661 -0.125057,0 -0.191203,0.0672 -0.06614,0.0661 -0.06614,0.1912 z"
         id="path996"
         inkscape:connector-curvature="0" />
    </g>
    <g
       aria-label="7"
       style="font-style:normal;font-variant:normal;font-weight:normal;font-stretch:normal;font-size:2.11666679px;line-height:1.25;font-family:'DejaVu Sans Mono';-inkscape-font-specification:'DejaVu Sans Mono, Normal';font-variant-ligatures:normal;font-variant-caps:normal;font-variant-numeric:normal;font-feature-settings:normal;text-align:center;letter-spacing:0px;word-spacing:0px;writing-mode:lr-tb;text-anchor:middle;fill:#000000;fill-opacity:1;stroke:none;stroke-width:0.26458335"
       id="text954">
      <path
         d="m 20.935031,262.61862 h 0.971517 v 0.0889 l -0.551904,1.45417 h -0.218075 l 0.537435,-1.36736 h -0.738973 z"
         id="path999"
         inkscape:connector-curvature="0" />
    </g>
    <g
       aria-label="6"
       style="font-style:normal;font-variant:normal;font-weight:normal;font-stretch:normal;font-size:2.11666679px;line-height:1.25;font-family:'DejaVu Sans Mono';-inkscape-font-specification:'DejaVu Sans Mono, Normal';font-variant-ligatures:normal;font-variant-caps:normal;font-variant-numeric:normal;font-feature-settings:normal;text-align:center;letter-spacing:0px;word-spacing:0px;writing-mode:lr-tb;text-anchor:middle;fill:#000000;fill-opacity:1;stroke:none;stroke-width:0.26458335"
       id="text958">
      <path
         d="m 21.815598,253.12784 v 0.19224 q -0.06511,-0.0382 -0.138493,-0.0579 -0.07338,-0.0207 -0.152963,-0.0207 -0.198437,0 -0.300756,0.14986 -0.10232,0.14883 -0.10232,0.43925 0.04961,-0.10335 0.13746,-0.15813 0.08785,-0.0558 0.201538,-0.0558 0.223242,0 0.345198,0.13746 0.12299,0.13643 0.12299,0.38757 0,0.25012 -0.12609,0.38758 -0.126091,0.13746 -0.354501,0.13746 -0.268717,0 -0.393774,-0.19224 -0.125057,-0.19327 -0.125057,-0.60771 0,-0.39068 0.149862,-0.59532 0.150895,-0.20567 0.436149,-0.20567 0.07648,0 0.152962,0.0165 0.07648,0.0155 0.147795,0.0455 z M 21.443527,253.78 q -0.133325,0 -0.209806,0.0961 -0.07648,0.0961 -0.07648,0.26561 0,0.1695 0.07648,0.26562 0.07648,0.0961 0.209806,0.0961 0.138493,0 0.208773,-0.0909 0.07028,-0.092 0.07028,-0.27079 0,-0.17983 -0.07028,-0.27078 -0.07028,-0.0909 -0.208773,-0.0909 z"
         id="path1002"
         inkscape:connector-curvature="0" />
    </g>
    <g
       aria-label="5"
       style="font-style:normal;font-variant:normal;font-weight:normal;font-stretch:normal;font-size:2.11666679px;line-height:1.25;font-family:'DejaVu Sans Mono';-inkscape-font-specification:'DejaVu Sans Mono, Normal';font-variant-ligatures:normal;font-variant-caps:normal;font-variant-numeric:normal;font-feature-settings:normal;text-align:center;letter-spacing:0px;word-spacing:0px;writing-mode:lr-tb;text-anchor:middle;fill:#000000;fill-opacity:1;stroke:none;stroke-width:0.26458335"
       id="text962">
      <path
         d="m 21.005311,243.56879 h 0.781348 v 0.1757 H 21.19548 v 0.3793 q 0.04444,-0.0165 0.08888,-0.0238 0.04547,-0.008 0.09095,-0.008 0.239779,0 0.380339,0.1416 0.14056,0.14159 0.14056,0.38344 0,0.24391 -0.147795,0.38447 -0.146761,0.14056 -0.402042,0.14056 -0.12299,0 -0.22531,-0.0165 -0.101286,-0.0165 -0.181901,-0.0496 v -0.21187 q 0.09509,0.0517 0.191203,0.0775 0.09612,0.0248 0.19637,0.0248 0.1726,0 0.265617,-0.0909 0.09405,-0.0909 0.09405,-0.25838 0,-0.16537 -0.09715,-0.25735 -0.09612,-0.092 -0.268718,-0.092 -0.08372,0 -0.163297,0.0196 -0.07958,0.0186 -0.151929,0.0568 z"
         id="path1005"
         inkscape:connector-curvature="0" />
    </g>
    <g
       aria-label="4"
       style="font-style:normal;font-variant:normal;font-weight:normal;font-stretch:normal;font-size:2.11666679px;line-height:1.25;font-family:'DejaVu Sans Mono';-inkscape-font-specification:'DejaVu Sans Mono, Normal';font-variant-ligatures:normal;font-variant-caps:normal;font-variant-numeric:normal;font-feature-settings:normal;text-align:center;letter-spacing:0px;word-spacing:0px;writing-mode:lr-tb;text-anchor:middle;fill:#000000;fill-opacity:1;stroke:none;stroke-width:0.26458335"
       id="text966">
      <path
         d="m 21.551014,234.23393 -0.486792,0.81546 h 0.486792 z m -0.03411,-0.19017 h 0.241845 v 1.00563 h 0.205673 v 0.1695 h -0.205673 v 0.36793 H 21.55101 v -0.36793 h -0.654223 v -0.19741 z"
         id="path1008"
         inkscape:connector-curvature="0" />
    </g>
    <g
       aria-label="3"
       style="font-style:normal;font-variant:normal;font-weight:normal;font-stretch:normal;font-size:2.11666679px;line-height:1.25;font-family:'DejaVu Sans Mono';-inkscape-font-specification:'DejaVu Sans Mono, Normal';font-variant-ligatures:normal;font-variant-caps:normal;font-variant-numeric:normal;font-feature-settings:normal;text-align:center;letter-spacing:0px;word-spacing:0px;writing-mode:lr-tb;text-anchor:middle;fill:#000000;fill-opacity:1;stroke:none;stroke-width:0.26458335"
       id="text970">
      <path
         d="m 21.593389,225.23601 q 0.151929,0.0403 0.232544,0.14366 0.08062,0.10232 0.08062,0.25631 0,0.21291 -0.14366,0.33487 -0.142627,0.12092 -0.395842,0.12092 -0.106453,0 -0.217041,-0.0196 -0.110588,-0.0196 -0.217041,-0.0568 v -0.20774 q 0.10542,0.0548 0.207739,0.0816 0.10232,0.0269 0.203605,0.0269 0.171566,0 0.26355,-0.0775 0.09198,-0.0775 0.09198,-0.22325 0,-0.13436 -0.09198,-0.2129 -0.09198,-0.0796 -0.24908,-0.0796 h -0.159164 v -0.17157 h 0.159164 q 0.14366,0 0.224276,-0.0631 0.08061,-0.063 0.08061,-0.1757 0,-0.11885 -0.07545,-0.1819 -0.07441,-0.0641 -0.212907,-0.0641 -0.09198,0 -0.190169,0.0207 -0.09818,0.0207 -0.205672,0.062 v -0.19224 q 0.125057,-0.0331 0.222209,-0.0496 0.09818,-0.0165 0.173632,-0.0165 0.22531,0 0.359668,0.11369 0.135393,0.11266 0.135393,0.29973 0,0.12712 -0.07131,0.21187 -0.07028,0.0848 -0.205672,0.11989 z"
         id="path1011"
         inkscape:connector-curvature="0" />
    </g>
    <g
       aria-label="2"
       style="font-style:normal;font-variant:normal;font-weight:normal;font-stretch:normal;font-size:2.11666679px;line-height:1.25;font-family:'DejaVu Sans Mono';-inkscape-font-specification:'DejaVu Sans Mono, Normal';font-variant-ligatures:normal;font-variant-caps:normal;font-variant-numeric:normal;font-feature-settings:normal;text-align:center;letter-spacing:0px;word-spacing:0px;writing-mode:lr-tb;text-anchor:middle;fill:#000000;fill-opacity:1;stroke:none;stroke-width:0.26458335"
       id="text974">
      <path
         d="m 21.176877,216.36107 h 0.709001 v 0.1757 h -0.937411 v -0.1757 q 0.19327,-0.2036 0.337964,-0.35966 0.144694,-0.15607 0.199471,-0.22015 0.103353,-0.12609 0.139526,-0.2036 0.03617,-0.0786 0.03617,-0.1602 0,-0.12919 -0.07648,-0.20257 -0.07545,-0.0734 -0.20774,-0.0734 -0.09405,0 -0.197404,0.0341 -0.103352,0.0341 -0.219108,0.10335 v -0.21084 q 0.106454,-0.0506 0.208773,-0.0765 0.103353,-0.0258 0.203605,-0.0258 0.226343,0 0.363802,0.12092 0.138493,0.11989 0.138493,0.31523 0,0.0992 -0.04651,0.19844 -0.04547,0.0992 -0.148828,0.2191 -0.05788,0.0672 -0.168465,0.18604 -0.109554,0.11886 -0.334863,0.35553 z"
         id="path1014"
         inkscape:connector-curvature="0" />
    </g>
    <g
       aria-label="1"
       style="font-style:normal;font-variant:normal;font-weight:normal;font-stretch:normal;font-size:2.11666679px;line-height:1.25;font-family:'DejaVu Sans Mono';-inkscape-font-specification:'DejaVu Sans Mono, Normal';font-variant-ligatures:normal;font-variant-caps:normal;font-variant-numeric:normal;font-feature-settings:normal;text-align:center;letter-spacing:0px;word-spacing:0px;writing-mode:lr-tb;text-anchor:middle;fill:#000000;fill-opacity:1;stroke:none;stroke-width:0.26458335"
       id="text978">
      <path
         d="m 21.006142,206.83605 h 0.324528 v -1.17926 l -0.349333,0.0786 v -0.19017 l 0.347266,-0.0765 h 0.208773 v 1.36736 h 0.320394 v 0.1757 h -0.851628 z"
         id="path1017"
         inkscape:connector-curvature="0" />
    </g>
  </g>
</svg>
