<?xml version="1.0" encoding="UTF-8" standalone="no"?>
<!-- Created with Inkscape (http://www.inkscape.org/) -->

<svg
   xmlns:dc="http://purl.org/dc/elements/1.1/"
   xmlns:cc="http://creativecommons.org/ns#"
   xmlns:rdf="http://www.w3.org/1999/02/22-rdf-syntax-ns#"
   xmlns:svg="http://www.w3.org/2000/svg"
   xmlns="http://www.w3.org/2000/svg"
   xmlns:sodipodi="http://sodipodi.sourceforge.net/DTD/sodipodi-0.dtd"
   xmlns:inkscape="http://www.inkscape.org/namespaces/inkscape"
   width="30"
   height="380"
   viewBox="0 0 7.9375003 100.54167"
   version="1.1"
   id="svg8"
   inkscape:version="0.92.2 (5c3e80d, 2017-08-06)"
   sodipodi:docname="TaHaSaHaN.svg">
  <defs
     id="defs2" />
  <sodipodi:namedview
     id="base"
     pagecolor="#b3b1b0"
     bordercolor="#666666"
     borderopacity="1.0"
     inkscape:pageopacity="0.68235294"
     inkscape:pageshadow="2"
     inkscape:zoom="4.0000002"
     inkscape:cx="38.871999"
     inkscape:cy="278.63162"
     inkscape:document-units="px"
     inkscape:current-layer="g1796"
     showgrid="false"
     units="px"
     inkscape:snap-bbox="true"
     inkscape:snap-page="true"
     inkscape:bbox-nodes="true"
     inkscape:snap-bbox-edge-midpoints="true"
     inkscape:window-width="1730"
     inkscape:window-height="900"
     inkscape:window-x="0"
     inkscape:window-y="0"
     inkscape:window-maximized="0"
     inkscape:showpageshadow="false"
     showborder="true"
     inkscape:pagecheckerboard="true"
     showguides="true"
     inkscape:guide-bbox="true">
    <inkscape:grid
       type="xygrid"
       id="grid853" />
    <sodipodi:guide
       position="3.9697837,87.892312"
       orientation="1,0"
       id="guide831"
       inkscape:locked="false" />
  </sodipodi:namedview>
  <metadata
     id="metadata5">
    <rdf:RDF>
      <cc:Work
         rdf:about="">
        <dc:format>image/svg+xml</dc:format>
        <dc:type
           rdf:resource="http://purl.org/dc/dcmitype/StillImage" />
        <dc:title />
      </cc:Work>
    </rdf:RDF>
  </metadata>
  <g
     style="display:inline"
     transform="translate(0,-196.45832)"
     id="g1796"
     inkscape:label="single">
    <path
       inkscape:connector-curvature="0"
       id="path1790"
       transform="matrix(0.26458335,0,0,0.26458335,0,196.45832)"
       d="m 0,365 v 15 h 30 v -15 z m 7.5,4.25 h 15 c 1.8005,0 3.25,1.4495 3.25,3.25 0,1.8005 -1.4495,3.25 -3.25,3.25 h -15 c -1.8005,0 -3.25,-1.4495 -3.25,-3.25 0,-1.8005 1.4495,-3.25 3.25,-3.25 z"
       style="opacity:1;vector-effect:none;fill:#808080;fill-opacity:1;fill-rule:evenodd;stroke:none;stroke-width:0.21073182;stroke-linecap:butt;stroke-linejoin:round;stroke-miterlimit:4;stroke-dasharray:none;stroke-dashoffset:0;stroke-opacity:1;paint-order:normal" />
    <path
       inkscape:connector-curvature="0"
       id="path1792"
       d="m 0,200.42707 h 7.9375004 v 92.60417 H 0 Z"
       style="opacity:1;vector-effect:none;fill:#808080;fill-opacity:1;fill-rule:evenodd;stroke:none;stroke-width:0.2693277;stroke-linecap:butt;stroke-linejoin:round;stroke-miterlimit:4;stroke-dasharray:none;stroke-dashoffset:0;stroke-opacity:1;paint-order:normal" />
    <path
       style="opacity:1;vector-effect:none;fill:#808080;fill-opacity:1;fill-rule:evenodd;stroke:none;stroke-width:0.05575613;stroke-linecap:butt;stroke-linejoin:round;stroke-miterlimit:4;stroke-dasharray:none;stroke-dashoffset:0;stroke-opacity:1;paint-order:normal"
       d="m 0,196.45832 v 3.96875 h 7.9375005 v -3.96875 z m 1.9843751,1.12448 h 3.9687503 c 0.4763823,0 0.8598959,0.38351 0.8598959,0.8599 0,0.47638 -0.3835136,0.85989 -0.8598959,0.85989 H 1.9843751 c -0.4763823,0 -0.8598959,-0.38351 -0.8598959,-0.85989 0,-0.47639 0.3835136,-0.8599 0.8598959,-0.8599 z"
       id="path1794"
       inkscape:connector-curvature="0" />
    <path
       style="opacity:1;vector-effect:none;fill:#696969;fill-opacity:1;fill-rule:evenodd;stroke:none;stroke-width:0.26778427;stroke-linecap:butt;stroke-linejoin:round;stroke-miterlimit:4;stroke-dasharray:none;stroke-dashoffset:0;stroke-opacity:1;paint-order:normal"
       d="m 0,200.95623 h 7.9375003 v 91.54584 H 0 Z"
       id="path1808"
       inkscape:connector-curvature="0" />
    <text
       xml:space="preserve"
       style="font-style:normal;font-variant:normal;font-weight:normal;font-stretch:normal;font-size:2.11666679px;line-height:1.25;font-family:'DejaVu Sans Mono';-inkscape-font-specification:'DejaVu Sans Mono, Normal';font-variant-ligatures:normal;font-variant-caps:normal;font-variant-numeric:normal;font-feature-settings:normal;text-align:center;letter-spacing:0px;word-spacing:0px;writing-mode:lr-tb;text-anchor:middle;fill:#000000;fill-opacity:1;stroke:#ffffff;stroke-width:0.00026458;stroke-miterlimit:4;stroke-dasharray:none;stroke-opacity:1"
       x="4.0018625"
       y="210.71573"
       id="text821"><tspan
         sodipodi:role="line"
         id="tspan819"
         x="4.0018625"
         y="210.71573"
         style="font-style:normal;font-variant:normal;font-weight:normal;font-stretch:normal;font-size:2.11666679px;font-family:'DejaVu Sans Mono';-inkscape-font-specification:'DejaVu Sans Mono, Normal';font-variant-ligatures:normal;font-variant-caps:normal;font-variant-numeric:normal;font-feature-settings:normal;text-align:center;writing-mode:lr-tb;text-anchor:middle;fill:#000000;stroke:#ffffff;stroke-width:0.00026458;stroke-miterlimit:4;stroke-dasharray:none;stroke-opacity:1">SMPL</tspan></text>
    <text
       id="text827"
       y="221.82822"
       x="4.0018625"
       style="font-style:normal;font-variant:normal;font-weight:normal;font-stretch:normal;font-size:2.11666679px;line-height:1.25;font-family:'DejaVu Sans Mono';-inkscape-font-specification:'DejaVu Sans Mono, Normal';font-variant-ligatures:normal;font-variant-caps:normal;font-variant-numeric:normal;font-feature-settings:normal;text-align:center;letter-spacing:0px;word-spacing:0px;writing-mode:lr-tb;text-anchor:middle;fill:#000000;fill-opacity:1;stroke:#ffffff;stroke-width:0.00026458;stroke-miterlimit:4;stroke-dasharray:none;stroke-opacity:1"
       xml:space="preserve"><tspan
         sodipodi:role="line"
         id="tspan829"
         x="4.0018625"
         y="221.82822">TRIG</tspan></text>
    <text
       xml:space="preserve"
       style="font-style:normal;font-variant:normal;font-weight:normal;font-stretch:normal;font-size:2.11666679px;line-height:1.25;font-family:'DejaVu Sans Mono';-inkscape-font-specification:'DejaVu Sans Mono, Normal';font-variant-ligatures:normal;font-variant-caps:normal;font-variant-numeric:normal;font-feature-settings:normal;text-align:center;letter-spacing:0px;word-spacing:0px;writing-mode:lr-tb;text-anchor:middle;fill:#b22222;fill-opacity:1;stroke:#000000;stroke-width:0.00026458;stroke-miterlimit:4;stroke-dasharray:none;stroke-opacity:1"
       x="4.0018625"
       y="244.61234"
       id="text837"><tspan
         sodipodi:role="line"
         id="tspan839"
         x="4.0018625"
         y="244.61234">BLND</tspan></text>
    <text
       id="text847"
       y="247.22832"
       x="4.0018625"
       style="font-style:normal;font-variant:normal;font-weight:normal;font-stretch:normal;font-size:2.11666679px;line-height:1.25;font-family:'DejaVu Sans Mono';-inkscape-font-specification:'DejaVu Sans Mono, Normal';font-variant-ligatures:normal;font-variant-caps:normal;font-variant-numeric:normal;font-feature-settings:normal;text-align:center;letter-spacing:0px;word-spacing:0px;writing-mode:lr-tb;text-anchor:middle;fill:#dcdcdc;fill-opacity:1;stroke:#000000;stroke-width:0.00026458;stroke-miterlimit:4;stroke-dasharray:none;stroke-opacity:1"
       xml:space="preserve"><tspan
         sodipodi:role="line"
         id="tspan869"
         x="4.0018625"
         y="247.22832">OUT</tspan></text>
    <text
       xml:space="preserve"
       style="font-style:normal;font-variant:normal;font-weight:normal;font-stretch:normal;font-size:2.11666679px;line-height:1.25;font-family:'DejaVu Sans Mono';-inkscape-font-specification:'DejaVu Sans Mono, Normal';font-variant-ligatures:normal;font-variant-caps:normal;font-variant-numeric:normal;font-feature-settings:normal;text-align:center;letter-spacing:0px;word-spacing:0px;writing-mode:lr-tb;text-anchor:middle;fill:#dcdcdc;fill-opacity:1;stroke:#000000;stroke-width:0.00026458;stroke-miterlimit:4;stroke-dasharray:none;stroke-opacity:1"
       x="4.0018625"
       y="273.15738"
       id="text855"><tspan
         sodipodi:role="line"
         id="tspan865"
         x="4.0018625"
         y="273.15738">SNH</tspan></text>
    <text
       id="text861"
       y="262.07486"
       x="4.0018616"
       style="font-style:normal;font-variant:normal;font-weight:normal;font-stretch:normal;font-size:2.11666679px;line-height:1.25;font-family:'DejaVu Sans Mono';-inkscape-font-specification:'DejaVu Sans Mono, Normal';font-variant-ligatures:normal;font-variant-caps:normal;font-variant-numeric:normal;font-feature-settings:normal;text-align:center;letter-spacing:0px;word-spacing:0px;writing-mode:lr-tb;text-anchor:middle;fill:#dcdcdc;fill-opacity:1;stroke:#000000;stroke-width:0.00026458;stroke-miterlimit:4;stroke-dasharray:none;stroke-opacity:1"
       xml:space="preserve"><tspan
         sodipodi:role="line"
         id="tspan863"
         x="4.0018616"
         y="262.07486">TNH</tspan></text>
    <text
       id="text875"
       y="284.26984"
       x="4.0018625"
       style="font-style:normal;font-variant:normal;font-weight:normal;font-stretch:normal;font-size:2.11666679px;line-height:1.25;font-family:'DejaVu Sans Mono';-inkscape-font-specification:'DejaVu Sans Mono, Normal';font-variant-ligatures:normal;font-variant-caps:normal;font-variant-numeric:normal;font-feature-settings:normal;text-align:center;letter-spacing:0px;word-spacing:0px;writing-mode:lr-tb;text-anchor:middle;fill:#dcdcdc;fill-opacity:1;stroke:#000000;stroke-width:0.00026458;stroke-miterlimit:4;stroke-dasharray:none;stroke-opacity:1"
       xml:space="preserve"><tspan
         sodipodi:role="line"
         id="tspan877"
         x="4.0018625"
         y="284.26984">NOIS</tspan></text>
    <g
       aria-label="SMPL"
       style="font-style:normal;font-variant:normal;font-weight:normal;font-stretch:normal;font-size:2.11666679px;line-height:1.25;font-family:'DejaVu Sans Mono';-inkscape-font-specification:'DejaVu Sans Mono, Normal';font-variant-ligatures:normal;font-variant-caps:normal;font-variant-numeric:normal;font-feature-settings:normal;text-align:center;letter-spacing:0px;word-spacing:0px;writing-mode:lr-tb;text-anchor:middle;fill:#000000;fill-opacity:1;stroke:#ffffff;stroke-width:0.00026458;stroke-miterlimit:4;stroke-dasharray:none;stroke-opacity:1"
       id="text891"
       transform="translate(0,-0.52916669)">
      <path
         d="m 2.5011788,209.75454 v 0.21187 q -0.095085,-0.061 -0.1912028,-0.092 -0.095085,-0.031 -0.1922363,-0.031 -0.1477946,0 -0.2335775,0.0692 -0.085783,0.0682 -0.085783,0.185 0,0.10232 0.055811,0.15606 0.056844,0.0538 0.2108398,0.0899 l 0.1095541,0.0248 q 0.217041,0.0506 0.3162598,0.15916 0.099219,0.10852 0.099219,0.29559 0,0.22014 -0.1364258,0.3359 -0.1364258,0.11575 -0.396875,0.11575 -0.1085205,0 -0.2180746,-0.0238 -0.109554,-0.0227 -0.2201416,-0.0693 v -0.22221 q 0.1188558,0.0754 0.2242758,0.11059 0.1064534,0.0351 0.2139404,0.0351 0.1581299,0 0.2459798,-0.0703 0.08785,-0.0713 0.08785,-0.19844 0,-0.11575 -0.060978,-0.17673 -0.059945,-0.061 -0.2098064,-0.0941 l -0.1116211,-0.0258 q -0.2149739,-0.0486 -0.3121256,-0.14676 -0.097152,-0.0982 -0.097152,-0.26355 0,-0.2067 0.1384928,-0.33073 0.1395264,-0.12506 0.3700033,-0.12506 0.088884,0 0.1870687,0.0207 0.098185,0.0196 0.2067057,0.0599 z"
         style="font-style:normal;font-variant:normal;font-weight:normal;font-stretch:normal;font-size:2.11666679px;font-family:'DejaVu Sans Mono';-inkscape-font-specification:'DejaVu Sans Mono, Normal';font-variant-ligatures:normal;font-variant-caps:normal;font-variant-numeric:normal;font-feature-settings:normal;text-align:center;writing-mode:lr-tb;text-anchor:middle;fill:#000000;stroke:#ffffff;stroke-width:0.00026458;stroke-miterlimit:4;stroke-dasharray:none;stroke-opacity:1"
         id="path917"
         inkscape:connector-curvature="0" />
      <path
         d="m 2.8174386,209.70183 h 0.2790527 l 0.2666504,0.78548 0.2687175,-0.78548 h 0.2800863 v 1.54306 H 3.7186756 v -1.36323 L 3.443757,210.69505 H 3.2856271 l -0.2759522,-0.81339 v 1.36323 H 2.8174386 Z"
         style="font-style:normal;font-variant:normal;font-weight:normal;font-stretch:normal;font-size:2.11666679px;font-family:'DejaVu Sans Mono';-inkscape-font-specification:'DejaVu Sans Mono, Normal';font-variant-ligatures:normal;font-variant-caps:normal;font-variant-numeric:normal;font-feature-settings:normal;text-align:center;writing-mode:lr-tb;text-anchor:middle;fill:#000000;stroke:#ffffff;stroke-width:0.00026458;stroke-miterlimit:4;stroke-dasharray:none;stroke-opacity:1"
         id="path919"
         inkscape:connector-curvature="0" />
      <path
         d="m 4.4142404,209.8734 v 0.57981 h 0.2418457 q 0.144694,0 0.2253093,-0.0765 0.081649,-0.0765 0.081649,-0.21394 0,-0.13746 -0.080615,-0.2129 -0.080615,-0.0765 -0.2263428,-0.0765 z m -0.2087728,-0.17157 h 0.4506185 q 0.2583822,0 0.3917074,0.11782 0.1333252,0.11679 0.1333252,0.34313 0,0.22841 -0.1333252,0.3452 -0.1322917,0.11679 -0.3917074,0.11679 H 4.4142404 v 0.62012 H 4.2054676 Z"
         style="font-style:normal;font-variant:normal;font-weight:normal;font-stretch:normal;font-size:2.11666679px;font-family:'DejaVu Sans Mono';-inkscape-font-specification:'DejaVu Sans Mono, Normal';font-variant-ligatures:normal;font-variant-caps:normal;font-variant-numeric:normal;font-feature-settings:normal;text-align:center;writing-mode:lr-tb;text-anchor:middle;fill:#000000;stroke:#ffffff;stroke-width:0.00026458;stroke-miterlimit:4;stroke-dasharray:none;stroke-opacity:1"
         id="path921"
         inkscape:connector-curvature="0" />
      <path
         d="m 5.4973784,209.70183 h 0.2098064 v 1.36736 H 6.452359 v 0.1757 H 5.4973784 Z"
         style="font-style:normal;font-variant:normal;font-weight:normal;font-stretch:normal;font-size:2.11666679px;font-family:'DejaVu Sans Mono';-inkscape-font-specification:'DejaVu Sans Mono, Normal';font-variant-ligatures:normal;font-variant-caps:normal;font-variant-numeric:normal;font-feature-settings:normal;text-align:center;writing-mode:lr-tb;text-anchor:middle;fill:#000000;stroke:#ffffff;stroke-width:0.00026458;stroke-miterlimit:4;stroke-dasharray:none;stroke-opacity:1"
         id="path923"
         inkscape:connector-curvature="0" />
    </g>
    <g
       aria-label="TRIG"
       style="font-style:normal;font-variant:normal;font-weight:normal;font-stretch:normal;font-size:2.11666679px;line-height:1.25;font-family:'DejaVu Sans Mono';-inkscape-font-specification:'DejaVu Sans Mono, Normal';font-variant-ligatures:normal;font-variant-caps:normal;font-variant-numeric:normal;font-feature-settings:normal;text-align:center;letter-spacing:0px;word-spacing:0px;writing-mode:lr-tb;text-anchor:middle;fill:#000000;fill-opacity:1;stroke:#ffffff;stroke-width:0.00026458;stroke-miterlimit:4;stroke-dasharray:none;stroke-opacity:1"
       id="text895">
      <path
         d="m 1.5038236,220.28516 h 1.1771892 v 0.1757 H 2.1983549 v 1.36736 H 1.9885486 v -1.36736 h -0.484725 z"
         id="path926"
         inkscape:connector-curvature="0" />
      <path
         d="m 3.5140369,221.09958 q 0.080615,0.0207 0.1374593,0.0786 0.056844,0.0568 0.1415935,0.22841 l 0.2098063,0.42168 H 3.7786203 l -0.1839681,-0.38964 q -0.079582,-0.1664 -0.1436605,-0.21394 -0.063045,-0.0486 -0.1653646,-0.0486 H 3.086156 v 0.65216 H 2.8763497 v -1.54306 h 0.429948 q 0.254248,0 0.3896403,0.11472 0.1353922,0.11472 0.1353922,0.33176 0,0.15296 -0.083716,0.25012 -0.082682,0.0961 -0.2335775,0.11782 z M 3.086156,220.45672 v 0.54777 h 0.2284099 q 0.1498617,0 0.2232422,-0.0672 0.073381,-0.0672 0.073381,-0.20567 0,-0.13332 -0.078548,-0.2036 -0.077515,-0.0713 -0.2263427,-0.0713 z"
         id="path928"
         inkscape:connector-curvature="0" />
      <path
         d="M 4.2096017,220.28516 H 5.066397 v 0.1757 H 4.7429025 v 1.19166 H 5.066397 v 0.1757 H 4.2096017 v -0.1757 h 0.3234945 v -1.19166 H 4.2096017 Z"
         id="path930"
         inkscape:connector-curvature="0" />
      <path
         d="m 6.4161855,221.70109 q -0.083716,0.0775 -0.1891358,0.11782 -0.1043864,0.0393 -0.2263428,0.0393 -0.2935221,0 -0.4568197,-0.20981 -0.1632975,-0.21084 -0.1632975,-0.59014 0,-0.37827 0.1653646,-0.58911 0.1653646,-0.21188 0.4599203,-0.21188 0.097152,0 0.1860351,0.0279 0.088883,0.0269 0.1715658,0.0827 v 0.21394 q -0.083716,-0.0796 -0.1715658,-0.11679 -0.08785,-0.0382 -0.1860351,-0.0382 -0.2036052,0 -0.3059245,0.15813 -0.1012859,0.1571 -0.1012859,0.47336 0,0.32143 0.098185,0.47645 0.099219,0.154 0.3038574,0.154 0.069246,0 0.1209229,-0.0155 0.05271,-0.0165 0.095085,-0.0507 V 221.2081 H 5.9924387 v -0.17157 h 0.4237468 z"
         id="path932"
         inkscape:connector-curvature="0" />
    </g>
    <g
       aria-label="BLND"
       style="font-style:normal;font-variant:normal;font-weight:normal;font-stretch:normal;font-size:2.11666679px;line-height:1.25;font-family:'DejaVu Sans Mono';-inkscape-font-specification:'DejaVu Sans Mono, Normal';font-variant-ligatures:normal;font-variant-caps:normal;font-variant-numeric:normal;font-feature-settings:normal;text-align:center;letter-spacing:0px;word-spacing:0px;writing-mode:lr-tb;text-anchor:middle;fill:#b22222;fill-opacity:1;stroke:#000000;stroke-width:0.00026458;stroke-miterlimit:4;stroke-dasharray:none;stroke-opacity:1"
       id="text899"
       transform="translate(0,1.5875001)">
      <path
         d="m 1.8366199,242.28795 v 0.56534 h 0.2470133 q 0.1819011,0 0.2594157,-0.063 0.077515,-0.0641 0.077515,-0.20981 0,-0.1509 -0.081649,-0.22118 -0.081649,-0.0713 -0.2552816,-0.0713 z m 0,-0.63459 v 0.46509 h 0.2428792 q 0.1508952,0 0.2180746,-0.0579 0.068213,-0.0579 0.068213,-0.18706 0,-0.11679 -0.067179,-0.16847 -0.066146,-0.0517 -0.2191081,-0.0517 z M 1.6268136,241.4818 h 0.4568196 q 0.2366781,0 0.3648357,0.10232 0.1281575,0.10232 0.1281575,0.28939 0,0.14159 -0.068213,0.22324 -0.067179,0.0817 -0.2025716,0.10232 0.1519287,0.0227 0.2377116,0.13022 0.086816,0.10646 0.086816,0.27182 0,0.20981 -0.1374593,0.31729 -0.1374593,0.10646 -0.4092774,0.10646 H 1.6268136 Z"
         id="path935"
         inkscape:connector-curvature="0" />
      <path
         d="m 2.9507638,241.4818 h 0.2098063 v 1.36736 h 0.7451742 v 0.1757 H 2.9507638 Z"
         id="path937"
         inkscape:connector-curvature="0" />
      <path
         d="m 4.1455229,241.4818 h 0.2645834 l 0.5208984,1.2702 v -1.2702 h 0.2015381 v 1.54306 H 4.8679595 L 4.347061,241.75465 v 1.27021 H 4.1455229 Z"
         id="path939"
         inkscape:connector-curvature="0" />
      <path
         d="m 5.7257883,242.85329 q 0.2635498,0 0.3679362,-0.12919 0.1043864,-0.13022 0.1043864,-0.46922 0,-0.3421 -0.1043864,-0.47129 -0.1033529,-0.13023 -0.3679362,-0.13023 h -0.099219 v 1.19993 z m 0.00413,-1.37149 q 0.3534668,0 0.5208985,0.1881 0.1674316,0.1881 0.1674316,0.58498 0,0.39481 -0.1674316,0.58291 -0.1674317,0.18707 -0.5208985,0.18707 H 5.4167632 v -1.54306 z"
         id="path941"
         inkscape:connector-curvature="0" />
    </g>
    <g
       aria-label="OUT"
       style="font-style:normal;font-variant:normal;font-weight:normal;font-stretch:normal;font-size:2.11666679px;line-height:1.25;font-family:'DejaVu Sans Mono';-inkscape-font-specification:'DejaVu Sans Mono, Normal';font-variant-ligatures:normal;font-variant-caps:normal;font-variant-numeric:normal;font-feature-settings:normal;text-align:center;letter-spacing:0px;word-spacing:0px;writing-mode:lr-tb;text-anchor:middle;fill:#dcdcdc;fill-opacity:1;stroke:#000000;stroke-width:0.00026458;stroke-miterlimit:4;stroke-dasharray:none;stroke-opacity:1"
       id="text903"
       transform="translate(0,-6.8791668)">
      <path
         d="m 3.027245,253.33741 q 0,-0.34003 -0.07028,-0.48576 -0.069246,-0.14572 -0.2284098,-0.14572 -0.1581299,0 -0.2284099,0.14572 -0.069246,0.14573 -0.069246,0.48576 0,0.339 0.069246,0.48473 0.07028,0.14572 0.2284099,0.14572 0.1591634,0 0.2284098,-0.14469 0.07028,-0.14573 0.07028,-0.48576 z m 0.2180745,0 q 0,0.40308 -0.1281575,0.60152 -0.1271241,0.19843 -0.3886068,0.19843 -0.2614828,0 -0.3886068,-0.1974 -0.1271241,-0.1974 -0.1271241,-0.60255 0,-0.40411 0.1271241,-0.60254 0.1281575,-0.19844 0.3886068,-0.19844 0.2614827,0 0.3886068,0.19844 0.1281575,0.19843 0.1281575,0.60254 z"
         id="path944"
         inkscape:connector-curvature="0" />
      <path
         d="m 3.5171375,253.51518 v -0.95085 h 0.2098063 v 1.04593 q 0,0.11266 0.0062,0.16123 0.0062,0.0476 0.021704,0.0734 0.033073,0.061 0.095085,0.092 0.063045,0.031 0.1519287,0.031 0.089917,0 0.1519287,-0.031 0.062012,-0.031 0.096118,-0.092 0.015503,-0.0258 0.021704,-0.0734 0.0062,-0.0475 0.0062,-0.15916 v -1.048 H 4.486585 v 0.95085 q 0,0.23668 -0.029972,0.33693 -0.028939,0.0992 -0.1012858,0.16433 -0.068213,0.061 -0.1560628,0.091 -0.08785,0.03 -0.197404,0.03 -0.1085205,0 -0.1963705,-0.03 -0.08785,-0.03 -0.1570963,-0.091 -0.071314,-0.0641 -0.1012859,-0.16536 -0.029972,-0.10232 -0.029972,-0.3359 z"
         id="path946"
         inkscape:connector-curvature="0" />
      <path
         d="m 4.687092,252.56433 h 1.1771892 v 0.1757 H 5.3816233 v 1.36736 H 5.1718169 v -1.36736 H 4.687092 Z"
         id="path948"
         inkscape:connector-curvature="0" />
    </g>
    <g
       aria-label="SNH"
       style="font-style:normal;font-variant:normal;font-weight:normal;font-stretch:normal;font-size:2.11666679px;line-height:1.25;font-family:'DejaVu Sans Mono';-inkscape-font-specification:'DejaVu Sans Mono, Normal';font-variant-ligatures:normal;font-variant-caps:normal;font-variant-numeric:normal;font-feature-settings:normal;text-align:center;letter-spacing:0px;word-spacing:0px;writing-mode:lr-tb;text-anchor:middle;fill:#dcdcdc;fill-opacity:1;stroke:#000000;stroke-width:0.00026458;stroke-miterlimit:4;stroke-dasharray:none;stroke-opacity:1"
       id="text907"
       transform="translate(0,-6.879167)">
      <path
         d="m 3.1378325,278.54621 v 0.21188 q -0.095085,-0.061 -0.1912028,-0.092 -0.095085,-0.031 -0.1922363,-0.031 -0.1477946,0 -0.2335775,0.0692 -0.085783,0.0682 -0.085783,0.185 0,0.10232 0.055811,0.15607 0.056844,0.0537 0.2108398,0.0899 l 0.1095541,0.0248 q 0.217041,0.0506 0.3162597,0.15916 0.099219,0.10852 0.099219,0.29559 0,0.22014 -0.1364258,0.3359 -0.1364258,0.11575 -0.396875,0.11575 -0.1085205,0 -0.2180746,-0.0238 -0.109554,-0.0227 -0.2201416,-0.0693 v -0.2222 q 0.1188558,0.0754 0.2242757,0.11058 0.1064535,0.0351 0.2139405,0.0351 0.1581299,0 0.2459798,-0.0703 0.08785,-0.0713 0.08785,-0.19843 0,-0.11576 -0.060978,-0.17674 -0.059945,-0.061 -0.2098064,-0.094 L 2.64484,279.33157 q -0.2149739,-0.0486 -0.3121256,-0.14676 -0.097152,-0.0982 -0.097152,-0.26355 0,-0.2067 0.1384928,-0.33073 0.1395264,-0.12505 0.3700033,-0.12505 0.088883,0 0.1870687,0.0207 0.098185,0.0196 0.2067057,0.0599 z"
         id="path951"
         inkscape:connector-curvature="0" />
      <path
         d="m 3.5088693,278.4935 h 0.2645833 l 0.5208985,1.27021 v -1.27021 h 0.2015381 v 1.54306 H 4.2313059 l -0.5208985,-1.27021 v 1.27021 H 3.5088693 Z"
         id="path953"
         inkscape:connector-curvature="0" />
      <path
         d="m 4.7801096,278.4935 h 0.2098063 v 0.63252 h 0.5715414 v -0.63252 h 0.2098063 v 1.54306 H 5.5614573 v -0.73484 H 4.9899159 v 0.73484 H 4.7801096 Z"
         id="path955"
         inkscape:connector-curvature="0" />
    </g>
    <g
       aria-label="TNH"
       style="font-style:normal;font-variant:normal;font-weight:normal;font-stretch:normal;font-size:2.11666679px;line-height:1.25;font-family:'DejaVu Sans Mono';-inkscape-font-specification:'DejaVu Sans Mono, Normal';font-variant-ligatures:normal;font-variant-caps:normal;font-variant-numeric:normal;font-feature-settings:normal;text-align:center;letter-spacing:0px;word-spacing:0px;writing-mode:lr-tb;text-anchor:middle;fill:#dcdcdc;fill-opacity:1;stroke:#000000;stroke-width:0.00026458;stroke-miterlimit:4;stroke-dasharray:none;stroke-opacity:1"
       id="text911"
       transform="translate(2.4561404e-7,-29.10417)">
      <path
         d="m 2.1404773,289.63596 h 1.1771892 v 0.1757 H 2.8350086 v 1.36736 H 2.6252023 v -1.36736 h -0.484725 z"
         id="path958"
         inkscape:connector-curvature="0" />
      <path
         d="m 3.5088693,289.63596 h 0.2645833 l 0.5208985,1.2702 v -1.2702 h 0.2015381 v 1.54306 H 4.2313059 l -0.5208985,-1.27021 v 1.27021 H 3.5088693 Z"
         id="path960"
         inkscape:connector-curvature="0" />
      <path
         d="m 4.7801096,289.63596 h 0.2098063 v 0.63252 h 0.5715414 v -0.63252 h 0.2098063 v 1.54306 H 5.5614573 v -0.73484 H 4.9899159 v 0.73484 H 4.7801096 Z"
         id="path962"
         inkscape:connector-curvature="0" />
    </g>
    <g
       aria-label="NOIS"
       style="font-style:normal;font-variant:normal;font-weight:normal;font-stretch:normal;font-size:2.11666679px;line-height:1.25;font-family:'DejaVu Sans Mono';-inkscape-font-specification:'DejaVu Sans Mono, Normal';font-variant-ligatures:normal;font-variant-caps:normal;font-variant-numeric:normal;font-feature-settings:normal;text-align:center;letter-spacing:0px;word-spacing:0px;writing-mode:lr-tb;text-anchor:middle;fill:#dcdcdc;fill-opacity:1;stroke:#000000;stroke-width:0.00026458;stroke-miterlimit:4;stroke-dasharray:none;stroke-opacity:1"
       id="text915"
       transform="translate(0,15.345834)">
      <path
         d="m 1.5989083,267.38098 h 0.2645833 l 0.5208985,1.27021 v -1.27021 h 0.2015381 v 1.54306 H 2.3213448 l -0.5208984,-1.27021 v 1.27021 H 1.5989083 Z"
         id="path965"
         inkscape:connector-curvature="0" />
      <path
         d="m 3.6638986,268.15406 q 0,-0.34003 -0.07028,-0.48576 -0.069246,-0.14572 -0.2284098,-0.14572 -0.1581299,0 -0.2284098,0.14572 -0.069246,0.14573 -0.069246,0.48576 0,0.339 0.069246,0.48473 0.07028,0.14573 0.2284098,0.14573 0.1591634,0 0.2284098,-0.1447 0.07028,-0.14573 0.07028,-0.48576 z m 0.2180746,0 q 0,0.40308 -0.1281576,0.60152 -0.127124,0.19843 -0.3886068,0.19843 -0.2614828,0 -0.3886068,-0.1974 -0.127124,-0.1974 -0.127124,-0.60255 0,-0.40411 0.127124,-0.60254 0.1281576,-0.19844 0.3886068,-0.19844 0.2614828,0 0.3886068,0.19844 0.1281576,0.19843 0.1281576,0.60254 z"
         id="path967"
         inkscape:connector-curvature="0" />
      <path
         d="M 4.2096017,267.38098 H 5.066397 v 0.1757 H 4.7429025 v 1.19166 H 5.066397 v 0.1757 H 4.2096017 v -0.1757 h 0.3234945 v -1.19166 H 4.2096017 Z"
         id="path969"
         inkscape:connector-curvature="0" />
      <path
         d="m 6.3211008,267.43369 v 0.21188 q -0.095085,-0.061 -0.1912028,-0.092 -0.095085,-0.031 -0.1922363,-0.031 -0.1477946,0 -0.2335775,0.0692 -0.085783,0.0682 -0.085783,0.185 0,0.10232 0.055811,0.15607 0.056844,0.0537 0.2108399,0.0899 l 0.109554,0.0248 q 0.2170411,0.0506 0.3162598,0.15916 0.099219,0.10852 0.099219,0.29559 0,0.22014 -0.1364258,0.3359 -0.1364258,0.11575 -0.396875,0.11575 -0.1085205,0 -0.2180746,-0.0238 -0.109554,-0.0227 -0.2201416,-0.0692 v -0.22221 q 0.1188558,0.0755 0.2242757,0.11059 0.1064535,0.0351 0.2139405,0.0351 0.1581299,0 0.2459798,-0.0703 0.08785,-0.0713 0.08785,-0.19844 0,-0.11576 -0.060978,-0.17674 -0.059945,-0.061 -0.2098063,-0.0941 l -0.1116211,-0.0258 q -0.214974,-0.0486 -0.3121257,-0.14677 -0.097152,-0.0982 -0.097152,-0.26355 0,-0.2067 0.1384928,-0.33072 0.1395264,-0.12506 0.3700033,-0.12506 0.088883,0 0.1870687,0.0207 0.098185,0.0196 0.2067057,0.0599 z"
         id="path971"
         inkscape:connector-curvature="0" />
    </g>
  </g>
</svg>
